<svg width="21" height="20" viewBox="0 0 21 20" fill="none" xmlns="http://www.w3.org/2000/svg">
<g clip-path="url(#clip0_24_1113)">
<path d="M17.3847 0.347219C17.7262 0.609237 17.9379 0.955707 18.1416 1.32812C18.1685 1.37636 18.1954 1.42457 18.2225 1.47275C18.2778 1.57152 18.3329 1.6704 18.3879 1.76937C18.5108 1.98995 18.6375 2.20829 18.7641 2.42675C18.8126 2.51057 18.861 2.59439 18.9094 2.67822C18.9333 2.71961 18.9572 2.761 18.9819 2.80365C19.0555 2.93106 19.1289 3.05854 19.2024 3.18603C19.2516 3.27148 19.3009 3.35693 19.3501 3.44238C19.3741 3.48408 19.3981 3.52579 19.4229 3.56876C19.5447 3.78001 19.6671 3.99085 19.7908 4.20105C19.8152 4.24258 19.8395 4.28412 19.8647 4.32691C19.9104 4.40467 19.9563 4.48236 20.0023 4.55995C20.3816 5.20521 20.6215 5.78002 20.4745 6.53762C20.4387 6.64371 20.3969 6.73746 20.3437 6.83593C20.3243 6.87229 20.3049 6.90864 20.2848 6.9461C20.0045 7.42465 19.6204 7.66952 19.1108 7.86621C18.9223 7.90048 18.7379 7.89684 18.5469 7.89062C18.5535 7.92285 18.5601 7.95507 18.5669 7.98828C18.7382 9.21674 18.1796 10.7102 17.4531 11.6797C17.438 11.7004 17.4229 11.7211 17.4073 11.7425C16.3826 13.143 14.8985 13.9876 13.1953 14.2578C13.0514 14.2797 12.9111 14.2924 12.7656 14.2969C12.7397 14.2977 12.7139 14.2985 12.6872 14.2993C11.1337 14.3402 9.58074 13.8793 8.39061 12.8516C8.22167 12.9163 8.1135 13.0418 7.99022 13.1689C7.96857 13.1909 7.94692 13.2129 7.92461 13.2356C7.87143 13.2897 7.8185 13.3441 7.76561 13.3984C7.83006 13.5662 7.95379 13.6721 8.08056 13.7939C8.35708 14.0618 8.35708 14.0618 8.37108 14.2627C8.36685 14.4113 8.34449 14.4823 8.2434 14.591C8.20586 14.6316 8.20586 14.6316 8.16757 14.673C7.98045 14.8667 7.79167 15.0585 7.60146 15.2492C7.55355 15.2973 7.50566 15.3455 7.45777 15.3937C7.30148 15.5508 7.14499 15.7077 6.98848 15.8646C6.93438 15.9188 6.88028 15.9731 6.82617 16.0274C6.57207 16.2822 6.31787 16.5369 6.06356 16.7916C5.77083 17.0847 5.47842 17.3781 5.18628 17.6719C4.9598 17.8995 4.73302 18.1269 4.50602 18.354C4.37072 18.4894 4.23555 18.6249 4.10069 18.7608C3.97384 18.8885 3.84662 19.0159 3.71911 19.143C3.67259 19.1895 3.6262 19.2361 3.57996 19.2829C3.18597 19.6812 2.81199 20.0038 2.22604 20.0149C1.67233 20.0136 1.30686 19.8969 0.901753 19.5056C0.540805 19.1162 0.481157 18.7022 0.489308 18.1947C0.514607 17.5526 0.995094 17.1495 1.42205 16.7247C1.47162 16.6751 1.52118 16.6254 1.57073 16.5758C1.70443 16.4419 1.83837 16.3083 1.97236 16.1747C2.11275 16.0346 2.25292 15.8944 2.39313 15.7542C2.62826 15.5191 2.86355 15.2841 3.09893 15.0493C3.37126 14.7776 3.64338 14.5056 3.91539 14.2336C4.17723 13.9717 4.43919 13.71 4.70121 13.4483C4.81271 13.3369 4.92418 13.2255 5.03562 13.1141C5.16657 12.9832 5.29762 12.8524 5.42874 12.7216C5.47693 12.6736 5.52509 12.6255 5.57321 12.5773C5.63867 12.5118 5.70426 12.4465 5.76988 12.3811C5.78907 12.3619 5.80827 12.3426 5.82804 12.3228C5.95427 12.1975 6.03026 12.1413 6.208 12.1289C6.40559 12.1314 6.49553 12.205 6.63295 12.3402C6.65868 12.3672 6.68442 12.3941 6.71093 12.4219C6.76952 12.4797 6.82811 12.5374 6.88671 12.5952C6.93238 12.6415 6.97799 12.6878 7.02343 12.7344C7.19237 12.6696 7.30054 12.5441 7.42382 12.417C7.44547 12.395 7.46712 12.373 7.48943 12.3503C7.54261 12.2962 7.59554 12.2419 7.64843 12.1875C7.59759 12.0423 7.53771 11.9456 7.43602 11.831C6.76709 11.0116 6.37382 9.9487 6.24218 8.90625C6.23785 8.87397 6.23352 8.84169 6.22905 8.80844C6.04771 7.20326 6.5151 5.54873 7.51659 4.28237C7.62164 4.15332 7.73131 4.02891 7.84374 3.90625C7.86301 3.8852 7.88229 3.86416 7.90214 3.84248C8.89973 2.76872 10.3833 2.0089 11.8607 1.94683C12.0305 1.94503 12.2003 1.94357 12.3701 1.94335C12.4006 1.94328 12.4311 1.9432 12.4625 1.94312C13.5255 1.94245 13.5255 1.94245 13.8594 2.10937C13.8748 2.06811 13.8748 2.06811 13.8905 2.02602C13.9699 1.8367 14.0762 1.66232 14.1787 1.48471C14.2177 1.41691 14.2563 1.34887 14.2949 1.28082C14.6268 0.703942 14.985 0.232935 15.6446 0.0346331C16.2513 -0.108579 16.8728 -0.00532857 17.3847 0.347219ZM15.4278 1.2088C15.2704 1.39928 15.1543 1.61382 15.0337 1.82861C14.9949 1.89671 14.9562 1.96481 14.9174 2.03289C14.8774 2.10318 14.8375 2.17353 14.7976 2.2439C14.675 2.46021 14.5503 2.67535 14.4258 2.89062C14.3769 2.97525 14.3281 3.05989 14.2793 3.14453C13.9863 3.65234 13.9863 3.65234 13.913 3.77945C13.8645 3.86354 13.816 3.94763 13.7675 4.03174C13.6541 4.22857 13.5405 4.42526 13.426 4.62149C13.3856 4.69073 13.3453 4.76002 13.305 4.82933C13.2545 4.91608 13.2039 5.00276 13.1532 5.08934C12.84 5.61521 12.84 5.61521 12.8047 6.21093C12.8897 6.50057 13.0468 6.74282 13.3094 6.89926C13.6303 7.05316 13.985 7.02308 14.333 7.02392C14.4142 7.02477 14.4954 7.02568 14.5765 7.02664C14.7879 7.02881 14.9993 7.02985 15.2106 7.03043C15.4239 7.03104 15.6371 7.03221 15.8503 7.0335C16.2377 7.03579 16.6252 7.03723 17.0126 7.03825C17.1184 7.03857 17.2241 7.03899 17.3299 7.03942C17.4986 7.04008 17.6674 7.0403 17.8361 7.04021C17.8988 7.04024 17.9615 7.04039 18.0242 7.04069C18.728 7.04927 18.728 7.04926 19.3281 6.71875C19.5458 6.45076 19.6234 6.23034 19.6196 5.88485C19.5869 5.6258 19.4585 5.4163 19.3281 5.19531C19.2999 5.14649 19.2717 5.09766 19.2436 5.04882C19.1802 4.93991 19.1161 4.83153 19.0515 4.72335C18.9176 4.49868 18.7872 4.27204 18.6567 4.04541C18.6194 3.98067 18.6194 3.98067 18.5814 3.91462C18.5047 3.78163 18.4281 3.64863 18.3516 3.51562C18.1807 3.21896 18.0097 2.92239 17.8384 2.62599C17.7892 2.54091 17.7402 2.45579 17.6912 2.37064C17.6185 2.24439 17.5456 2.11827 17.4726 1.99218C17.4511 1.95466 17.4296 1.91714 17.4074 1.87849C17.0607 1.26229 17.0607 1.26229 16.4766 0.898433C16.0637 0.860855 15.7181 0.891645 15.4278 1.2088ZM8.70311 4.33593C8.67189 4.36418 8.64067 4.39243 8.60851 4.42153C7.63926 5.33368 7.13064 6.69821 7.09039 8.01183C7.07832 8.9492 7.31258 9.84712 7.76561 10.6641C7.78817 10.7062 7.81073 10.7484 7.83397 10.7918C7.99102 11.075 8.17834 11.3187 8.39061 11.5625C8.41881 11.5959 8.44701 11.6294 8.47606 11.6638C9.35755 12.6838 10.691 13.2886 12.0234 13.3984C13.4182 13.4827 14.7971 13.03 15.8516 12.1094C16.9631 11.1064 17.588 9.80219 17.683 8.30738C17.6904 8.15647 17.6786 8.0414 17.6484 7.89062C17.3648 7.89062 17.0812 7.89062 16.7891 7.89062C16.7858 8.01147 16.7826 8.13232 16.7793 8.25683C16.7364 9.29664 16.382 10.2315 15.6953 11.0156C15.6587 11.0606 15.6587 11.0606 15.6214 11.1066C14.9968 11.8572 14.0247 12.3004 13.0781 12.4609C13.0488 12.4661 13.0195 12.4712 12.9893 12.4765C11.8894 12.6324 10.7023 12.3398 9.80236 11.6911C8.82787 10.9585 8.20694 9.92036 8.03021 8.71234C7.88444 7.57276 8.15744 6.4255 8.83739 5.4956C8.89615 5.42103 8.95553 5.34694 9.01561 5.27343C9.04104 5.24111 9.06647 5.20878 9.09267 5.17547C9.739 4.40088 10.7854 3.85734 11.7891 3.75C11.8815 3.74981 11.974 3.75138 12.0665 3.75442C12.5552 3.79425 12.5552 3.79425 13.0069 3.65507C13.1485 3.50028 13.2127 3.32309 13.2734 3.125C13.2991 3.05976 13.325 2.99459 13.3516 2.92968C11.6997 2.47918 9.89791 3.20858 8.70311 4.33593ZM11.2744 4.75926C10.8369 4.91169 10.458 5.12311 10.1094 5.42968C10.065 5.46571 10.065 5.46571 10.0196 5.50247C9.32864 6.07791 8.94396 6.96908 8.85936 7.85156C8.79679 8.78803 9.09872 9.69297 9.7076 10.4076C10.3654 11.1463 11.2491 11.577 12.2364 11.6507C13.2189 11.6826 14.0654 11.3207 14.8042 10.6934C15.5049 10.0358 15.8789 9.15265 15.9318 8.19854C15.9298 8.09042 15.9132 7.99601 15.8906 7.89062C15.8608 7.89048 15.831 7.89034 15.8003 7.89019C15.5177 7.8887 15.235 7.88647 14.9523 7.88344C14.807 7.8819 14.6618 7.88064 14.5165 7.88003C14.3759 7.87944 14.2353 7.87808 14.0948 7.87623C14.0158 7.87538 13.9369 7.87529 13.858 7.87522C13.3188 7.86678 12.8586 7.71334 12.4519 7.35122C12.0378 6.91442 11.9197 6.37982 11.9334 5.79956C11.9563 5.34927 12.1853 4.98463 12.4141 4.60937C12.1277 4.46621 11.566 4.66394 11.2744 4.75926ZM6.14131 13.2996C6.11533 13.3257 6.08935 13.3519 6.06258 13.3789C6.03451 13.4071 6.00644 13.4353 5.97751 13.4644C5.94803 13.4942 5.91855 13.524 5.88817 13.5547C5.85854 13.5845 5.82891 13.6143 5.79837 13.645C5.72487 13.719 5.65145 13.793 5.57811 13.8672C5.77751 14.1086 5.99542 14.3281 6.21776 14.5483C6.25397 14.5844 6.29017 14.6204 6.32747 14.6575C6.41614 14.7457 6.5049 14.8338 6.59374 14.9219C6.76283 14.7801 6.92446 14.6348 7.07958 14.4775C7.13026 14.4263 7.13026 14.4263 7.18197 14.3741C7.20699 14.3486 7.23202 14.3231 7.2578 14.2969C7.05865 14.0561 6.84192 13.8361 6.62059 13.6157C6.58472 13.5797 6.54884 13.5437 6.51188 13.5065C6.47781 13.4725 6.44375 13.4385 6.40865 13.4035C6.37762 13.3725 6.34658 13.3415 6.31461 13.3096C6.22697 13.2212 6.22697 13.2212 6.14131 13.2996ZM4.77938 14.6604C4.75051 14.6891 4.72165 14.7177 4.69191 14.7472C4.64409 14.795 4.64409 14.795 4.5953 14.8437C4.5619 14.8769 4.52849 14.9101 4.49407 14.9443C4.40214 15.0358 4.31031 15.1273 4.21853 15.2189C4.16121 15.2762 4.10386 15.3333 4.04651 15.3905C3.86714 15.5694 3.68784 15.7483 3.50866 15.9273C3.30172 16.1341 3.09453 16.3406 2.88711 16.5469C2.72691 16.7062 2.56693 16.8658 2.40711 17.0256C2.31163 17.121 2.21605 17.2164 2.12023 17.3115C2.01328 17.4177 1.9068 17.5243 1.80035 17.631C1.76855 17.6625 1.73675 17.6939 1.70399 17.7263C1.67501 17.7555 1.64604 17.7847 1.61618 17.8148C1.59096 17.8399 1.56573 17.8651 1.53974 17.891C1.391 18.074 1.38133 18.2601 1.38622 18.4875C1.41086 18.7019 1.51129 18.8218 1.65966 18.977C1.84368 19.0986 2.00911 19.1582 2.23153 19.1285C2.52095 19.0521 2.6857 18.9066 2.89114 18.6946C2.92472 18.661 2.95831 18.6275 2.99291 18.5929C3.08411 18.5016 3.17466 18.4097 3.26498 18.3174C3.35978 18.2209 3.45537 18.1252 3.55087 18.0293C3.73126 17.8481 3.91094 17.6662 4.09037 17.484C4.29483 17.2765 4.50007 17.0697 4.70538 16.8631C5.12737 16.4382 5.54838 16.0124 5.96874 15.5859C5.93175 15.5425 5.89471 15.499 5.85766 15.4556C5.83704 15.4315 5.81642 15.4073 5.79518 15.3823C5.71432 15.2895 5.62894 15.202 5.54195 15.1149C5.50763 15.0805 5.47332 15.0462 5.43796 15.0108C5.38528 14.9583 5.38528 14.9583 5.33153 14.9048C5.29565 14.8688 5.25978 14.8327 5.22281 14.7956C5.18875 14.7616 5.15468 14.7276 5.11959 14.6925C5.08855 14.6615 5.05752 14.6306 5.02555 14.5986C4.90389 14.4855 4.88646 14.5538 4.77938 14.6604Z" fill="#908F8F"/>
<path d="M12.3823 3.70608C12.435 3.70647 12.4876 3.70683 12.5402 3.70714C12.6674 3.70806 12.7947 3.70934 12.9219 3.71096C12.852 3.89144 12.7665 4.05705 12.6729 4.2261C12.6578 4.25437 12.6427 4.28264 12.6271 4.31177C12.6046 4.35237 12.6046 4.35237 12.5816 4.39379C12.5682 4.41832 12.5548 4.44285 12.541 4.46813C12.4471 4.58962 12.346 4.60811 12.1974 4.62725C12.1427 4.63194 12.0879 4.63657 12.0332 4.64113C11.312 4.71534 10.6569 4.98932 10.1094 5.46877C10.0826 5.48992 10.0559 5.51107 10.0284 5.53286C9.38221 6.05587 9.01808 6.91569 8.91081 7.72265C8.82186 8.65062 9.07093 9.57075 9.65773 10.3028C10.2815 11.0346 11.1355 11.5103 12.1016 11.6016C13.0255 11.6706 13.8759 11.3823 14.6016 10.8203C14.6332 10.7959 14.6648 10.7715 14.6974 10.7463C15.352 10.2028 15.7697 9.36887 15.8633 8.52759C15.8807 8.31477 15.8858 8.1046 15.8906 7.89065C16.1871 7.89065 16.4836 7.89065 16.7891 7.89065C16.9349 8.76568 16.6095 9.80298 16.1175 10.5283C15.9953 10.6957 15.8682 10.8573 15.7344 11.0156C15.708 11.0478 15.6815 11.08 15.6543 11.1131C15.0043 11.8748 14.0546 12.3344 13.0781 12.5C13.0488 12.5052 13.0195 12.5103 12.9893 12.5156C11.8579 12.676 10.6445 12.3619 9.73219 11.6779C8.75217 10.912 8.13736 9.85516 7.97926 8.61925C7.85259 7.46167 8.16373 6.30061 8.88594 5.38378C8.91585 5.34737 8.94576 5.31097 8.97657 5.27346C9.00487 5.23826 9.03317 5.20306 9.06233 5.1668C9.89135 4.19305 11.12 3.68969 12.3823 3.70608Z" fill="white"/>
<path d="M16.3984 2.14845C16.5606 2.23968 16.62 2.32439 16.6719 2.50001C16.6838 2.63988 16.6837 2.77932 16.6836 2.91963C16.6838 2.96032 16.684 3.00101 16.6841 3.04294C16.6844 3.1289 16.6844 3.21485 16.6842 3.30081C16.6841 3.43189 16.685 3.56294 16.686 3.69401C16.6861 3.77768 16.6861 3.86135 16.6861 3.94502C16.6864 3.98401 16.6868 4.023 16.6872 4.06317C16.6855 4.31713 16.6681 4.53311 16.4813 4.72306C16.3293 4.80116 16.1738 4.79062 16.0078 4.76564C15.8932 4.69546 15.8331 4.65063 15.7734 4.53126C15.7691 4.4637 15.7672 4.39597 15.7665 4.32827C15.766 4.2859 15.7655 4.24352 15.765 4.19986C15.7647 4.15388 15.7644 4.1079 15.7641 4.06053C15.7638 4.01342 15.7635 3.9663 15.7632 3.91776C15.7626 3.8179 15.7622 3.71804 15.7619 3.61819C15.7612 3.4654 15.7595 3.31265 15.7578 3.15988C15.7574 3.06296 15.7571 2.96604 15.7568 2.86912C15.7558 2.80051 15.7558 2.80051 15.7547 2.73051C15.7556 2.41302 15.7556 2.41302 15.8477 2.25722C16.0148 2.11516 16.1867 2.12445 16.3984 2.14845Z" fill="#908F8F"/>
<path d="M16.3984 5.27347C16.5228 5.34344 16.5753 5.39866 16.6474 5.52006C16.6802 5.66068 16.6678 5.75857 16.6328 5.89847C16.5616 6.00416 16.5127 6.07571 16.3984 6.13285C16.2062 6.1536 16.0557 6.16219 15.8882 6.05961C15.7549 5.9134 15.7606 5.79661 15.762 5.6049C15.7779 5.46988 15.8306 5.4029 15.9297 5.31254C16.0744 5.24018 16.2405 5.25556 16.3984 5.27347Z" fill="#908F8F"/>
</g>
<defs>
<clipPath id="clip0_24_1113">
<rect width="20" height="20" fill="white" transform="translate(0.5)"/>
</clipPath>
</defs>
</svg>
