<svg width="33" height="34" viewBox="0 0 33 34" fill="none" xmlns="http://www.w3.org/2000/svg">
<g clip-path="url(#clip0_24_84)">
<path d="M19.029 2.97565C19.5216 3.38623 19.8556 3.87989 20.1738 4.43164C20.2079 4.49008 20.242 4.54852 20.2772 4.60873C20.5031 4.99587 20.7269 5.38425 20.9494 5.77338C21.1732 6.16465 21.3986 6.55499 21.624 6.94531C21.7046 7.08496 21.7851 7.2246 21.8657 7.36426C21.9056 7.43338 21.9454 7.50251 21.9865 7.57373C25.2495 13.2295 25.2495 13.2295 25.3703 13.439C25.4509 13.5785 25.5314 13.7181 25.6119 13.8576C25.8142 14.2083 26.0165 14.559 26.2185 14.9098C26.6067 15.5835 26.9959 16.2564 27.3885 16.9275C27.738 17.525 28.0824 18.1253 28.4251 18.7267C28.7225 19.2486 29.0226 19.7688 29.3261 20.2871C29.652 20.8437 29.9736 21.4025 30.2929 21.9629C30.6137 22.5258 30.9367 23.0874 31.2638 23.6467C31.2999 23.7086 31.3359 23.7705 31.3731 23.8342C31.5501 24.1375 31.7275 24.4405 31.9062 24.7428C31.9728 24.8556 32.0391 24.9686 32.1053 25.0817C32.1888 25.2242 32.2727 25.3665 32.3572 25.5085C32.9626 26.5457 33.1573 27.5959 32.9582 28.7871C32.8993 28.992 32.8291 29.1804 32.7422 29.375C32.6963 29.4787 32.6963 29.4787 32.6495 29.5845C32.1682 30.5657 31.4194 31.2418 30.4012 31.6422C29.7929 31.8293 29.2177 31.8428 28.5868 31.8415C28.4785 31.8417 28.3703 31.842 28.262 31.8423C27.9653 31.8431 27.6687 31.8431 27.372 31.843C27.0517 31.8429 26.7314 31.8436 26.4111 31.8443C25.7839 31.8453 25.1567 31.8457 24.5295 31.8458C24.0194 31.8458 23.5094 31.8461 22.9994 31.8465C21.5525 31.8476 20.1057 31.8482 18.6588 31.8481C18.5808 31.8481 18.5028 31.8481 18.4225 31.8481C18.3054 31.8481 18.3054 31.8481 18.186 31.8481C16.9213 31.848 15.6566 31.8493 14.3919 31.8511C13.0925 31.8529 11.7931 31.8538 10.4936 31.8537C9.76445 31.8537 9.03527 31.854 8.30609 31.8554C7.68517 31.8566 7.06425 31.8569 6.44332 31.856C6.12678 31.8556 5.81025 31.8556 5.4937 31.8567C5.20337 31.8577 4.91307 31.8575 4.62274 31.8564C4.51825 31.8562 4.41377 31.8564 4.30928 31.8571C3.05619 31.8652 1.99849 31.5635 1.08258 30.6631C0.202706 29.7521 -0.0341261 28.6952 -0.0179097 27.4762C0.0157118 26.4836 0.565254 25.6243 1.05941 24.7908C1.13935 24.6548 1.21924 24.5189 1.2991 24.3829C1.36042 24.2787 1.36042 24.2787 1.42297 24.1723C1.62579 23.8262 1.82603 23.4787 2.02621 23.1311C2.06629 23.0616 2.10638 22.992 2.14767 22.9203C2.22904 22.7791 2.3104 22.6379 2.39175 22.4967C2.59335 22.1468 2.79521 21.797 2.99704 21.4473C3.0776 21.3076 3.15817 21.168 3.23874 21.0283C5.65573 16.8389 8.07272 12.6494 10.4897 8.45996C10.5296 8.39082 10.5695 8.32169 10.6106 8.25046C10.6911 8.11091 10.7716 7.97137 10.8521 7.83183C11.0952 7.41062 11.338 6.9893 11.5807 6.56791C11.7011 6.35909 11.8218 6.15041 11.9424 5.94176C12.1042 5.66199 12.2648 5.38162 12.4248 5.10085C12.5035 4.96371 12.5822 4.82658 12.661 4.68945C12.696 4.62754 12.7309 4.56564 12.767 4.50185C13.4009 3.40262 14.2155 2.61627 15.4445 2.24426C16.6828 1.97704 18.0184 2.19151 19.029 2.97565ZM14.3086 4.23828C13.992 4.62308 13.7467 5.04162 13.5036 5.47551C13.3907 5.67699 13.2766 5.87779 13.1628 6.07872C13.1398 6.11939 13.1168 6.16007 13.0931 6.20197C12.8772 6.58333 12.6569 6.962 12.4354 7.34009C12.0016 8.08151 11.5721 8.82536 11.1433 9.5697C10.9417 9.9196 10.7399 10.2694 10.5381 10.6191C10.4575 10.7588 10.3769 10.8984 10.2964 11.0381C3.04538 23.6064 3.04538 23.6064 2.92435 23.8162C2.84429 23.955 2.7643 24.0938 2.68439 24.2327C2.49788 24.5567 2.31074 24.8802 2.12084 25.2022C2.05412 25.3154 1.98764 25.4288 1.92122 25.5422C1.83819 25.6838 1.75472 25.8251 1.67071 25.9662C1.32567 26.5565 1.04515 27.1244 1.05941 27.8201C1.06003 27.8696 1.06064 27.9191 1.06127 27.9701C1.08616 28.6607 1.34723 29.2485 1.80465 29.7617C1.85077 29.8189 1.85077 29.8189 1.89781 29.8773C2.25977 30.2893 2.87308 30.6255 3.41598 30.7285C3.56202 30.7346 3.70823 30.737 3.8544 30.7372C3.89867 30.7373 3.94293 30.7375 3.98854 30.7376C4.13758 30.7381 4.28661 30.738 4.43565 30.738C4.54331 30.7382 4.65096 30.7385 4.75862 30.7387C5.05502 30.7394 5.35143 30.7396 5.64783 30.7398C5.9673 30.74 6.28676 30.7406 6.60623 30.7412C7.37804 30.7425 8.14985 30.7431 8.92166 30.7437C9.28508 30.744 9.6485 30.7443 10.0119 30.7447C11.22 30.7458 12.428 30.7467 13.6361 30.7472C13.9496 30.7473 14.2631 30.7474 14.5766 30.7475C14.6546 30.7476 14.7325 30.7476 14.8128 30.7476C16.0752 30.7482 17.3375 30.7498 18.5999 30.7519C19.8958 30.754 21.1918 30.7552 22.4877 30.7554C23.2153 30.7555 23.943 30.7561 24.6707 30.7577C25.2904 30.7591 25.9101 30.7597 26.5298 30.759C26.8459 30.7587 27.162 30.7589 27.4781 30.7601C27.7678 30.7612 28.0574 30.7612 28.3471 30.7602C28.4516 30.76 28.5561 30.7603 28.6607 30.7611C29.6569 30.7679 30.3974 30.5309 31.1429 29.8503C31.6592 29.3145 31.9268 28.5908 31.9325 27.8563C31.9346 27.8098 31.9367 27.7632 31.9389 27.7152C31.9462 26.9472 31.5209 26.2643 31.1389 25.6246C31.0745 25.5149 31.01 25.4051 30.9457 25.2954C30.8794 25.1826 30.813 25.07 30.7464 24.9573C30.5388 24.6053 30.3356 24.2507 30.1318 23.8965C30.0513 23.7568 29.9707 23.6172 29.8901 23.4775C20.7055 7.55762 20.7055 7.55762 20.5846 7.34789C20.5044 7.20902 20.4242 7.07021 20.3438 6.93146C20.1571 6.60874 19.9713 6.28559 19.7893 5.96018C19.7255 5.84622 19.6614 5.73245 19.5971 5.61874C19.5171 5.47694 19.4378 5.3348 19.3592 5.19224C18.8698 4.3285 18.1987 3.5794 17.2165 3.3016C16.1327 3.06233 15.041 3.40686 14.3086 4.23828Z" fill="#E83B2D"/>
<path d="M14.9065 12.9022C15.099 13.0158 15.2843 13.1357 15.4688 13.2617C15.9256 13.5404 16.2856 13.6382 16.8223 13.584C17.2708 13.4671 17.6478 13.225 18.0308 12.9709C18.3777 12.7415 18.7366 12.7777 19.1426 12.8105C19.5079 12.9029 19.7456 13.1137 19.956 13.4206C20.2622 13.9835 20.4961 14.6797 20.4961 15.3242C20.5705 15.3349 20.645 15.3455 20.7217 15.3564C21.6982 15.5728 22.704 16.2383 23.332 17C23.6825 17.5766 23.7817 18.0963 23.6445 18.7531C23.4761 19.3095 23.1099 19.7099 22.6875 20.0937C22.7015 20.1289 22.7154 20.164 22.7298 20.2002C22.9442 20.7809 22.9354 21.2198 22.7036 21.797C22.4188 22.3835 21.8736 22.7184 21.2695 22.9297C21.2057 22.9297 21.1419 22.9297 21.0762 22.9297C21.0722 23.0068 21.0682 23.0839 21.0641 23.1633C20.9345 24.2803 20.2681 25.359 19.3956 26.0519C18.2208 26.9155 16.9793 27.1168 15.5498 26.9646C14.4544 26.7542 13.4256 26.0712 12.7617 25.1855C12.3343 24.5496 11.8753 23.7195 11.9238 22.9297C11.872 22.9257 11.8201 22.9217 11.7667 22.9176C11.2157 22.7919 10.7051 22.4417 10.3931 21.9709C10.141 21.5366 10.0658 21.1061 10.1191 20.6094C10.1701 20.4271 10.2353 20.2674 10.3125 20.0937C10.2798 20.064 10.247 20.0343 10.2133 20.0036C9.65531 19.4749 9.31346 18.9447 9.28125 18.1602C9.32422 17.4444 9.68605 16.9302 10.1927 16.4469C10.8213 15.9153 11.6766 15.4328 12.5039 15.3242C12.5099 15.2126 12.5099 15.2126 12.516 15.0986C12.5914 14.4288 12.8034 13.556 13.3267 13.0976C13.7914 12.75 14.3673 12.6682 14.9065 12.9022ZM14.0181 13.9752C13.8806 14.1529 13.8229 14.3462 13.7607 14.5588C13.747 14.6057 13.7332 14.6526 13.719 14.701C13.5323 15.386 13.46 16.1001 13.4062 16.8066C13.4012 16.8671 13.3962 16.9276 13.391 16.9899C13.3688 17.3237 13.3688 17.3237 13.5319 17.6015C13.5901 17.633 13.6484 17.6645 13.7084 17.6969C13.806 17.7499 13.806 17.7499 13.9055 17.8039C15.321 18.4683 16.7427 18.6224 18.2402 18.1602C18.4886 18.0702 18.7168 17.9627 18.9492 17.8379C19.0106 17.8102 19.072 17.7826 19.1353 17.7541C19.2246 17.7098 19.2246 17.7098 19.3158 17.6647C19.3959 17.6264 19.3959 17.6264 19.4777 17.5874C19.6439 17.3924 19.6196 17.2393 19.6084 16.9896C19.5833 16.6764 19.5529 16.365 19.5132 16.0533C19.5046 15.9858 19.496 15.9183 19.4871 15.8487C19.3624 14.8107 19.3624 14.8107 18.8848 13.9062C18.6743 13.856 18.5858 13.8937 18.3963 13.9959C18.3395 14.0354 18.2827 14.075 18.2241 14.1157C17.4971 14.6004 16.8521 14.7565 15.9844 14.6797C15.4692 14.571 14.8124 14.2811 14.4375 13.9062C14.2142 13.8817 14.2142 13.8817 14.0181 13.9752ZM10.6934 17.497C10.505 17.7228 10.3954 17.9286 10.377 18.2246C10.4466 18.6717 10.7346 19.0005 11.0784 19.2757C13.346 20.7647 16.5115 20.8747 19.1023 20.3677C20.2321 20.1319 21.655 19.7627 22.3957 18.8117C22.5455 18.5647 22.6575 18.3309 22.5991 18.0416C22.3743 17.314 21.7035 17.0101 21.0762 16.6777C21.0286 16.6516 20.981 16.6254 20.9319 16.5984C20.8095 16.5359 20.8095 16.5359 20.625 16.5488C20.6272 16.6281 20.6295 16.7074 20.6318 16.789C20.6336 16.8943 20.6354 16.9995 20.6371 17.1047C20.6387 17.1568 20.6403 17.2089 20.642 17.2626C20.6473 17.6949 20.5605 17.9579 20.2584 18.281C19.0134 19.2796 17.263 19.5905 15.7125 19.4349C14.6298 19.2915 13.2213 18.9145 12.5105 18.0159C12.3893 17.8221 12.3671 17.6589 12.3687 17.4363C12.3689 17.3846 12.3691 17.3329 12.3693 17.2796C12.3699 17.2259 12.3704 17.1722 12.371 17.1168C12.3713 17.0624 12.3716 17.0079 12.3719 16.9518C12.3726 16.8175 12.3738 16.6831 12.375 16.5488C11.8009 16.5488 11.085 17.1166 10.6934 17.497ZM11.2793 20.6738C11.2144 20.9444 11.1911 21.0784 11.3196 21.3304C11.6373 21.7067 11.9585 21.839 12.4225 21.9615C12.7393 22.0551 12.7393 22.0551 12.8503 22.2368C12.8957 22.4365 12.9379 22.6357 12.9752 22.837C13.1726 23.7805 13.6018 24.6471 14.373 25.25C15.311 25.8255 16.2813 26.06 17.3757 25.8502C17.5646 25.7907 17.7388 25.7209 17.918 25.6367C17.9779 25.6101 18.0378 25.5835 18.0995 25.5562C19.0355 25.0979 19.5568 24.3014 19.91 23.3506C20.0119 23.0215 20.0733 22.6903 20.1303 22.3509C20.1738 22.1562 20.1738 22.1562 20.3027 22.0273C20.4253 21.994 20.5491 21.965 20.6733 21.9387C21.1326 21.8289 21.4632 21.664 21.7207 21.2539C21.7963 20.9567 21.7963 20.9567 21.7207 20.6738C21.6358 20.7021 21.5508 20.7304 21.4659 20.7587C21.4127 20.7764 21.3595 20.7941 21.3047 20.8123C21.2029 20.8464 21.1013 20.8806 20.9998 20.9152C17.9941 21.9391 14.5635 21.9233 11.6033 20.7471C11.4228 20.6663 11.4228 20.6663 11.2793 20.6738Z" fill="#E83B2D"/>
</g>
<defs>
<clipPath id="clip0_24_84">
<rect width="33" height="33" fill="white" transform="translate(0 0.5)"/>
</clipPath>
</defs>
</svg>
