<svg width="34" height="35" viewBox="0 0 34 35" fill="none" xmlns="http://www.w3.org/2000/svg">
<path d="M7.36491 2.58746C7.47346 2.58678 7.582 2.58598 7.69054 2.58508C7.98207 2.58304 8.27358 2.58267 8.56511 2.58276C8.80938 2.5827 9.05363 2.58188 9.2979 2.5811C9.87403 2.57929 10.4502 2.57892 11.0263 2.57942C11.6195 2.57991 12.2126 2.57768 12.8058 2.57417C13.3169 2.57126 13.828 2.57016 14.3391 2.57046C14.6436 2.57061 14.9481 2.57006 15.2526 2.56773C15.5385 2.5656 15.8243 2.56573 16.1102 2.56756C16.2149 2.56785 16.3195 2.56736 16.4241 2.56601C17.3109 2.55531 17.3109 2.55531 17.6132 2.8107C17.6983 2.90223 17.7815 2.99549 17.8633 3.08984C17.9542 3.1794 18.0452 3.26891 18.1369 3.35759C18.3192 3.5344 18.4979 3.7147 18.6774 3.89429C18.7584 3.97506 18.8394 4.05583 18.9204 4.13658C19.139 4.35455 19.3573 4.57274 19.5756 4.79098C19.7121 4.92741 19.8486 5.0638 19.9851 5.20016C20.4617 5.67608 20.938 6.15217 21.4142 6.62842C21.858 7.07222 22.3021 7.51564 22.7464 7.9589C23.1283 8.33997 23.51 8.72129 23.8915 9.10281C24.1192 9.33048 24.3469 9.55805 24.5749 9.78537C24.789 9.99879 25.0028 10.2125 25.2163 10.4265C25.2947 10.505 25.3732 10.5834 25.4519 10.6617C25.5591 10.7684 25.666 10.8755 25.7727 10.9828C25.8326 11.0427 25.8925 11.1025 25.9543 11.1642C26.1743 11.4096 26.2474 11.5793 26.2456 11.9065C26.2456 11.969 26.2456 12.0314 26.2456 12.0958C26.2445 12.1961 26.2445 12.1961 26.2435 12.2985C26.2432 12.4019 26.2432 12.4019 26.2429 12.5073C26.2422 12.7272 26.2405 12.9471 26.2388 13.167C26.2382 13.3161 26.2376 13.4653 26.237 13.6145C26.2357 13.98 26.2331 14.3454 26.2305 14.7109C25.7484 14.7109 25.2663 14.7109 24.7696 14.7109C24.7696 14.0097 24.7696 13.3084 24.7696 12.5859C24.4935 12.5882 24.2175 12.5906 23.933 12.5929C23.71 12.5942 23.4871 12.5953 23.2641 12.5962C23.0303 12.5973 22.7965 12.5987 22.5627 12.601C22.2931 12.6036 22.0236 12.6045 21.7541 12.6054C21.6721 12.6064 21.59 12.6074 21.5056 12.6085C20.2292 12.6087 19.0571 12.2748 18.0626 11.457C18.0157 11.421 17.9689 11.385 17.9207 11.3478C16.9974 10.6023 16.4173 9.43828 16.2696 8.26953C16.2293 7.59988 16.243 6.9277 16.2514 6.25722C16.2541 6.01188 16.2553 5.76654 16.2566 5.52119C16.2594 5.04275 16.264 4.56435 16.2696 4.08593C15.0181 4.08996 13.7666 4.09511 12.5151 4.10159C11.934 4.10457 11.3528 4.10719 10.7717 4.10894C10.2649 4.11047 9.75813 4.11269 9.25137 4.11573C8.98326 4.11731 8.71516 4.11856 8.44704 4.11898C8.19418 4.11938 7.94135 4.12072 7.6885 4.12274C7.59618 4.12332 7.50385 4.12357 7.41153 4.12345C6.35097 4.12252 5.35723 4.38413 4.58209 5.14843C4.03374 5.81707 3.64484 6.55671 3.64368 7.43868C3.64342 7.51152 3.64317 7.58437 3.6429 7.65942C3.64296 7.73909 3.64302 7.81875 3.64308 7.90083C3.64288 7.98575 3.64268 8.07067 3.64248 8.15816C3.64194 8.39374 3.64182 8.62932 3.64178 8.8649C3.64165 9.11904 3.64115 9.37317 3.6407 9.62731C3.6398 10.183 3.6394 10.7387 3.63911 11.2944C3.63893 11.6415 3.63864 11.9886 3.63835 12.3357C3.63754 13.297 3.63685 14.2584 3.63663 15.2198C3.63661 15.2813 3.6366 15.3428 3.63658 15.4062C3.63657 15.4678 3.63655 15.5295 3.63654 15.593C3.63651 15.718 3.63648 15.8429 3.63645 15.9679C3.63644 16.0299 3.63642 16.0918 3.63641 16.1557C3.63614 17.1596 3.63498 18.1635 3.63344 19.1674C3.63186 20.1985 3.63104 21.2297 3.63096 22.2608C3.6309 22.8396 3.63052 23.4183 3.62931 23.9971C3.62829 24.49 3.62795 24.9829 3.6285 25.4758C3.62876 25.7271 3.6287 25.9784 3.62776 26.2298C3.62676 26.5027 3.62731 26.7756 3.628 27.0486C3.62746 27.1273 3.62693 27.2061 3.62638 27.2873C3.63219 28.2679 3.94926 29.2088 4.6485 29.918C5.37014 30.5098 6.1229 30.8535 7.06547 30.8582C7.13871 30.8587 7.13871 30.8587 7.21342 30.8592C7.37666 30.8602 7.5399 30.8607 7.70314 30.8613C7.82029 30.8619 7.93745 30.8626 8.05461 30.8633C8.37248 30.8651 8.69035 30.8665 9.00822 30.8678C9.34048 30.8692 9.67275 30.8711 10.005 30.8728C10.6341 30.8762 11.2632 30.8791 11.8923 30.882C12.6086 30.8853 13.3248 30.8889 14.0411 30.8926C15.5144 30.9002 16.9877 30.9073 18.461 30.9141C18.461 31.3962 18.461 31.8783 18.461 32.375C16.8851 32.3812 15.3092 32.3859 13.7332 32.3888C13.0014 32.3901 12.2696 32.392 11.5378 32.395C10.8996 32.3977 10.2614 32.3994 9.62321 32.4C9.28561 32.4003 8.94802 32.4011 8.61043 32.4031C8.29195 32.4049 7.97349 32.4054 7.65501 32.405C7.53881 32.4051 7.42261 32.4056 7.30642 32.4067C5.82399 32.4191 4.562 31.9852 3.48172 30.9441C2.51532 29.9619 2.09261 28.7085 2.09932 27.3519C2.09904 27.2631 2.09867 27.1744 2.09823 27.0857C2.09728 26.8441 2.09755 26.6025 2.09804 26.3609C2.09836 26.0995 2.09753 25.8381 2.09685 25.5767C2.09571 25.0653 2.09565 24.554 2.096 24.0427C2.09627 23.6269 2.09617 23.211 2.09582 22.7951C2.09577 22.7358 2.09572 22.6765 2.09566 22.6154C2.09556 22.4949 2.09546 22.3743 2.09536 22.2538C2.09445 21.1249 2.09481 19.996 2.09557 18.8671C2.09623 17.8359 2.09537 16.8048 2.09378 15.7736C2.09216 14.713 2.09152 13.6525 2.09197 12.5919C2.0922 11.9972 2.09205 11.4025 2.09089 10.8078C2.08991 10.3014 2.08987 9.79513 2.09102 9.28882C2.09159 9.03087 2.09174 8.77293 2.09071 8.51498C2.08979 8.27816 2.09012 8.04137 2.09139 7.80455C2.09176 7.67976 2.09084 7.55497 2.08984 7.43018C2.10091 6.1317 2.62141 4.95287 3.51959 4.01953C4.60889 2.97127 5.88681 2.58371 7.36491 2.58746ZM17.7305 5.14843C17.7256 5.52983 17.722 5.91121 17.7196 6.29263C17.7186 6.42201 17.7172 6.55138 17.7155 6.68075C17.6994 7.91261 17.7828 9.07027 18.6753 10.0218C19.8203 11.0634 21.0661 11.1485 22.5367 11.1333C22.6508 11.1326 22.765 11.132 22.8791 11.1315C23.1551 11.13 23.4311 11.1278 23.7071 11.125C23.4072 10.7657 23.0898 10.4318 22.7585 10.1014C22.7048 10.0476 22.6511 9.99377 22.5958 9.93831C22.4195 9.76173 22.2429 9.58539 22.0664 9.40907C21.9435 9.28617 21.8207 9.16326 21.6979 9.04034C21.4411 8.78352 21.1843 8.52683 20.9274 8.27022C20.6301 7.97329 20.333 7.67611 20.0361 7.37881C19.7501 7.09248 19.4639 6.80635 19.1777 6.52029C19.0559 6.39857 18.9342 6.27679 18.8125 6.15497C18.6432 5.98549 18.4737 5.81623 18.3041 5.64702C18.2534 5.59621 18.2028 5.5454 18.1506 5.49305C18.1047 5.44735 18.0588 5.40164 18.0115 5.35455C17.9714 5.31451 17.9314 5.27447 17.8901 5.23321C17.8097 5.14098 17.8097 5.14098 17.7305 5.14843Z" fill="#F6A121"/>
<path d="M25.4335 17.8984C26.5979 18.8536 27.3607 20.0575 27.6249 21.5508C27.6519 21.8461 27.6567 22.1383 27.654 22.4348C27.6534 22.5132 27.6528 22.5915 27.6522 22.6722C27.6275 23.9228 27.1714 24.8687 26.5624 25.9336C26.5889 25.9597 26.6153 25.9858 26.6425 26.0127C27.2846 26.6475 27.9258 27.2832 28.566 27.9199C28.8756 28.2278 29.1855 28.5353 29.4961 28.8422C29.7956 29.1381 30.0944 29.4349 30.3926 29.7322C30.5067 29.8457 30.6211 29.9589 30.7358 30.0718C30.8959 30.2296 31.055 30.3883 31.2139 30.5473C31.2619 30.5942 31.31 30.641 31.3595 30.6893C31.4024 30.7327 31.4454 30.7761 31.4896 30.8208C31.5462 30.877 31.5462 30.877 31.604 30.9343C31.6757 31.0469 31.6757 31.0469 31.6593 31.1869C31.5641 31.426 31.3698 31.586 31.1901 31.7649C31.1515 31.8054 31.1128 31.8459 31.073 31.8877C31.0352 31.9257 30.9974 31.9636 30.9585 32.0027C30.9241 32.0376 30.8898 32.0724 30.8544 32.1083C30.746 32.1758 30.746 32.1758 30.6204 32.1593C30.4572 32.1011 30.3788 32.0323 30.2569 31.9098C30.214 31.8672 30.1712 31.8247 30.1271 31.7808C30.0808 31.7339 30.0346 31.6869 29.987 31.6385C29.9377 31.5893 29.8884 31.5401 29.8377 31.4893C29.6748 31.3263 29.5126 31.1626 29.3505 30.9989C29.2377 30.8858 29.125 30.7727 29.0122 30.6597C28.7152 30.362 28.4189 30.0637 28.1226 29.7653C27.8203 29.4609 27.5174 29.1571 27.2146 28.8532C26.6203 28.2569 26.0267 27.6599 25.4335 27.0625C25.3711 27.0987 25.3087 27.1349 25.2443 27.1721C25.1608 27.2202 25.0774 27.2683 24.9939 27.3164C24.9324 27.3521 24.9324 27.3521 24.8697 27.3885C23.9481 27.9183 23.019 28.1636 21.9555 28.154C21.838 28.1534 21.838 28.1534 21.7181 28.1527C21.1241 28.1417 20.6133 28.0717 20.0546 27.8594C19.985 27.8345 19.9154 27.8097 19.8437 27.7841C18.4642 27.2548 17.3198 26.1468 16.7094 24.8029C16.1338 23.3894 16.0453 21.7732 16.6253 20.3441C17.2543 18.878 18.3134 17.7534 19.7916 17.1329C21.6643 16.4071 23.8369 16.6718 25.4335 17.8984ZM18.6394 19.8118C17.9861 20.6815 17.6064 21.7855 17.7304 22.8789C17.9435 24.1286 18.493 25.1693 19.5234 25.9294C20.5351 26.5853 21.6134 26.7897 22.7991 26.6353C23.9066 26.3969 24.8054 25.7348 25.4652 24.8288C26.0906 23.8586 26.3326 22.7587 26.1204 21.6198C25.8455 20.4701 25.2032 19.5028 24.2061 18.8585C22.3168 17.7642 20.0555 18.1376 18.6394 19.8118Z" fill="#F6A121"/>
<path d="M7.03906 23.875C9.40578 23.875 11.7725 23.875 14.2109 23.875C14.2109 24.3571 14.2109 24.8392 14.2109 25.3359C11.8442 25.3359 9.4775 25.3359 7.03906 25.3359C7.03906 24.8538 7.03906 24.3717 7.03906 23.875Z" fill="#F6A121"/>
<path d="M7.03906 16.7695C9.40578 16.7695 11.7725 16.7695 14.2109 16.7695C14.2109 17.2516 14.2109 17.7337 14.2109 18.2305C11.8442 18.2305 9.4775 18.2305 7.03906 18.2305C7.03906 17.7484 7.03906 17.2663 7.03906 16.7695Z" fill="#F6A121"/>
<path d="M7.03906 9.66406C9.40578 9.66406 11.7725 9.66406 14.2109 9.66406C14.2109 10.1462 14.2109 10.6283 14.2109 11.125C11.8442 11.125 9.4775 11.125 7.03906 11.125C7.03906 10.6429 7.03906 10.1608 7.03906 9.66406Z" fill="#F6A121"/>
</svg>
