<svg width="17" height="18" viewBox="0 0 17 18" fill="none" xmlns="http://www.w3.org/2000/svg">
<g clip-path="url(#clip0_24_561)">
<path d="M0.741187 -0.00467155C0.766826 -0.0046317 0.792464 -0.00459184 0.818879 -0.00455079C0.84599 -0.00463902 0.873101 -0.00472725 0.901034 -0.00481815C0.993062 -0.00507563 1.08509 -0.00509277 1.17712 -0.00511261C1.24329 -0.00524608 1.30946 -0.00539373 1.37564 -0.00555444C1.5584 -0.00595386 1.74117 -0.00614079 1.92394 -0.00629244C2.1207 -0.00649012 2.31745 -0.00687652 2.51421 -0.00723372C2.96736 -0.00801217 3.42051 -0.00849594 3.87367 -0.00890494C4.03041 -0.00904643 4.18715 -0.00919833 4.3439 -0.00935688C5.17683 -0.0101973 6.00977 -0.0109311 6.8427 -0.0113441C7.03577 -0.0114413 7.22884 -0.0115401 7.42191 -0.0116404C7.4459 -0.0116528 7.46989 -0.0116651 7.4946 -0.0116778C8.27243 -0.0120823 9.05025 -0.0131119 9.82808 -0.0144992C10.6274 -0.0159221 11.4266 -0.0168086 12.2259 -0.0169828C12.3387 -0.0170075 12.4516 -0.0170378 12.5644 -0.0170713C12.5866 -0.0170776 12.6089 -0.017084 12.6317 -0.0170905C12.9673 -0.0172003 13.3029 -0.017776 13.6385 -0.0185981C14.0201 -0.0195278 14.4018 -0.0198966 14.7834 -0.0195232C14.9783 -0.0193502 15.1731 -0.01945 15.3679 -0.0202707C15.5462 -0.0210153 15.7244 -0.0209974 15.9027 -0.0203637C15.9673 -0.0202701 16.0319 -0.0204598 16.0965 -0.0209564C16.1841 -0.0215891 16.2717 -0.0212019 16.3593 -0.0205551C16.3845 -0.0209826 16.4098 -0.0214101 16.4358 -0.0218506C16.627 -0.0187354 16.7047 0.0349374 16.8339 0.166367C16.8682 0.232008 16.8682 0.232008 16.8812 0.294385C16.8864 0.317266 16.8916 0.340148 16.897 0.363722C16.9015 0.387119 16.906 0.410515 16.9107 0.43462C16.9184 0.469907 16.9184 0.469907 16.9263 0.505907C16.9403 0.57006 16.9536 0.634382 16.9667 0.698714C16.9731 0.721016 16.9795 0.743319 16.986 0.766297C17.0081 0.870449 17.0096 0.972971 17.0124 1.07926C17.014 1.12245 17.0156 1.16564 17.0173 1.21014C16.9956 1.36067 16.9534 1.40636 16.8339 1.49724C16.6911 1.54902 16.5656 1.54072 16.423 1.49308C16.2479 1.36776 16.2197 1.21722 16.1809 1.0148C16.1698 0.931616 16.1698 0.931616 16.1698 0.765257C11.1844 0.765257 6.19894 0.765257 1.06242 0.765257C1.05146 0.864074 1.04051 0.962892 1.02922 1.0647C1.01714 1.13288 1.00406 1.2009 0.989659 1.26862C0.978584 1.32122 0.978584 1.32122 0.967286 1.37487C0.959646 1.41045 0.952006 1.44602 0.944134 1.48268C0.936366 1.51941 0.928598 1.55615 0.920594 1.594C0.901591 1.68377 0.882458 1.77351 0.863202 1.86322C0.895668 1.86319 0.928133 1.86315 0.961583 1.86311C2.8844 1.86087 4.80721 1.85916 6.73003 1.85813C6.96074 1.858 7.19145 1.85787 7.42216 1.85774C7.44511 1.85773 7.46807 1.85772 7.49173 1.8577C8.23619 1.85728 8.98065 1.85653 9.72511 1.85561C10.5117 1.85464 11.2982 1.85404 12.0848 1.85383C12.5561 1.8537 13.0274 1.85326 13.4988 1.85245C13.8217 1.85193 14.1446 1.85177 14.4675 1.8519C14.654 1.85196 14.8405 1.85186 15.027 1.85133C15.1975 1.85084 15.3681 1.85081 15.5387 1.85116C15.6006 1.8512 15.6624 1.85107 15.7243 1.85076C15.8081 1.85036 15.8919 1.85057 15.9757 1.85094C16 1.85068 16.0242 1.85042 16.0491 1.85015C16.1948 1.85161 16.2865 1.87335 16.4023 1.96304C16.4896 2.08851 16.5251 2.19825 16.4981 2.35177C16.4366 2.51287 16.3205 2.64196 16.2129 2.77462C16.1563 2.8449 16.1017 2.91656 16.047 2.98833C16.0055 3.0428 15.9638 3.09709 15.922 3.15133C15.8385 3.25976 15.7551 3.36832 15.6718 3.4769C15.6441 3.51295 15.6165 3.54899 15.5888 3.58504C15.5751 3.60288 15.5614 3.62072 15.5473 3.6391C15.5058 3.69317 15.4643 3.74724 15.4228 3.8013C15.4022 3.82804 15.4022 3.82804 15.3813 3.85533C15.3535 3.89151 15.3257 3.92769 15.298 3.96387C15.2304 4.05187 15.1629 4.1399 15.0954 4.22799C14.9362 4.43572 14.7762 4.64276 14.6155 4.84936C14.4069 5.11778 14.2003 5.3878 13.9944 5.6583C13.8678 5.82432 13.7404 5.98974 13.6132 6.15528C13.5579 6.22736 13.5025 6.29945 13.4472 6.37154C13.4195 6.40759 13.3918 6.44363 13.3642 6.47968C13.3505 6.49752 13.3368 6.51536 13.3227 6.53374C11.206 9.29113 11.206 9.29114 11.1644 9.34528C11.1369 9.38107 11.1095 9.41688 11.082 9.45268C11.0099 9.54654 10.9379 9.64038 10.8658 9.7342C10.8508 9.75367 10.8359 9.77314 10.8204 9.7932C10.7788 9.84736 10.7372 9.90151 10.6956 9.95566C10.6723 9.98615 10.649 10.0166 10.6249 10.0481C10.5985 10.0758 10.5985 10.0758 10.5715 10.1042C10.5058 10.2136 10.5117 10.3169 10.513 10.4409C10.5128 10.4672 10.5127 10.4935 10.5126 10.5207C10.5123 10.609 10.5127 10.6973 10.5131 10.7856C10.513 10.8489 10.5129 10.9122 10.5127 10.9755C10.5124 11.1118 10.5124 11.2482 10.5127 11.3845C10.5131 11.6001 10.5127 11.8157 10.5121 12.0312C10.5109 12.5667 10.5107 13.1023 10.5108 13.6378C10.5109 14.0538 10.5106 14.4699 10.5095 14.886C10.5089 15.1003 10.509 15.3146 10.5095 15.5289C10.5097 15.6622 10.5093 15.7956 10.5088 15.9289C10.5087 15.9908 10.5088 16.0526 10.5092 16.1144C10.5096 16.1989 10.5092 16.2833 10.5087 16.3677C10.5092 16.4044 10.5092 16.4044 10.5097 16.4418C10.5073 16.6101 10.4645 16.7056 10.3593 16.8355C10.2951 16.8782 10.2951 16.8782 10.2274 16.9034C10.2017 16.9133 10.1761 16.9233 10.1496 16.9335C10.122 16.9435 10.0943 16.9534 10.0658 16.9636C10.0366 16.9747 10.0073 16.9858 9.97722 16.9973C9.88344 17.0327 9.78936 17.0672 9.69523 17.1017C9.6342 17.1246 9.57319 17.1475 9.51221 17.1705C9.32383 17.2413 9.135 17.3109 8.94609 17.3803C8.81167 17.4297 8.67725 17.4792 8.54285 17.5286C8.51028 17.5406 8.47771 17.5526 8.44416 17.5649C8.25584 17.6343 8.06818 17.7052 7.88112 17.7779C7.84034 17.7936 7.79955 17.8093 7.75753 17.8255C7.68543 17.8533 7.61349 17.8816 7.54176 17.9104C7.33957 17.9881 7.15662 18.0304 6.93937 18C6.81686 17.9361 6.78329 17.8944 6.73639 17.7647C6.69773 17.6183 6.69879 17.4764 6.70083 17.3258C6.70097 17.2955 6.7011 17.2651 6.70124 17.2339C6.70177 17.1325 6.70276 17.0312 6.70374 16.9299C6.70419 16.8571 6.70461 16.7842 6.70499 16.7114C6.70585 16.5547 6.70687 16.398 6.70799 16.2413C6.70967 15.993 6.71042 15.7448 6.71094 15.4965C6.71103 15.4546 6.71112 15.4126 6.71121 15.3694C6.71139 15.2836 6.71157 15.1978 6.71174 15.112C6.71219 14.8916 6.71269 14.6713 6.71329 14.4509C6.71335 14.4288 6.71341 14.4067 6.71347 14.384C6.71443 14.0489 6.7166 13.7138 6.71935 13.3787C6.72255 12.9887 6.72408 12.5988 6.72372 12.2088C6.72359 12.0026 6.72429 11.7966 6.72702 11.5905C6.72957 11.3963 6.72992 11.2021 6.72864 11.0079C6.72856 10.9371 6.72925 10.8662 6.73083 10.7954C6.74178 10.2759 6.61973 9.99119 6.26568 9.61133C6.18209 9.51955 6.10893 9.42174 6.03459 9.32233C6.00839 9.28815 5.9822 9.25396 5.95521 9.21874C5.92936 9.18499 5.90351 9.15124 5.87687 9.11646C5.82155 9.04436 5.76621 8.97227 5.71086 8.90019C5.68319 8.86415 5.65552 8.8281 5.62785 8.79206C5.60731 8.7653 5.60731 8.7653 5.58635 8.73799C5.1298 8.14326 5.1298 8.14326 5.08833 8.08924C5.06056 8.05305 5.03278 8.01687 5.005 7.9807C4.93743 7.89269 4.8699 7.80466 4.80244 7.71658C4.64325 7.50884 4.4832 7.30181 4.32255 7.0952C4.11389 6.82678 3.90738 6.55676 3.7014 6.28627C3.57482 6.12025 3.44745 5.95482 3.32023 5.78929C3.26488 5.71721 3.20955 5.64511 3.15422 5.57302C3.12655 5.53698 3.09888 5.50093 3.07121 5.46489C2.90519 5.24862 2.73918 5.03236 2.57316 4.81609C2.55945 4.79823 2.54573 4.78036 2.5316 4.76196C2.50411 4.72614 2.47663 4.69031 2.44916 4.65447C2.37736 4.56084 2.30534 4.46739 2.23296 4.3742C2.21052 4.34522 2.21052 4.34522 2.18763 4.31565C2.14608 4.26199 2.10444 4.2084 2.06279 4.15481C1.93835 3.98641 1.8717 3.87782 1.87836 3.6673C1.90282 3.53936 1.9642 3.48164 2.05851 3.39372C2.20245 3.34565 2.33185 3.33199 2.47122 3.39957C2.57048 3.47017 2.63751 3.54653 2.71428 3.64118C2.72859 3.65877 2.74291 3.67636 2.75766 3.69448C2.87971 3.84559 2.99632 4.0007 3.11181 4.15689C3.19061 4.26309 3.2707 4.36819 3.35136 4.47297C3.36519 4.49094 3.37901 4.50891 3.39325 4.52742C3.4213 4.56386 3.44935 4.60029 3.47741 4.63672C3.54687 4.72693 3.61616 4.81726 3.68547 4.90759C3.71314 4.94363 3.74081 4.97968 3.76848 5.01572C5.17961 6.85398 5.17961 6.85398 6.59074 8.69224C6.60444 8.71008 6.61813 8.72792 6.63224 8.7463C6.65992 8.78237 6.68759 8.81844 6.71525 8.85452C6.79716 8.96133 6.87942 9.06785 6.96204 9.17411C7.00287 9.22706 7.04302 9.28054 7.08311 9.33406C7.13944 9.40863 7.19691 9.47744 7.25921 9.54756C7.54726 9.88352 7.5506 10.1928 7.54457 10.6215C7.5448 10.6917 7.54518 10.7619 7.5457 10.8321C7.54667 11.0214 7.54563 11.2107 7.5442 11.4C7.54305 11.5983 7.54379 11.7966 7.54432 11.9949C7.54505 12.3699 7.5441 12.7448 7.54253 13.1197C7.54082 13.5468 7.54101 13.9739 7.54135 14.401C7.542 15.2791 7.5403 16.1571 7.53703 17.0351C7.5635 17.0251 7.58998 17.0151 7.61726 17.0048C7.86639 16.9107 8.11557 16.8167 8.36479 16.7228C8.49292 16.6745 8.62104 16.6262 8.74912 16.5778C8.87266 16.5311 8.99624 16.4845 9.11984 16.438C9.16706 16.4202 9.21427 16.4024 9.26147 16.3845C9.32741 16.3595 9.39341 16.3347 9.45942 16.3099C9.49702 16.2957 9.53463 16.2815 9.57337 16.2669C9.66203 16.2366 9.66203 16.2366 9.72843 16.2366C9.72825 16.2043 9.72807 16.172 9.72788 16.1387C9.72345 15.3523 9.72018 14.5659 9.71811 13.7794C9.71709 13.3991 9.71569 13.0188 9.71341 12.6385C9.71142 12.3069 9.71013 11.9754 9.70969 11.6439C9.70943 11.4684 9.70882 11.2929 9.70737 11.1174C9.70602 10.9521 9.7056 10.7868 9.7059 10.6215C9.70585 10.5609 9.70545 10.5004 9.70469 10.4398C9.70082 10.1182 9.69824 9.86434 9.92765 9.61553C9.9629 9.56938 9.99787 9.523 10.0325 9.47634C10.0694 9.42908 10.1064 9.3819 10.1435 9.3348C10.1846 9.28221 10.2257 9.22962 10.2668 9.17702C10.2877 9.15044 10.3085 9.12386 10.33 9.09648C10.4293 8.96963 10.5282 8.8424 10.627 8.71512C10.6461 8.69047 10.6653 8.66583 10.685 8.64044C10.8715 8.39998 11.056 8.15797 11.2404 7.91585C11.4413 7.65229 11.6438 7.39007 11.8472 7.12847C12.0177 6.9092 12.1868 6.68891 12.355 6.46788C12.505 6.27099 12.6567 6.07548 12.8087 5.88013C12.9394 5.71192 13.0691 5.54294 13.1982 5.37339C13.3465 5.17845 13.496 4.98446 13.6464 4.79114C13.8532 4.52528 14.0578 4.25777 14.2619 3.98979C14.4271 3.77302 14.5931 3.55688 14.7605 3.34187C14.7915 3.3021 14.7915 3.3021 14.823 3.26154C14.8634 3.20967 14.9039 3.15784 14.9444 3.10605C14.9631 3.08201 14.9818 3.05796 15.0011 3.03319C15.0176 3.01208 15.0341 2.99096 15.0511 2.9692C15.0998 2.90466 15.147 2.83942 15.1939 2.77354C15.2088 2.75259 15.2237 2.73165 15.239 2.71007C15.2503 2.69412 15.2617 2.67818 15.2734 2.66175C15.2415 2.66173 15.2097 2.66171 15.1769 2.66169C13.2915 2.6605 11.4061 2.65861 9.52074 2.65583C9.29452 2.65549 9.0683 2.65516 8.84208 2.65484C8.81956 2.65481 8.79705 2.65478 8.77386 2.65474C8.04389 2.6537 7.31393 2.65308 6.58396 2.65269C5.81271 2.65228 5.04147 2.65137 4.27022 2.64995C3.80806 2.64911 3.34591 2.64867 2.88375 2.64872C2.56713 2.64872 2.25051 2.64824 1.93388 2.64737C1.75102 2.64688 1.56817 2.64661 1.3853 2.64691C1.21803 2.64719 1.05077 2.64685 0.883498 2.64603C0.822854 2.64584 0.762209 2.64588 0.701566 2.64616C0.619357 2.64651 0.537192 2.64604 0.454987 2.64537C0.431239 2.64567 0.407491 2.64596 0.383023 2.64627C0.224699 2.64377 0.144411 2.60757 0.0331238 2.49539C-0.094995 2.23862 0.0192374 1.83478 0.0739792 1.5669C0.0816922 1.52803 0.0894052 1.48915 0.097352 1.4491C0.113636 1.36776 0.130137 1.28646 0.146846 1.2052C0.172257 1.08088 0.196525 0.956363 0.220734 0.831801C0.23677 0.75242 0.252872 0.673053 0.269047 0.5937C0.27618 0.556616 0.283312 0.519531 0.29066 0.481323C0.333018 0.280769 0.366366 0.15964 0.531171 0.0332796C0.588975 -0.0246444 0.664125 -0.00427921 0.741187 -0.00467155Z" fill="black"/>
</g>
<defs>
<clipPath id="clip0_24_561">
<rect width="17" height="18" fill="white"/>
</clipPath>
</defs>
</svg>
