<svg width="17" height="16" viewBox="0 0 17 16" fill="none" xmlns="http://www.w3.org/2000/svg">
<path d="M2.32886 2.00101C2.3925 2.00083 2.45614 2.00061 2.51978 2.00036C2.69191 1.9998 2.86404 1.99984 3.03618 2.00001C3.18001 2.00011 3.32384 1.99992 3.46767 1.99973C3.80689 1.99929 4.14611 1.99934 4.48533 1.9997C4.83522 2.00006 5.18511 1.99962 5.53501 1.99878C5.83568 1.99809 6.13636 1.99788 6.43703 1.99807C6.61651 1.99817 6.79598 1.9981 6.97545 1.99756C7.14407 1.99708 7.31267 1.9972 7.48129 1.99779C7.54316 1.9979 7.60503 1.99781 7.6669 1.99748C7.75135 1.99707 7.83577 1.99743 7.92022 1.99798C7.9447 1.99768 7.96918 1.99738 7.9944 1.99707C8.15701 1.99926 8.24847 2.03597 8.37394 2.13834C8.49752 2.27494 8.5168 2.38465 8.50853 2.5626C8.48818 2.71659 8.42586 2.81199 8.31157 2.91206C8.16863 3.01629 8.05335 3.016 7.8831 3.01576C7.85826 3.01585 7.83342 3.01594 7.80783 3.01603C7.72432 3.01629 7.6408 3.01633 7.55729 3.01637C7.49752 3.01652 7.43775 3.01668 7.37798 3.01686C7.24909 3.01721 7.12021 3.01747 6.99132 3.01767C6.78743 3.018 6.58354 3.01863 6.37964 3.01933C5.79979 3.02126 5.21993 3.02294 4.64006 3.02397C4.31994 3.02455 3.99982 3.02545 3.67969 3.02672C3.5103 3.02737 3.34092 3.02786 3.17153 3.02793C3.01208 3.02799 2.85263 3.02849 2.69318 3.02931C2.63477 3.02954 2.57636 3.0296 2.51795 3.0295C2.05557 3.01064 2.05557 3.01064 1.65623 3.20635C1.52136 3.44372 1.53623 3.68533 1.53701 3.95145C1.53692 3.99671 1.5368 4.04197 1.53665 4.08724C1.53633 4.21135 1.5364 4.33546 1.53653 4.45958C1.53661 4.59354 1.53633 4.72749 1.5361 4.86145C1.5357 5.12379 1.53564 5.38613 1.53571 5.64847C1.53577 5.86171 1.53572 6.07496 1.53558 6.2882C1.53556 6.31855 1.53555 6.34891 1.53553 6.38018C1.53549 6.44184 1.53545 6.5035 1.53541 6.56517C1.53507 7.14341 1.53514 7.72166 1.53533 8.29991C1.53549 8.82882 1.53514 9.35773 1.53455 9.88665C1.53395 10.4298 1.53369 10.973 1.5338 11.5162C1.53386 11.8211 1.53379 12.126 1.53335 12.431C1.53297 12.6905 1.53293 12.9501 1.53331 13.2097C1.53349 13.3421 1.53353 13.4745 1.53315 13.6069C1.53281 13.7282 1.53291 13.8495 1.53335 13.9708C1.53343 14.0146 1.53336 14.0584 1.53311 14.1022C1.52626 14.5024 1.52626 14.5024 1.70885 14.8434C1.94757 14.979 2.19144 14.9635 2.45907 14.9628C2.50489 14.9629 2.55071 14.9631 2.59654 14.9632C2.72219 14.9636 2.84784 14.9636 2.97349 14.9635C3.1091 14.9635 3.24471 14.9639 3.38032 14.9642C3.64588 14.9647 3.91144 14.9649 4.177 14.9649C4.39282 14.9649 4.60865 14.9651 4.82447 14.9652C5.43636 14.9658 6.04825 14.9661 6.66014 14.966C6.69312 14.966 6.72609 14.966 6.76007 14.966C6.8096 14.966 6.8096 14.966 6.86012 14.966C7.39551 14.966 7.9309 14.9666 8.46628 14.9675C9.016 14.9684 9.56572 14.9688 10.1154 14.9687C10.4241 14.9687 10.7327 14.9689 11.0413 14.9696C11.304 14.9701 11.5667 14.9703 11.8294 14.9698C11.9635 14.9696 12.0975 14.9696 12.2316 14.9702C12.3543 14.9707 12.477 14.9706 12.5997 14.97C12.6441 14.9699 12.6884 14.9701 12.7328 14.9704C13.0546 14.9739 13.0546 14.9739 13.3318 14.8297C13.4616 14.687 13.4611 14.5482 13.4606 14.3635C13.4607 14.338 13.4608 14.3124 13.4608 14.2861C13.461 14.2002 13.461 14.1143 13.461 14.0285C13.4611 13.967 13.4612 13.9055 13.4613 13.8441C13.4616 13.7116 13.4617 13.579 13.4618 13.4465C13.462 13.237 13.4625 13.0275 13.4631 12.818C13.4633 12.7463 13.4635 12.6746 13.4637 12.6029C13.4638 12.567 13.4639 12.5311 13.464 12.4941C13.4653 12.0063 13.4663 11.5184 13.4667 11.0306C13.467 10.7016 13.4677 10.3727 13.4689 10.0437C13.4695 9.86963 13.4699 9.69552 13.4697 9.5214C13.4696 9.35762 13.47 9.19385 13.4709 9.03007C13.4711 8.96995 13.4711 8.90984 13.4709 8.84973C13.4706 8.76765 13.4711 8.68561 13.4718 8.60354C13.4715 8.57976 13.4712 8.55598 13.471 8.53148C13.4734 8.37091 13.5117 8.28058 13.6125 8.15662C13.776 8.01251 13.8728 7.98953 14.0876 7.99206C14.2091 8.00426 14.2718 8.04296 14.3608 8.12544C14.4818 8.27407 14.5035 8.39245 14.5014 8.57875C14.5017 8.61832 14.5017 8.61832 14.502 8.6587C14.5025 8.74688 14.5021 8.83505 14.5017 8.92323C14.5019 8.98656 14.5021 9.04988 14.5024 9.1132C14.5029 9.2851 14.5027 9.457 14.5023 9.6289C14.502 9.80901 14.5023 9.98912 14.5025 10.1692C14.5027 10.4719 14.5024 10.7746 14.5018 11.0772C14.5011 11.4266 14.5014 11.7759 14.502 12.1252C14.5026 12.4255 14.5027 12.7257 14.5024 13.026C14.5022 13.2052 14.5021 13.3844 14.5025 13.5635C14.5029 13.7322 14.5027 13.9009 14.5019 14.0695C14.5018 14.1312 14.5018 14.1929 14.5021 14.2546C14.5043 14.7973 14.4197 15.1915 14.0393 15.6015C13.6848 15.937 13.2968 15.9977 12.8253 15.9956C12.7775 15.9957 12.7296 15.9959 12.6818 15.9961C12.5509 15.9966 12.4201 15.9964 12.2893 15.9962C12.1479 15.996 12.0066 15.9964 11.8652 15.9968C11.5886 15.9973 11.3119 15.9973 11.0352 15.9972C10.8103 15.997 10.5854 15.9971 10.3604 15.9972C10.3124 15.9973 10.3124 15.9973 10.2633 15.9973C10.1982 15.9974 10.1331 15.9974 10.068 15.9975C9.45785 15.9979 8.84768 15.9977 8.23751 15.9974C7.67965 15.997 7.12179 15.9974 6.56393 15.9982C5.9907 15.999 5.41748 15.9993 4.84425 15.999C4.52259 15.9989 4.20094 15.999 3.87928 15.9996C3.60546 16 3.33164 16 3.05782 15.9995C2.91821 15.9992 2.7786 15.9992 2.63898 15.9996C2.51099 16.0001 2.38302 15.9999 2.25503 15.9993C2.20891 15.9992 2.16279 15.9993 2.11667 15.9996C1.62087 16.0029 1.26233 15.8751 0.898122 15.5372C0.562693 15.1828 0.50196 14.7947 0.504058 14.3232C0.503928 14.2753 0.503757 14.2275 0.503549 14.1796C0.5031 14.0488 0.50323 13.918 0.503461 13.7872C0.503608 13.6458 0.503218 13.5044 0.502899 13.3631C0.502363 13.0864 0.502337 12.8097 0.5025 12.5331C0.502626 12.3081 0.502581 12.0832 0.502414 11.8582C0.502391 11.8262 0.502368 11.7941 0.502344 11.7611C0.502296 11.696 0.502248 11.6309 0.5022 11.5658C0.501772 10.9556 0.501941 10.3454 0.502299 9.73524C0.502609 9.17736 0.502205 8.61948 0.501459 8.0616C0.500698 7.48836 0.500399 6.91511 0.500606 6.34186C0.500715 6.02019 0.500646 5.69853 0.5001 5.37686C0.49964 5.10303 0.499621 4.8292 0.500164 4.55537C0.500429 4.41575 0.500497 4.27614 0.500019 4.13652C0.499587 4.00852 0.499737 3.88054 0.500339 3.75255C0.500455 3.70643 0.500365 3.66031 0.500039 3.61419C0.496779 3.11837 0.624523 2.75982 0.962434 2.3956C1.36456 2.015 1.80617 1.99969 2.32886 2.00101Z" fill="white"/>
<path d="M12.2229 0.0019079C12.2656 0.00173874 12.3084 0.00151657 12.3511 0.00124557C12.4668 0.000678249 12.5825 0.00089686 12.6982 0.00129285C12.8195 0.00160931 12.9407 0.00131559 13.062 0.00111995C13.2656 0.000893222 13.4692 0.00119158 13.6729 0.00178609C13.908 0.00246487 14.1432 0.00224498 14.3784 0.00155828C14.5806 0.000991701 14.7827 0.000912648 14.9849 0.0012388C15.1055 0.00143296 15.2262 0.00146002 15.3468 0.00104715C15.4603 0.000686033 15.5737 0.000938233 15.6871 0.00165762C15.7484 0.0019004 15.8098 0.00153134 15.8711 0.00114279C16.2141 0.00442829 16.2141 0.00442829 16.3564 0.142779C16.5252 0.316471 16.4987 0.521227 16.4973 0.748895C16.4975 0.791629 16.4977 0.834364 16.498 0.877097C16.4985 0.992811 16.4983 1.10851 16.4979 1.22423C16.4976 1.34549 16.4979 1.46676 16.4981 1.58803C16.4983 1.79165 16.498 1.99527 16.4974 2.1989C16.4967 2.43409 16.497 2.66928 16.4976 2.90448C16.4982 3.10665 16.4983 3.30881 16.498 3.51099C16.4978 3.63163 16.4977 3.75227 16.4982 3.87292C16.4985 3.98636 16.4983 4.09978 16.4975 4.21322C16.4973 4.27456 16.4977 4.33589 16.4981 4.39722C16.4949 4.7321 16.4949 4.7321 16.3564 4.88257C16.2373 4.99571 16.1418 5.01696 15.9822 5.02289C15.8227 5.01696 15.7272 4.99571 15.6081 4.88257C15.4766 4.72317 15.4651 4.60586 15.4663 4.40802C15.466 4.37971 15.4657 4.35139 15.4653 4.32222C15.4644 4.22908 15.4644 4.13597 15.4643 4.04282C15.4639 3.97807 15.4634 3.91332 15.4628 3.84857C15.4614 3.67848 15.4608 3.50839 15.4603 3.33829C15.4597 3.16459 15.4584 2.99089 15.4572 2.81719C15.4548 2.47662 15.4532 2.13605 15.4522 1.79547C15.4344 1.81334 15.4165 1.83122 15.3982 1.84964C15.2295 2.01898 15.0607 2.18825 14.8918 2.35743C14.805 2.44438 14.7183 2.53137 14.6316 2.61842C14.5477 2.7026 14.4638 2.78671 14.3799 2.87075C14.348 2.90266 14.3162 2.9346 14.2844 2.96656C14.2395 3.0117 14.1945 3.05673 14.1495 3.10174C14.124 3.12729 14.0985 3.15285 14.0723 3.17917C14.0065 3.24203 13.9402 3.30156 13.8713 3.36076C13.7426 3.47306 13.6213 3.59116 13.5011 3.71234C13.4787 3.73476 13.4563 3.75719 13.4332 3.7803C13.3589 3.85481 13.2846 3.92944 13.2104 4.00407C13.1569 4.05777 13.1033 4.11146 13.0498 4.16515C12.9348 4.28043 12.8199 4.39576 12.705 4.51113C12.5234 4.69348 12.3416 4.87567 12.1598 5.05784C12.0975 5.12027 12.0352 5.18269 11.9729 5.24512C11.9573 5.26072 11.9417 5.27631 11.9257 5.29238C11.749 5.46951 11.5722 5.64668 11.3955 5.82386C11.3794 5.84004 11.3632 5.85622 11.3466 5.87289C11.0846 6.13559 10.8227 6.39841 10.5609 6.66125C10.2918 6.93142 10.0224 7.2014 9.75295 7.47123C9.58687 7.63754 9.42094 7.804 9.2552 7.97064C9.12834 8.09817 9.00124 8.22545 8.87405 8.35264C8.82189 8.40488 8.76981 8.4572 8.71782 8.5096C8.64696 8.58099 8.57582 8.6521 8.5046 8.72313C8.48399 8.74404 8.46338 8.76494 8.44215 8.78647C8.30319 8.92423 8.18817 9.00679 7.98609 9.01039C7.84429 9.00686 7.76568 8.96772 7.65673 8.87397C7.54683 8.74921 7.49585 8.67324 7.49108 8.50757C7.48933 8.46826 7.48933 8.46826 7.48755 8.42815C7.52056 8.21854 7.70679 8.06685 7.85098 7.92404C7.87372 7.90126 7.89647 7.87848 7.9199 7.85502C7.99599 7.77889 8.0723 7.703 8.14861 7.6271C8.20328 7.57249 8.25794 7.51788 8.31258 7.46325C8.43021 7.34571 8.54793 7.22826 8.66574 7.11089C8.83633 6.94095 9.00673 6.77081 9.17707 6.60063C9.45382 6.32417 9.73069 6.04783 10.0077 5.77158C10.0242 5.75506 10.0408 5.73854 10.0579 5.72152C10.0744 5.70497 10.091 5.68843 10.1081 5.67139C10.343 5.43708 10.5779 5.20273 10.8128 4.96835C10.8293 4.95187 10.8458 4.93539 10.8628 4.9184C11.1386 4.64318 11.4143 4.36789 11.69 4.09257C11.8599 3.92294 12.0298 3.75338 12.1998 3.5839C12.3302 3.45391 12.4605 3.32383 12.5908 3.19374C12.6441 3.14051 12.6975 3.08731 12.7509 3.03415C12.8239 2.9614 12.8968 2.88855 12.9698 2.81568C12.9908 2.79482 13.0118 2.77395 13.0334 2.75246C13.1536 2.63214 13.2678 2.50833 13.3786 2.37936C13.4389 2.31001 13.5025 2.24472 13.5675 2.17989C13.5931 2.15432 13.6186 2.12874 13.645 2.10239C13.6718 2.07571 13.6987 2.04903 13.7263 2.02154C13.7544 1.99352 13.7825 1.96549 13.8114 1.93662C13.8852 1.86295 13.9591 1.78935 14.033 1.71578C14.1087 1.64037 14.1844 1.56486 14.26 1.48936C14.4079 1.34185 14.5558 1.19443 14.7038 1.04708C14.6499 1.04691 14.6499 1.04691 14.595 1.04674C14.2564 1.04558 13.9178 1.04378 13.5792 1.04135C13.4051 1.04011 13.2311 1.03911 13.057 1.03863C12.889 1.03816 12.721 1.03708 12.553 1.0356C12.4889 1.03513 12.4248 1.03489 12.3607 1.03486C12.2709 1.03479 12.1811 1.03394 12.0913 1.03292C12.0517 1.03316 12.0517 1.03316 12.0112 1.0334C11.8442 1.03046 11.7499 1.00096 11.6168 0.891166C11.5037 0.77207 11.4824 0.676542 11.4765 0.516972C11.4824 0.357403 11.5037 0.261875 11.6168 0.142779C11.7962 -0.0222614 11.9889 0.000425536 12.2229 0.0019079Z" fill="white"/>
</svg>
