<svg width="32" height="33" viewBox="0 0 32 33" fill="none" xmlns="http://www.w3.org/2000/svg">
<g clip-path="url(#clip0_24_952)">
<path d="M18.0625 3.50001C18.455 3.95809 18.7664 4.46524 19.0642 4.98809C19.178 5.18776 19.2936 5.38645 19.4089 5.58522C19.4323 5.62557 19.4557 5.66593 19.4798 5.70751C19.7062 6.09706 19.942 6.48058 20.1797 6.86329C20.5527 7.46471 20.9171 8.07057 21.2774 8.6797C21.6529 9.31458 22.0307 9.94796 22.4141 10.5781C22.4467 10.6317 22.4467 10.6317 22.4799 10.6864C22.6323 10.9369 22.7849 11.1872 22.9375 11.4375C23.1121 11.7239 23.2866 12.0103 23.4609 12.2969C23.4826 12.3325 23.5042 12.368 23.5265 12.4047C23.9179 13.0484 24.3025 13.6961 24.6861 14.3445C25.014 14.8986 25.3468 15.4489 25.6882 15.9948C25.9963 16.4895 26.2931 16.9907 26.5899 17.4922C27.0381 18.2497 27.4915 19.0037 27.9507 19.7546C28.1589 20.0952 28.3668 20.4362 28.5742 20.7774C28.5961 20.8134 28.6181 20.8494 28.6406 20.8865C29.0398 21.543 29.432 22.2036 29.8233 22.8648C30.0937 23.3217 30.3645 23.778 30.6484 24.2266C30.8917 24.6124 31.1314 25.0002 31.3672 25.3906C31.4015 25.4461 31.4357 25.5016 31.4711 25.5588C31.8198 26.1409 32.0479 26.7252 32.0313 27.4102C32.0305 27.4612 32.0298 27.5122 32.029 27.5648C32.0049 28.3011 31.7098 28.8712 31.2266 29.418C30.2922 30.2411 29.369 30.3319 28.1588 30.3284C28.0494 30.3285 27.94 30.3287 27.8306 30.329C27.5316 30.3295 27.2326 30.3292 26.9336 30.3289C26.6105 30.3286 26.2873 30.329 25.9642 30.3294C25.3319 30.3299 24.6996 30.3298 24.0673 30.3294C23.5533 30.3291 23.0392 30.3291 22.5252 30.3292C22.452 30.3293 22.3788 30.3293 22.3033 30.3293C22.1546 30.3293 22.0058 30.3294 21.857 30.3294C20.4628 30.3298 19.0686 30.3294 17.6743 30.3287C16.4787 30.3281 15.2831 30.3282 14.0874 30.3288C12.6981 30.3295 11.3088 30.3297 9.91945 30.3294C9.77123 30.3293 9.62301 30.3293 9.47479 30.3292C9.40187 30.3292 9.32895 30.3292 9.25381 30.3292C8.74057 30.3291 8.22732 30.3293 7.71408 30.3296C7.08839 30.3299 6.4627 30.3298 5.837 30.3291C5.51792 30.3288 5.19885 30.3287 4.87977 30.3291C4.58739 30.3295 4.29502 30.3293 4.00264 30.3286C3.89717 30.3285 3.79169 30.3285 3.68622 30.3288C2.20928 30.3328 2.20928 30.3328 1.53907 29.9805C1.46898 29.9446 1.39889 29.9088 1.32667 29.8718C0.681464 29.4821 0.235586 28.8593 0.0293545 28.1333C-0.0213433 27.903 -0.0167442 27.6725 -0.0195194 27.4375C-0.0213322 27.3883 -0.0231449 27.3391 -0.0250126 27.2883C-0.0333226 26.4944 0.346518 25.8513 0.746106 25.1914C0.794182 25.1108 0.842206 25.0302 0.890179 24.9496C1.18996 24.447 1.4963 23.9486 1.80665 23.4525C2.11719 22.9547 2.41614 22.4503 2.71486 21.9453C3.16308 21.1879 3.61645 20.4338 4.07566 19.683C4.28394 19.3423 4.49175 19.0013 4.69923 18.6602C4.7212 18.624 4.74318 18.5879 4.76582 18.5507C5.16075 17.901 5.54892 17.2475 5.93602 16.5931C6.26396 16.039 6.5968 15.4887 6.9382 14.9427C7.24626 14.448 7.5431 13.9469 7.83986 13.4453C8.2881 12.6879 8.74145 11.9338 9.20066 11.183C9.40894 10.8423 9.61675 10.5013 9.82423 10.1602C9.8462 10.124 9.86818 10.0879 9.89082 10.0507C10.2857 9.40108 10.6738 8.74754 11.061 8.09325C11.3902 7.53697 11.7236 6.9838 12.0666 6.43588C12.2682 6.11302 12.4651 5.7877 12.6594 5.46046C12.6843 5.41865 12.7092 5.37683 12.7348 5.33375C12.858 5.12669 12.9808 4.91943 13.1029 4.71177C13.6504 3.78665 14.2169 3.06912 15.2918 2.76539C16.3066 2.54764 17.2804 2.82719 18.0625 3.50001ZM15.3214 5.21667C15.2672 5.30846 15.2672 5.30846 15.2119 5.40211C15.1498 5.50607 15.1498 5.50607 15.0863 5.61213C15.0419 5.68804 14.9975 5.76394 14.9531 5.83986C14.9061 5.91898 14.859 5.99806 14.8119 6.0771C14.7141 6.24112 14.6166 6.40533 14.5194 6.56968C14.3003 6.93921 14.0755 7.30526 13.8516 7.67189C13.4378 8.35126 13.0315 9.03488 12.6264 9.71949C12.2985 10.2736 11.9657 10.8239 11.6243 11.3698C11.3163 11.8645 11.0194 12.3657 10.7227 12.8672C10.2744 13.6247 9.82107 14.3787 9.36186 15.1296C9.15359 15.4702 8.94577 15.8112 8.73829 16.1524C8.71632 16.1885 8.69435 16.2246 8.67171 16.2618C8.27677 16.9115 7.8886 17.565 7.5015 18.2194C7.17357 18.7735 6.84072 19.3238 6.49933 19.8698C6.19126 20.3645 5.89442 20.8657 5.59767 21.3672C5.1499 22.1239 4.697 22.877 4.23823 23.6271C4.00011 24.0171 3.76333 24.4079 3.52641 24.7986C3.28597 25.1951 3.04512 25.5913 2.80275 25.9866C2.7419 26.086 2.7419 26.086 2.67982 26.1874C2.6034 26.3122 2.52683 26.4368 2.45009 26.5614C2.39939 26.6443 2.39939 26.6443 2.34767 26.7288C2.30332 26.8009 2.30332 26.8009 2.25807 26.8745C2.11564 27.1278 2.10526 27.3386 2.12501 27.625C2.23902 27.889 2.36892 28.0004 2.62501 28.125C2.84041 28.1531 2.84041 28.1531 3.08036 28.1486C3.12579 28.1489 3.17122 28.1492 3.21803 28.1494C3.3707 28.1501 3.52334 28.1495 3.67602 28.1488C3.78641 28.149 3.89679 28.1493 4.00718 28.1497C4.31086 28.1505 4.61454 28.1501 4.91823 28.1495C5.2456 28.1491 5.57297 28.1498 5.90034 28.1503C6.54181 28.1511 7.18327 28.1509 7.82473 28.1504C8.34594 28.15 8.86715 28.1499 9.38836 28.1501C9.46247 28.1501 9.53658 28.1502 9.61293 28.1502C9.76347 28.1503 9.91401 28.1503 10.0645 28.1504C11.477 28.1509 12.8894 28.1503 14.3019 28.1493C15.5145 28.1484 16.7271 28.1486 17.9398 28.1495C19.3471 28.1505 20.7544 28.1509 22.1617 28.1503C22.3117 28.1502 22.4617 28.1502 22.6117 28.1501C22.7224 28.1501 22.7224 28.1501 22.8353 28.15C23.3561 28.1499 23.8768 28.1501 24.3975 28.1506C25.0319 28.1511 25.6663 28.151 26.3007 28.15C26.6245 28.1495 26.9483 28.1493 27.2722 28.1499C27.5684 28.1504 27.8646 28.1501 28.1609 28.1491C28.2682 28.1489 28.3756 28.149 28.483 28.1495C28.6286 28.1501 28.7741 28.1495 28.9197 28.1486C29.0006 28.1486 29.0816 28.1485 29.165 28.1485C29.4556 28.116 29.6185 28.0232 29.8008 27.7969C29.9013 27.5641 29.9118 27.4412 29.875 27.1875C29.6087 26.6176 29.2555 26.0794 28.9336 25.5391C28.9073 25.4949 28.8811 25.4507 28.854 25.4052C28.5124 24.8305 28.166 24.2592 27.8116 23.6923C27.5076 23.2042 27.2147 22.7097 26.9219 22.2149C26.5424 21.5735 26.1608 20.9335 25.7734 20.2969C25.7409 20.2433 25.7409 20.2433 25.7077 20.1887C25.5553 19.9382 25.4027 19.6879 25.25 19.4375C25.0754 19.1511 24.9009 18.8647 24.7266 18.5781C24.7049 18.5426 24.6833 18.507 24.661 18.4704C24.2696 17.8266 23.885 17.1789 23.5014 16.5305C23.1735 15.9765 22.8407 15.4262 22.4993 14.8802C22.1913 14.3855 21.8944 13.8844 21.5977 13.3828C21.1494 12.6254 20.6961 11.8713 20.2369 11.1205C20.0286 10.7798 19.8208 10.4388 19.6133 10.0977C19.5913 10.0615 19.5693 10.0254 19.5467 9.98821C19.1778 9.38142 18.8147 8.77131 18.4531 8.16017C18.0539 7.48551 17.6499 6.8145 17.2337 6.15016C17.1242 5.97529 17.0171 5.79939 16.9129 5.62135C16.8903 5.58318 16.8677 5.545 16.8444 5.50567C16.787 5.40823 16.7304 5.31035 16.6738 5.21241C16.5238 5.01041 16.3702 4.89824 16.1211 4.85011C16.0612 4.85083 16.0612 4.85083 16 4.85157C15.9601 4.85109 15.9201 4.85061 15.8789 4.85011C15.6311 4.89799 15.4719 5.01692 15.3214 5.21667Z" fill="#E83B2D"/>
<path d="M16.793 11.418C17.1369 11.6344 17.3351 11.8536 17.4375 12.25C17.4549 12.4409 17.4535 12.6302 17.4509 12.8218C17.4505 12.8806 17.4501 12.9395 17.4497 13.0001C17.4393 13.9016 17.3942 14.8027 17.3542 15.7033C17.337 16.093 17.32 16.4828 17.3034 16.8726C17.2992 16.9694 17.295 17.0662 17.2907 17.163C17.2665 17.7144 17.247 18.2655 17.2366 18.8173C17.2355 18.8688 17.2344 18.9202 17.2333 18.9733C17.2282 19.2196 17.2239 19.466 17.2212 19.7124C17.214 20.1548 17.2034 20.5377 17 20.9375C16.8904 21.0388 16.8904 21.0388 16.7774 21.0898C16.6633 21.1417 16.5495 21.194 16.4375 21.25C16.2867 21.2594 16.1355 21.2639 15.9844 21.2656C15.9029 21.2672 15.8213 21.2689 15.7373 21.2705C15.4111 21.2423 15.2081 21.1479 14.9805 20.9141C14.8183 20.6618 14.8052 20.4137 14.7959 20.1189C14.7928 20.025 14.7928 20.025 14.7896 19.9292C14.7875 19.8615 14.7855 19.7937 14.7835 19.7239C14.7799 19.6165 14.7799 19.6165 14.7763 19.507C14.7686 19.2716 14.7613 19.0362 14.7539 18.8008C14.7446 18.5126 14.7351 18.2244 14.7256 17.9362C14.7228 17.8522 14.7201 17.7681 14.7173 17.684C14.698 17.0985 14.6762 16.5131 14.6516 15.9277C14.6487 15.8583 14.6458 15.7888 14.6428 15.7172C14.6317 15.453 14.6206 15.1889 14.6088 14.9248C14.5788 14.2524 14.5554 13.58 14.5474 12.907C14.546 12.8476 14.5446 12.7882 14.5432 12.727C14.541 12.3254 14.5824 12.0083 14.853 11.6921C14.8886 11.6635 14.9243 11.6349 14.9609 11.6055C14.9962 11.5761 15.0315 11.5467 15.0679 11.5164C15.5218 11.2171 16.2991 11.1843 16.793 11.418Z" fill="#E83B2D"/>
<path d="M16.7148 22.6953C17.0722 22.8992 17.3168 23.1595 17.4683 23.5513C17.5714 23.9939 17.5746 24.4907 17.3376 24.8887C17.0504 25.2535 16.7213 25.5272 16.2512 25.5857C15.7661 25.5957 15.3951 25.5458 15 25.25C14.656 24.9081 14.5239 24.5552 14.4766 24.0742C14.4882 23.6748 14.6466 23.3127 14.8984 23.0078C15.4536 22.5584 16.0354 22.377 16.7148 22.6953Z" fill="#E83B2D"/>
</g>
<defs>
<clipPath id="clip0_24_952">
<rect width="32" height="32" fill="white" transform="translate(0 0.5)"/>
</clipPath>
</defs>
</svg>
