<svg width="31" height="27" viewBox="0 0 31 27" fill="none" xmlns="http://www.w3.org/2000/svg">
<path d="M7.93097 0.5C6.83194 0.499932 5.76552 0.86901 4.90657 1.54671C4.04762 2.22441 3.44714 3.1705 3.20359 4.22983L0.120523 17.6465C-0.0407066 18.3478 -0.0401659 19.076 0.122105 19.777C0.284376 20.4781 0.604214 21.1341 1.0579 21.6963C1.5116 22.2585 2.0875 22.7126 2.74292 23.0248C3.39833 23.3371 4.11645 23.4995 4.84402 23.5H26.1521C26.88 23.5 27.5986 23.3381 28.2545 23.0261C28.9104 22.7141 29.4868 22.2601 29.9409 21.6978C30.395 21.1355 30.7152 20.4793 30.8777 19.778C31.0402 19.0766 31.0408 18.3481 30.8795 17.6465L27.7945 4.22983C27.551 3.17082 26.9508 2.22497 26.0923 1.54731C25.2337 0.869643 24.1677 0.500367 23.069 0.5H7.93097ZM5.09415 4.65533C5.24014 4.01953 5.60042 3.45165 6.11589 3.04487C6.63135 2.6381 7.27138 2.41658 7.93097 2.41667H23.069C23.7286 2.41658 24.3686 2.6381 24.8841 3.04487C25.3996 3.45165 25.7599 4.01953 25.9058 4.65533L28.9889 18.072C29.0855 18.4926 29.0851 18.9293 28.9877 19.3498C28.8904 19.7703 28.6985 20.1637 28.4265 20.5009C28.1544 20.8381 27.8091 21.1105 27.416 21.2979C27.023 21.4853 26.5923 21.5828 26.156 21.5833H4.84596C4.40927 21.5834 3.97817 21.4863 3.58465 21.2991C3.19113 21.112 2.84529 20.8397 2.57279 20.5024C2.30029 20.1651 2.10812 19.7715 2.01055 19.3507C1.91297 18.93 1.91249 18.4929 2.00915 18.072L5.09415 4.65533Z" fill="#4B88A2"/>
<path d="M6.95 25C6.69804 25 6.45641 25.1054 6.27825 25.2929C6.10009 25.4804 6 25.7348 6 26C6 26.2652 6.10009 26.5196 6.27825 26.7071C6.45641 26.8946 6.69804 27 6.95 27H24.05C24.302 27 24.5436 26.8946 24.7218 26.7071C24.8999 26.5196 25 26.2652 25 26C25 25.7348 24.8999 25.4804 24.7218 25.2929C24.5436 25.1054 24.302 25 24.05 25H6.95Z" fill="#1D1D1D"/>
</svg>
