<svg width="20" height="20" viewBox="0 0 20 20" fill="none" xmlns="http://www.w3.org/2000/svg">
<g clip-path="url(#clip0_24_253)">
<path d="M10.1855 2.93535C10.5243 3.22838 10.8243 3.54806 11.0937 3.90626C11.2588 3.84532 11.3483 3.72161 11.4551 3.58888C12.2684 2.60736 13.3645 1.99555 14.6368 1.84379C15.9303 1.73077 17.2152 2.02843 18.2352 2.8589C19.1057 3.61687 19.9126 4.67569 20.0071 5.87145C20.0173 6.07976 20.0184 6.28792 20.0174 6.49644C20.0171 6.60547 20.0182 6.71442 20.0194 6.82344C20.0218 7.42977 19.9342 8.01055 19.7241 8.58156C19.7127 8.61311 19.7013 8.64466 19.6896 8.67717C19.1453 10.1421 18.2633 11.4256 17.2656 12.6172C17.2494 12.6367 17.2333 12.6562 17.2166 12.6763C16.9658 12.9784 16.7061 13.27 16.4378 13.5566C16.3652 13.635 16.2935 13.7141 16.2217 13.7932C15.9947 14.0428 15.7608 14.2844 15.5217 14.5225C15.4609 14.5831 15.4003 14.6439 15.3397 14.7047C15.1518 14.8928 14.9621 15.0768 14.7599 15.2497C14.63 15.3624 14.5068 15.4821 14.3823 15.6006C14.1714 15.7999 13.9577 15.9895 13.7308 16.1704C13.6298 16.2524 13.5336 16.3381 13.4375 16.4258C13.2353 16.6096 13.025 16.7815 12.8125 16.9531C12.763 16.9935 12.7136 17.034 12.6642 17.0744C12.3403 17.3393 12.0139 17.5997 11.6797 17.8516C11.6443 17.8796 11.6089 17.9076 11.5724 17.9364C11.5393 17.9616 11.5062 17.9868 11.4722 18.0127C11.4441 18.0346 11.4161 18.0564 11.3872 18.0789C11.2496 18.1435 11.1241 18.1512 10.9766 18.125C10.8583 18.0588 10.8583 18.0588 10.7446 17.9639C10.7235 17.9466 10.7024 17.9293 10.6806 17.9115C10.6343 17.8735 10.5883 17.8352 10.5426 17.7966C10.465 17.7312 10.3864 17.6671 10.3076 17.6032C10.0176 17.3672 9.73169 17.1267 9.44879 16.8824C9.31465 16.7667 9.17861 16.654 9.04052 16.543C8.83099 16.373 8.63432 16.1909 8.43719 16.0069C8.34677 15.9226 8.25511 15.8402 8.16161 15.7593C7.97259 15.5954 7.78863 15.4261 7.60499 15.2562C7.56137 15.2159 7.51767 15.1758 7.47388 15.1357C7.09464 14.7884 6.72867 14.4282 6.36474 14.065C6.34174 14.0421 6.31875 14.0192 6.29506 13.9956C6.0711 13.7724 5.84864 13.5499 5.64335 13.3092C5.55108 13.2015 5.45341 13.099 5.35644 12.9956C5.14946 12.7729 4.95581 12.542 4.76562 12.3047C4.72447 12.2545 4.68327 12.2043 4.64202 12.1541C4.51283 11.9969 4.38505 11.8385 4.2578 11.6797C4.23179 11.6476 4.23179 11.6476 4.20526 11.6149C3.89138 11.2248 3.89138 11.2248 3.90624 10.9375C3.96774 10.7961 4.01127 10.7503 4.14062 10.6641C4.30975 10.6518 4.42523 10.6538 4.5703 10.7422C4.62301 10.7985 4.62301 10.7985 4.67025 10.8646C4.68828 10.8893 4.70632 10.9141 4.7249 10.9396C4.74398 10.9663 4.76305 10.993 4.78271 11.0205C5.10771 11.4645 5.44987 11.8937 5.82198 12.2994C5.89043 12.3741 5.95691 12.45 6.02294 12.5269C6.42419 12.9845 6.85047 13.417 7.28027 13.8477C7.30415 13.8717 7.32803 13.8956 7.35263 13.9203C7.69457 14.2637 7.69457 14.2637 8.05459 14.5878C8.21339 14.7246 8.36348 14.8713 8.51562 15.0154C8.69427 15.184 8.8765 15.3474 9.06249 15.5078C9.08461 15.5269 9.10673 15.546 9.12952 15.5656C9.19335 15.6205 9.25729 15.6753 9.32128 15.73C9.36884 15.7707 9.4164 15.8114 9.46395 15.8521C9.48796 15.8726 9.51198 15.8932 9.53672 15.9143C9.60828 15.9756 9.67972 16.0371 9.75112 16.0986C9.99216 16.3062 10.2344 16.5117 10.4816 16.712C10.5556 16.7722 10.6292 16.8329 10.7025 16.8939C10.7406 16.9256 10.7786 16.9572 10.8179 16.9898C10.8521 17.0183 10.8862 17.0469 10.9215 17.0763C11.0032 17.1389 11.0781 17.185 11.1719 17.2266C11.1994 17.2034 11.2269 17.1801 11.2552 17.1562C11.4712 16.9749 11.689 16.7967 11.9116 16.6235C12.1159 16.4644 12.3152 16.3006 12.5121 16.1324C12.6457 16.0183 12.7808 15.9064 12.9175 15.7959C13.0915 15.6543 13.259 15.5069 13.4248 15.3558C13.5047 15.2834 13.5855 15.2122 13.667 15.1416C13.8583 14.9747 14.0451 14.8029 14.2316 14.6306C14.2752 14.5903 14.3189 14.5502 14.3626 14.5101C14.6796 14.2196 14.9885 13.9217 15.293 13.6182C15.3256 13.5857 15.3583 13.5532 15.392 13.5197C15.5594 13.3518 15.7208 13.1812 15.8754 13.0014C15.9697 12.8926 16.0685 12.7881 16.167 12.6831C16.3739 12.4604 16.5681 12.2299 16.7578 11.9922C16.7938 11.9481 16.8298 11.904 16.8658 11.8599C18.1791 10.2476 19.4445 8.2483 19.2497 6.08215C19.1214 5.03244 18.5231 4.09633 17.7006 3.44804C16.7925 2.79099 15.719 2.48034 14.5993 2.64421C13.4338 2.84349 12.5338 3.47493 11.8046 4.386C11.7156 4.49604 11.6243 4.60328 11.5308 4.70949C11.5031 4.74096 11.4755 4.77243 11.447 4.80485C11.3258 4.92324 11.2513 4.96019 11.0815 4.96339C10.7741 4.87481 10.597 4.56958 10.4033 4.32954C10.2617 4.15684 10.1126 3.99191 9.96093 3.82814C9.93752 3.8017 9.9141 3.77527 9.88998 3.74803C9.23377 3.0408 8.20591 2.65187 7.25646 2.60789C6.23613 2.58284 5.19962 2.87429 4.43603 3.57423C4.36214 3.6446 4.29044 3.71642 4.21874 3.78907C4.19079 3.81707 4.16285 3.84507 4.13405 3.87391C3.27233 4.78896 2.96759 5.90092 3.00098 7.13233C3.03606 7.81723 3.27647 8.49084 3.56437 9.10795C3.59374 9.1797 3.59374 9.1797 3.59374 9.25782C4.39296 9.25782 5.19218 9.25782 6.01562 9.25782C6.0414 9.20626 6.06718 9.1547 6.09374 9.10157C6.12863 9.05028 6.16473 8.99981 6.20177 8.95006C6.23419 8.90631 6.23419 8.90631 6.26725 8.86168C6.29056 8.83047 6.31387 8.79926 6.33788 8.7671C6.38763 8.70007 6.43737 8.63303 6.48711 8.56599C6.52535 8.51457 6.52535 8.51457 6.56436 8.46212C6.66025 8.33294 6.75555 8.20333 6.85079 8.07367C6.91853 7.98152 6.98646 7.88953 7.05444 7.79756C7.14364 7.67686 7.23226 7.55577 7.32055 7.4344C7.36245 7.37732 7.40436 7.32026 7.44628 7.2632C7.46522 7.2369 7.48416 7.21061 7.50367 7.18352C7.67203 6.95573 7.67203 6.95573 7.81249 6.91407C8.03135 6.91407 8.03135 6.91407 8.12499 6.95314C8.2995 7.13785 8.40656 7.33864 8.51818 7.56553C8.53688 7.6029 8.55558 7.64027 8.57484 7.67878C8.63622 7.80164 8.69715 7.92472 8.75808 8.0478C8.80069 8.13331 8.84332 8.2188 8.88598 8.30428C8.99793 8.52878 9.10951 8.75346 9.221 8.97818C9.33495 9.20767 9.44924 9.43698 9.56351 9.6663C9.78748 10.1159 10.0111 10.5657 10.2344 11.0156C10.3289 10.8972 10.398 10.7763 10.4656 10.6408C10.4877 10.5967 10.5097 10.5527 10.5325 10.5074C10.5564 10.4593 10.5803 10.4111 10.6042 10.363C10.6293 10.3128 10.6544 10.2627 10.6795 10.2125C10.7322 10.1069 10.7849 10.0013 10.8375 9.89559C10.9035 9.76298 10.9696 9.63047 11.0359 9.498C11.317 8.93582 11.5945 8.37228 11.8637 7.80428C12.2373 7.0179 12.2373 7.0179 12.4609 6.91407C12.6142 6.88798 12.6753 6.90113 12.8065 6.98594C12.9775 7.13529 13.0532 7.33816 13.1445 7.54152C13.1849 7.62874 13.2254 7.71592 13.266 7.80305C13.2872 7.84884 13.3084 7.89462 13.3303 7.94179C13.4011 8.09279 13.4753 8.24192 13.5504 8.39082C13.563 8.41582 13.5756 8.44081 13.5886 8.46657C13.6384 8.56513 13.6883 8.66364 13.7383 8.76205C13.7731 8.83035 13.8076 8.89875 13.8422 8.96714C13.8621 9.00634 13.882 9.04554 13.9025 9.08593C13.9453 9.1797 13.9453 9.1797 13.9453 9.25782C13.9733 9.25739 14.0012 9.25696 14.03 9.25651C14.2938 9.25259 14.5576 9.24962 14.8214 9.2477C14.957 9.24669 15.0926 9.24531 15.2282 9.24309C15.3842 9.24056 15.5402 9.23961 15.6963 9.23875C15.7448 9.23774 15.7934 9.23674 15.8434 9.2357C16.2185 9.23557 16.2185 9.23557 16.3392 9.35102C16.4403 9.50496 16.4431 9.62684 16.4062 9.8047C16.333 9.90242 16.2797 9.94608 16.1719 10C16.0911 10.0044 16.0103 10.0062 15.9294 10.0069C15.8785 10.0074 15.8275 10.0079 15.775 10.0084C15.719 10.0088 15.6631 10.0091 15.6071 10.0093C15.5649 10.0096 15.5649 10.0096 15.5219 10.0098C15.373 10.0106 15.2241 10.0112 15.0752 10.0115C14.9215 10.012 14.7679 10.0133 14.6142 10.0149C14.4959 10.0159 14.3777 10.0162 14.2594 10.0164C14.2027 10.0165 14.1461 10.017 14.0895 10.0177C14.0101 10.0187 13.9307 10.0185 13.8513 10.0184C13.8062 10.0186 13.7611 10.0188 13.7146 10.0191C13.5658 9.99561 13.5043 9.94941 13.3984 9.84376C13.3438 9.76269 13.3438 9.76269 13.301 9.67542C13.2845 9.64258 13.2681 9.60975 13.2512 9.57592C13.2343 9.54084 13.2174 9.50576 13.1999 9.46962C13.182 9.43342 13.1641 9.39723 13.1456 9.35994C13.0886 9.24473 13.0323 9.12922 12.9761 9.01368C12.9375 8.93533 12.8988 8.85701 12.8602 8.7787C12.7657 8.58709 12.6717 8.39522 12.5781 8.20314C12.275 8.77061 11.9849 9.34435 11.6976 9.91994C11.6361 10.0432 11.5745 10.1664 11.5128 10.2895C11.4641 10.3868 11.4154 10.4842 11.3668 10.5815C11.3428 10.6295 11.3188 10.6774 11.2949 10.7253C11.1705 10.9741 11.0479 11.2236 10.9303 11.4756C10.911 11.5169 10.8917 11.5581 10.8718 11.6006C10.8361 11.6772 10.8008 11.754 10.766 11.8309C10.6763 12.0238 10.5967 12.1705 10.4297 12.3047C10.2865 12.3456 10.2007 12.3616 10.0614 12.3057C9.91858 12.1932 9.85817 12.0596 9.77876 11.8984C9.762 11.8655 9.74525 11.8326 9.72799 11.7987C9.67494 11.6942 9.62262 11.5893 9.5703 11.4844C9.53724 11.4191 9.50412 11.3539 9.47095 11.2886C9.36811 11.0861 9.26635 10.883 9.16473 10.6798C9.12763 10.6057 9.09053 10.5317 9.05342 10.4576C8.97663 10.3042 8.89989 10.1508 8.8232 9.99741C8.72476 9.80052 8.6261 9.60375 8.52739 9.407C8.45115 9.25495 8.37505 9.10284 8.29899 8.9507C8.26263 8.87802 8.22621 8.80536 8.18975 8.73273C8.13922 8.63205 8.08889 8.53128 8.03861 8.43048C8.02352 8.40052 8.00842 8.37055 7.99287 8.33968C7.89062 8.13393 7.89062 8.13393 7.89062 8.04689C7.86484 8.04689 7.83905 8.04689 7.81249 8.04689C7.8016 8.06978 7.7907 8.09267 7.77948 8.11625C7.73715 8.19777 7.69128 8.26896 7.63763 8.34337C7.61816 8.37039 7.5987 8.39742 7.57865 8.42527C7.55753 8.45428 7.5364 8.4833 7.51464 8.5132C7.49261 8.54357 7.47058 8.57395 7.44788 8.60524C7.26635 8.85428 7.08115 9.10047 6.89452 9.34572C6.86836 9.3801 6.84219 9.41449 6.81523 9.44992C6.43568 9.94623 6.43568 9.94623 6.32812 10C6.24839 10.0041 6.16853 10.0056 6.08869 10.006C6.03759 10.0064 5.9865 10.0067 5.93385 10.007C5.87689 10.0072 5.81992 10.0074 5.76296 10.0075C5.70323 10.0079 5.6435 10.0082 5.58377 10.0085C5.38729 10.0095 5.19082 10.0101 4.99435 10.0107C4.92676 10.0109 4.85917 10.0111 4.79158 10.0113C4.51046 10.0122 4.22935 10.0129 3.94824 10.0133C3.54512 10.014 3.14202 10.0153 2.73891 10.0175C2.4556 10.019 2.1723 10.0198 1.88899 10.02C1.71971 10.0201 1.55044 10.0206 1.38117 10.0219C1.22191 10.023 1.06267 10.0233 0.903412 10.0228C0.844975 10.0228 0.786537 10.0231 0.728103 10.0238C0.648297 10.0247 0.568479 10.0243 0.48867 10.0238C0.421686 10.024 0.421686 10.024 0.353349 10.0242C0.196191 9.99227 0.138258 9.92807 0.0390534 9.8047C-0.00527528 9.64955 -0.0170887 9.56969 0.048819 9.4214C0.117178 9.33595 0.117178 9.33595 0.234366 9.25782C0.343368 9.24695 0.343368 9.24695 0.477162 9.24537C0.552226 9.24421 0.552226 9.24421 0.628807 9.24302C0.683433 9.24255 0.738059 9.2421 0.792685 9.24165C0.848569 9.24092 0.904452 9.24016 0.960334 9.23936C1.10733 9.23735 1.25432 9.23581 1.40132 9.23435C1.55135 9.23279 1.70138 9.23079 1.85142 9.22883C2.14573 9.22505 2.44004 9.22176 2.73437 9.21876C2.72666 9.19844 2.71895 9.17812 2.71101 9.15718C2.42704 8.40563 2.42704 8.40563 2.35107 8.06398C2.34333 8.03027 2.33559 7.99656 2.32761 7.96183C2.03488 6.63255 2.22439 5.28923 2.92235 4.11378C3.65782 2.9672 4.72514 2.25761 6.05468 1.95314C7.52846 1.63941 9.01874 1.9602 10.1855 2.93535Z" fill="#908F8F"/>
</g>
<defs>
<clipPath id="clip0_24_253">
<rect width="20" height="20" fill="white"/>
</clipPath>
</defs>
</svg>
