<svg width="28" height="29" viewBox="0 0 28 29" fill="#2DA74E" xmlns="http://www.w3.org/2000/svg">
<path d="M6.06536 1.78054C6.15475 1.77995 6.24414 1.77927 6.33353 1.77851C6.57361 1.77677 6.81368 1.77645 7.05377 1.77652C7.25492 1.77647 7.45608 1.77578 7.65723 1.77511C8.1317 1.77356 8.60616 1.77325 9.08063 1.77368C9.56914 1.77409 10.0576 1.77219 10.5461 1.7692C10.967 1.76672 11.3879 1.76577 11.8088 1.76603C12.0596 1.76616 12.3103 1.76569 12.5611 1.7637C12.7966 1.76189 13.0319 1.762 13.2674 1.76356C13.3536 1.76381 13.4397 1.76339 13.5259 1.76224C14.2562 1.75311 14.2562 1.75311 14.5052 1.97094C14.5752 2.04901 14.6437 2.12856 14.7111 2.20903C14.786 2.28542 14.8609 2.36177 14.9364 2.43741C15.0865 2.58822 15.2337 2.742 15.3816 2.89518C15.4482 2.96408 15.5149 3.03296 15.5816 3.10184C15.7616 3.28776 15.9415 3.47386 16.1212 3.66001C16.2336 3.77638 16.346 3.8927 16.4585 4.00901C16.8509 4.41494 17.2432 4.82102 17.6354 5.22723C18.0008 5.60577 18.3666 5.98398 18.7325 6.36205C19.047 6.68708 19.3613 7.01233 19.6755 7.33774C19.863 7.53194 20.0506 7.72604 20.2383 7.91992C20.4146 8.10196 20.5906 8.28427 20.7665 8.46679C20.8311 8.53375 20.8957 8.60061 20.9605 8.66736C21.0488 8.7584 21.1368 8.84978 21.2247 8.94126C21.2741 8.99233 21.3234 9.0434 21.3742 9.09601C21.5554 9.30528 21.6156 9.45006 21.6142 9.72913C21.6142 9.78241 21.6142 9.83569 21.6141 9.89058C21.6133 9.97617 21.6133 9.97617 21.6124 10.0635C21.6122 10.1516 21.6122 10.1516 21.612 10.2416C21.6114 10.4291 21.61 10.6167 21.6086 10.8042C21.608 10.9315 21.6075 11.0587 21.6071 11.1859C21.606 11.4977 21.6038 11.8094 21.6018 12.1211C21.2047 12.1211 20.8077 12.1211 20.3986 12.1211C20.3986 11.523 20.3986 10.9249 20.3986 10.3086C20.1713 10.3106 19.9439 10.3126 19.7097 10.3146C19.5261 10.3157 19.3424 10.3166 19.1588 10.3174C18.9662 10.3183 18.7737 10.3195 18.5812 10.3215C18.3592 10.3237 18.1372 10.3245 17.9153 10.3252C17.8477 10.3261 17.7802 10.327 17.7106 10.3279C16.6595 10.3281 15.6942 10.0433 14.8752 9.34575C14.8366 9.31501 14.7981 9.28427 14.7583 9.2526C13.998 8.61672 13.5202 7.62388 13.3986 6.627C13.3654 6.05584 13.3767 5.48251 13.3836 4.91062C13.3859 4.70136 13.3869 4.4921 13.3879 4.28283C13.3903 3.87475 13.394 3.4667 13.3986 3.05864C12.368 3.06208 11.3373 3.06647 10.3067 3.07199C9.82811 3.07454 9.34952 3.07677 8.87093 3.07826C8.45359 3.07957 8.03625 3.08147 7.61892 3.08406C7.39812 3.08541 7.17733 3.08647 6.95653 3.08683C6.7483 3.08717 6.54008 3.08831 6.33185 3.09004C6.25582 3.09053 6.17979 3.09075 6.10376 3.09064C5.23035 3.08985 4.41198 3.31299 3.77363 3.96489C3.32205 4.5352 3.00177 5.16607 3.00082 5.91834C3.00061 5.98047 3.0004 6.0426 3.00018 6.10662C3.00023 6.17457 3.00028 6.24252 3.00032 6.31253C3.00016 6.38496 3 6.45739 2.99983 6.53201C2.99939 6.73295 2.99929 6.93388 2.99925 7.13482C2.99915 7.35158 2.99874 7.56835 2.99837 7.78511C2.99763 8.25908 2.9973 8.73304 2.99706 9.20701C2.99691 9.50306 2.99667 9.79912 2.99643 10.0952C2.99576 10.9152 2.9952 11.7352 2.99501 12.5551C2.995 12.6076 2.99499 12.6601 2.99498 12.7141C2.99497 12.7667 2.99495 12.8193 2.99494 12.8735C2.99492 12.9801 2.99489 13.0867 2.99487 13.1932C2.99486 13.2461 2.99484 13.299 2.99483 13.3534C2.99461 14.2097 2.99366 15.066 2.99239 15.9222C2.99109 16.8017 2.99041 17.6812 2.99034 18.5607C2.99029 19.0544 2.98998 19.548 2.98899 20.0417C2.98814 20.4621 2.98787 20.8825 2.98832 21.3029C2.98853 21.5173 2.98848 21.7317 2.98771 21.946C2.98688 22.1788 2.98734 22.4116 2.98791 22.6444C2.98747 22.7116 2.98703 22.7788 2.98657 22.848C2.99136 23.6845 3.25247 24.487 3.82832 25.0918C4.42261 25.5966 5.04254 25.8898 5.81877 25.8938C5.87908 25.8942 5.87908 25.8942 5.94061 25.8946C6.07504 25.8955 6.20947 25.896 6.3439 25.8964C6.44039 25.897 6.53687 25.8976 6.63335 25.8981C6.89513 25.8997 7.1569 25.9009 7.41868 25.902C7.69231 25.9032 7.96593 25.9048 8.23956 25.9063C8.75765 25.9091 9.27574 25.9117 9.79383 25.9141C10.3837 25.9169 10.9735 25.92 11.5634 25.9232C12.7767 25.9296 13.99 25.9357 15.2033 25.9415C15.2033 26.3527 15.2033 26.7639 15.2033 27.1875C13.9055 27.1928 12.6077 27.1968 11.3099 27.1993C10.7072 27.2005 10.1045 27.202 9.50187 27.2046C8.97629 27.2069 8.45072 27.2084 7.92514 27.2089C7.64712 27.2092 7.36911 27.2098 7.09108 27.2115C6.82881 27.2131 6.56655 27.2135 6.30427 27.2132C6.20857 27.2132 6.11288 27.2137 6.01719 27.2146C4.79637 27.2252 3.75708 26.8551 2.86744 25.9671C2.07159 25.1293 1.72347 24.0603 1.72899 22.9031C1.72876 22.8274 1.72846 22.7518 1.7281 22.6761C1.72731 22.47 1.72754 22.264 1.72794 22.0579C1.7282 21.8349 1.72752 21.6119 1.72696 21.389C1.72602 20.9529 1.72597 20.5167 1.72626 20.0806C1.72648 19.7259 1.7264 19.3712 1.72611 19.0165C1.72607 18.9659 1.72603 18.9153 1.72598 18.8632C1.7259 18.7604 1.72582 18.6576 1.72573 18.5548C1.72498 17.5919 1.72528 16.629 1.72591 15.6661C1.72645 14.7866 1.72574 13.9071 1.72443 13.0275C1.7231 12.1229 1.72258 11.2183 1.72294 10.3137C1.72313 9.80648 1.72301 9.29922 1.72205 8.79196C1.72124 8.3601 1.72121 7.92825 1.72216 7.4964C1.72263 7.27638 1.72275 7.05638 1.72191 6.83636C1.72115 6.63436 1.72142 6.4324 1.72247 6.2304C1.72277 6.12396 1.72201 6.01752 1.72119 5.91109C1.73031 4.80356 2.15895 3.79809 2.89863 3.002C3.7957 2.1079 4.84811 1.77734 6.06536 1.78054ZM14.6018 3.96489C14.5977 4.2902 14.5947 4.61549 14.5927 4.94082C14.5919 5.05118 14.5908 5.16153 14.5894 5.27187C14.5761 6.32257 14.6448 7.30999 15.3798 8.12156C16.3228 9.01005 17.3487 9.08256 18.5598 9.06963C18.6538 9.06906 18.7478 9.06854 18.8417 9.06808C19.069 9.06685 19.2963 9.0649 19.5236 9.06255C19.2767 8.75609 19.0153 8.47129 18.7425 8.1895C18.6982 8.14359 18.654 8.09768 18.6084 8.05038C18.4632 7.89976 18.3179 7.74936 18.1725 7.59896C18.0713 7.49414 17.9701 7.3893 17.869 7.28446C17.6576 7.0654 17.446 6.84647 17.2345 6.6276C16.9896 6.37433 16.745 6.12085 16.5004 5.86727C16.2649 5.62305 16.0293 5.37899 15.7935 5.13501C15.6932 5.03118 15.593 4.92732 15.4928 4.82341C15.3534 4.67886 15.2138 4.53448 15.0741 4.39015C15.0324 4.34682 14.9907 4.30348 14.9477 4.25883C14.9099 4.21985 14.8721 4.18086 14.8331 4.1407C14.8001 4.10655 14.7671 4.07239 14.7331 4.03721C14.667 3.95854 14.667 3.95854 14.6018 3.96489Z" fill="#2DA74E"/>
<path d="M20.9453 14.8398C21.9041 15.6545 22.5324 16.6813 22.75 17.955C22.7722 18.207 22.7762 18.4562 22.7739 18.7091C22.7734 18.7759 22.7729 18.8427 22.7724 18.9116C22.752 19.9783 22.3765 20.785 21.875 21.6933C21.8967 21.7156 21.9185 21.7379 21.9409 21.7608C22.4697 22.3022 22.9977 22.8444 23.5249 23.3875C23.7799 23.6501 24.0351 23.9125 24.2909 24.1742C24.5376 24.4266 24.7836 24.6797 25.0292 24.9333C25.1232 25.0301 25.2174 25.1267 25.3118 25.223C25.4437 25.3575 25.5747 25.4929 25.7056 25.6286C25.7451 25.6685 25.7847 25.7085 25.8255 25.7497C25.8608 25.7867 25.8962 25.8237 25.9326 25.8618C25.9793 25.9098 25.9793 25.9098 26.0269 25.9587C26.0859 26.0547 26.0859 26.0547 26.0724 26.1741C25.994 26.378 25.834 26.5145 25.686 26.6671C25.6542 26.7016 25.6223 26.7362 25.5896 26.7718C25.5584 26.8042 25.5273 26.8366 25.4952 26.87C25.4669 26.8997 25.4387 26.9294 25.4095 26.96C25.3203 27.0175 25.3203 27.0175 25.2168 27.0035C25.0824 26.9538 25.0178 26.8952 24.9174 26.7907C24.8822 26.7544 24.8469 26.7181 24.8106 26.6807C24.7725 26.6406 24.7344 26.6006 24.6952 26.5593C24.6546 26.5173 24.614 26.4753 24.5722 26.4321C24.4381 26.293 24.3045 26.1534 24.171 26.0137C24.0782 25.9173 23.9853 25.8208 23.8924 25.7244C23.6478 25.4705 23.4038 25.2161 23.1598 24.9615C22.9109 24.7019 22.6614 24.4428 22.412 24.1836C21.9226 23.675 21.4338 23.1658 20.9453 22.6562C20.8939 22.6871 20.8424 22.7179 20.7895 22.7497C20.7207 22.7908 20.652 22.8318 20.5832 22.8728C20.5326 22.9032 20.5326 22.9032 20.481 22.9343C19.722 23.3862 18.9569 23.5954 18.081 23.5872C17.9843 23.5867 17.9843 23.5867 17.8855 23.5861C17.3963 23.5768 16.9757 23.517 16.5156 23.3359C16.4583 23.3147 16.401 23.2936 16.3419 23.2717C15.2058 22.8202 14.2634 21.8752 13.7607 20.7289C13.2866 19.5233 13.2138 18.1447 13.6914 16.9258C14.2095 15.6753 15.0816 14.7161 16.299 14.1869C17.8412 13.5678 19.6304 13.7936 20.9453 14.8398ZM15.3501 16.4718C14.8121 17.2136 14.4994 18.1552 14.6015 19.0879C14.777 20.1538 15.2295 21.0414 16.0781 21.6898C16.9112 22.2492 17.7993 22.4236 18.7757 22.2918C19.6878 22.0885 20.428 21.5237 20.9713 20.751C21.4864 19.9235 21.6857 18.9853 21.511 18.0139C21.2845 17.0333 20.7556 16.2083 19.9344 15.6587C18.3785 14.7253 16.5163 15.0438 15.3501 16.4718Z" fill="#2DA74E"/>
<path d="M5.79688 19.9375C7.74594 19.9375 9.695 19.9375 11.7031 19.9375C11.7031 20.3487 11.7031 20.7599 11.7031 21.1836C9.75406 21.1836 7.805 21.1836 5.79688 21.1836C5.79688 20.7724 5.79688 20.3612 5.79688 19.9375Z" fill="#2DA74E"/>
<path d="M5.79688 13.877C7.74594 13.877 9.695 13.877 11.7031 13.877C11.7031 14.2882 11.7031 14.6994 11.7031 15.123C9.75406 15.123 7.805 15.123 5.79688 15.123C5.79688 14.7118 5.79688 14.3006 5.79688 13.877Z" fill="#2DA74E"/>
<path d="M5.79688 7.81641C7.74594 7.81641 9.695 7.81641 11.7031 7.81641C11.7031 8.22762 11.7031 8.63883 11.7031 9.0625C9.75406 9.0625 7.805 9.0625 5.79688 9.0625C5.79688 8.65129 5.79688 8.24008 5.79688 7.81641Z" fill="#2DA74E"/>
</svg>
