<svg width="22" height="22" viewBox="0 0 22 22" fill="none" xmlns="http://www.w3.org/2000/svg">
<path d="M13.0625 2.92186C13.126 2.93602 13.126 2.93602 13.1909 2.95046C14.9243 3.34667 16.4066 4.17324 17.7461 5.32811C17.7794 5.35609 17.8128 5.38406 17.8471 5.41288C18.0178 5.55751 18.1675 5.70984 18.3119 5.88067C18.3963 5.97935 18.4846 6.07368 18.5732 6.16869C20.0696 7.83281 20.9625 10.1341 20.9821 12.3669C20.9834 12.415 20.9846 12.463 20.9859 12.5125C20.9863 12.5587 20.9866 12.6049 20.987 12.6524C20.988 12.7149 20.988 12.7149 20.9889 12.7786C20.9625 12.9252 20.911 12.969 20.7968 13.0625C20.6956 13.0841 20.6956 13.0841 20.5816 13.0843C20.5382 13.0848 20.4948 13.0853 20.4501 13.0858C20.3792 13.0853 20.3792 13.0853 20.3067 13.0847C20.2317 13.0852 20.2317 13.0852 20.1551 13.0856C19.9894 13.0864 19.8238 13.0859 19.6582 13.0853C19.5432 13.0854 19.4283 13.0856 19.3133 13.0858C19.0723 13.0861 18.8313 13.0857 18.5903 13.0849C18.3118 13.084 18.0333 13.0843 17.7547 13.0852C17.5155 13.086 17.2762 13.0861 17.037 13.0857C16.8941 13.0854 16.7513 13.0854 16.6084 13.0859C16.4492 13.0864 16.29 13.0857 16.1307 13.0847C16.0834 13.0851 16.0361 13.0854 15.9873 13.0858C15.9439 13.0853 15.9005 13.0848 15.8559 13.0843C15.8182 13.0842 15.7806 13.0842 15.7418 13.0841C15.6072 13.0553 15.5552 12.9951 15.4687 12.8906C15.4265 12.7752 15.4184 12.6618 15.4103 12.5396C15.3336 11.5265 15.0074 10.6932 14.3945 9.8828C14.3713 9.85167 14.3482 9.82054 14.3243 9.78847C14.01 9.39828 13.5553 9.06697 13.1054 8.85155C13.0913 8.90118 13.0771 8.95081 13.0625 9.00194C12.9927 9.20754 12.9073 9.40435 12.8154 9.60082C12.8021 9.63134 12.7887 9.66186 12.7749 9.6933C12.6938 9.86138 12.6578 9.91487 12.48 9.99241C12.3001 10.0159 12.2235 9.98233 12.0742 9.8828C12.0036 9.74155 12.0094 9.60574 12.0312 9.45311C12.0905 9.28228 12.1671 9.12149 12.2461 8.95897C12.2666 8.91544 12.2871 8.8719 12.3082 8.82705C12.3585 8.72034 12.4094 8.61396 12.4609 8.5078C12.4322 8.50213 12.4035 8.49645 12.3739 8.49061C12.3358 8.48304 12.2977 8.47548 12.2585 8.46769C12.2209 8.46024 12.1833 8.45279 12.1446 8.44512C12.0402 8.4237 11.9364 8.40026 11.8325 8.37621C10.7029 8.15627 9.48626 8.39215 8.52826 9.03501C8.40258 9.12725 8.2828 9.22326 8.16403 9.32421C8.1272 9.35412 8.09037 9.38403 8.05242 9.41484C7.26975 10.0778 6.73409 11.0986 6.61716 12.1172C6.61041 12.221 6.60416 12.3248 6.59836 12.4287C6.58439 12.6559 6.55985 12.8225 6.44528 13.0195C6.34023 13.072 6.27189 13.0682 6.15442 13.0688C6.11116 13.0691 6.06791 13.0694 6.02334 13.0697C5.95189 13.0699 5.95189 13.0699 5.87899 13.0701C5.82896 13.0704 5.77893 13.0707 5.72739 13.0709C5.56128 13.0718 5.39518 13.0723 5.22907 13.0727C5.17247 13.0729 5.11588 13.0731 5.05757 13.0733C4.78905 13.0741 4.52053 13.0747 4.25201 13.075C3.94193 13.0755 3.63187 13.0766 3.32179 13.0783C3.08219 13.0796 2.84258 13.0803 2.60297 13.0804C2.45983 13.0805 2.3167 13.081 2.17356 13.082C2.01389 13.083 1.85425 13.083 1.69457 13.0827C1.62338 13.0835 1.62338 13.0835 1.55075 13.0844C1.4855 13.0839 1.4855 13.0839 1.41894 13.0834C1.38118 13.0835 1.34343 13.0837 1.30453 13.0838C1.16906 13.0554 1.11716 12.9967 1.03122 12.8906C1.00898 12.7863 1.00898 12.7863 1.00839 12.6687C1.00804 12.6246 1.00769 12.5805 1.00732 12.5351C1.00812 12.4876 1.00892 12.4401 1.00974 12.3911C1.01026 12.3416 1.01078 12.292 1.01131 12.241C1.05125 10.4582 1.66667 8.64907 2.66403 7.17577C2.6813 7.15005 2.69857 7.12433 2.71636 7.09783C2.97043 6.72224 3.25302 6.3767 3.55293 6.03695C3.60153 5.98156 3.64925 5.92539 3.69679 5.86908C3.84051 5.69918 3.99195 5.55051 4.1619 5.40683C4.26058 5.32237 4.35491 5.23406 4.44992 5.1455C5.70423 4.01758 7.2998 3.27843 8.93747 2.92186C8.99759 2.90831 8.99759 2.90831 9.05893 2.89448C10.3337 2.61856 11.7919 2.63373 13.0625 2.92186ZM4.83866 5.81437C4.80442 5.85018 4.80442 5.85018 4.7695 5.88671C4.84066 6.07126 4.97986 6.19443 5.11764 6.33054C5.14447 6.35738 5.17131 6.38423 5.19896 6.41189C5.28757 6.50044 5.37648 6.58869 5.46539 6.67693C5.52695 6.73832 5.58848 6.79973 5.64999 6.86116C5.81185 7.02269 5.97397 7.18396 6.13614 7.34518C6.30161 7.50978 6.46684 7.67462 6.6321 7.83944C6.95631 8.16272 7.28079 8.48574 7.60544 8.80858C7.62871 8.79101 7.65198 8.77344 7.67596 8.75534C7.70666 8.73223 7.73736 8.70911 7.769 8.68529C7.79936 8.6624 7.82972 8.63952 7.861 8.61594C8.71949 7.9816 9.60292 7.74567 10.6562 7.56249C10.6562 6.21542 10.6562 4.86835 10.6562 3.48046C8.58426 3.48046 6.33617 4.36334 4.83866 5.81437ZM11.3437 3.48046C11.3437 4.82753 11.3437 6.1746 11.3437 7.56249C11.6131 7.60503 11.8825 7.64757 12.1601 7.6914C12.3633 7.74567 12.5622 7.79915 12.7617 7.86327C12.802 7.77736 12.8423 7.69141 12.8825 7.60546C12.8956 7.57778 12.9086 7.5501 12.922 7.52159C13.011 7.33186 13.0971 7.14108 13.1816 6.94935C13.2023 6.90296 13.223 6.85657 13.2443 6.80877C13.2857 6.71576 13.3267 6.62255 13.3672 6.52914C13.3864 6.48613 13.4057 6.44312 13.4255 6.39881C13.4425 6.36016 13.4595 6.32151 13.477 6.28168C13.544 6.17308 13.5867 6.14096 13.707 6.10155C13.9839 6.12065 13.9839 6.12065 14.0937 6.23046C14.1623 6.45602 14.1061 6.60931 14.0132 6.81591C13.9999 6.84693 13.9866 6.87796 13.9729 6.90992C13.8941 7.09225 13.8113 7.27269 13.7282 7.45305C13.7104 7.49185 13.6926 7.53064 13.6743 7.57061C13.6392 7.6467 13.6037 7.72259 13.5677 7.79825C13.5516 7.83289 13.5356 7.86753 13.519 7.90322C13.5045 7.9339 13.49 7.96458 13.475 7.99618C13.4378 8.08613 13.4378 8.08613 13.4922 8.20702C13.5575 8.26129 13.5575 8.26129 13.6392 8.30756C13.6691 8.32576 13.699 8.34395 13.7298 8.3627C13.7613 8.38134 13.7928 8.39998 13.8252 8.41918C13.8868 8.45614 13.9483 8.49323 14.0098 8.53046C14.0372 8.54674 14.0646 8.56302 14.0928 8.5798C14.1984 8.64898 14.296 8.72974 14.3945 8.80858C15.3304 7.87272 16.2662 6.93686 17.2304 5.97265C16.7189 4.94959 14.9451 4.27074 13.9269 3.92257C13.092 3.65175 12.2215 3.48046 11.3437 3.48046ZM4.08519 6.56447C3.5465 7.15165 3.11361 7.80002 2.74997 8.5078C2.73499 8.53626 2.72001 8.56471 2.70457 8.59403C2.10047 9.74968 1.76169 11.0732 1.76169 12.375C3.10876 12.375 4.45583 12.375 5.84372 12.375C5.88626 12.1056 5.9288 11.8362 5.97263 11.5586C6.17528 10.8301 6.43743 10.1015 6.95403 9.53234C7.05817 9.42414 7.05817 9.42414 7.03797 9.32439C6.97942 9.17651 6.85928 9.07624 6.74792 8.96632C6.72123 8.93947 6.69454 8.91262 6.66704 8.88496C6.57872 8.79629 6.48995 8.7081 6.40114 8.61992C6.33973 8.55854 6.27834 8.49712 6.21697 8.43569C6.08833 8.30705 5.95946 8.17863 5.83043 8.05038C5.66471 7.88563 5.49947 7.72041 5.33438 7.55503C5.2077 7.42821 5.08082 7.30161 4.95386 7.17508C4.89283 7.11421 4.83185 7.05329 4.77094 6.99231C4.68597 6.90732 4.60072 6.82261 4.51539 6.73798C4.49005 6.71254 4.46472 6.6871 4.43861 6.66088C4.2753 6.47331 4.2753 6.47331 4.08519 6.56447ZM17.4792 6.74193C17.4383 6.78238 17.4383 6.78238 17.3964 6.82364C17.3058 6.91326 17.2155 7.0032 17.1252 7.09319C17.0626 7.1554 17 7.21761 16.9374 7.27981C16.8061 7.41042 16.675 7.54121 16.5439 7.67211C16.3757 7.84015 16.2067 8.00748 16.0376 8.17465C15.908 8.30293 15.779 8.43169 15.65 8.5606C15.5879 8.62252 15.5256 8.68426 15.4632 8.74582C15.376 8.83183 15.2896 8.91849 15.2032 9.00534C15.164 9.04359 15.164 9.04359 15.124 9.08261C15.0449 9.16057 15.0449 9.16057 14.9531 9.28124C14.9734 9.45165 15.0639 9.5476 15.1706 9.6787C15.4062 9.98039 15.5699 10.3083 15.7265 10.6562C15.7474 10.7022 15.7682 10.7482 15.7896 10.7956C15.9995 11.2984 16.089 11.837 16.1562 12.375C17.5033 12.375 18.8504 12.375 20.2383 12.375C20.2383 12.0022 20.2257 11.6856 20.1684 11.3249C20.1608 11.2765 20.1531 11.228 20.1452 11.178C20.0689 10.7198 19.9562 10.28 19.8086 9.83983C19.7964 9.80338 19.7842 9.76693 19.7717 9.72937C19.3847 8.59544 18.7458 7.30139 17.832 6.48827C17.6789 6.48827 17.5828 6.63845 17.4792 6.74193Z" fill="#908F8F"/>
<path d="M12.5406 10.7897C12.9925 11.1759 13.3643 11.7312 13.4138 12.3396C13.4264 12.8207 13.4315 13.2579 13.2344 13.707C13.2166 13.7479 13.1989 13.7887 13.1806 13.8307C13.0436 14.1106 12.8629 14.3116 12.636 14.5236C12.5445 14.6021 12.5445 14.6021 12.5039 14.6953C12.5326 14.6993 12.5614 14.7033 12.591 14.7074C13.5216 14.9324 14.3705 15.754 14.8593 16.5494C15.2404 17.2041 15.4729 17.9372 15.4822 18.6968C15.4834 18.7311 15.4847 18.7654 15.4859 18.8007C15.4863 18.8339 15.4867 18.867 15.487 18.9012C15.488 18.946 15.488 18.946 15.4889 18.9917C15.4587 19.1212 15.4005 19.168 15.2969 19.25C15.1599 19.2718 15.1599 19.2718 14.9961 19.2723C14.9512 19.2727 14.9512 19.2727 14.9054 19.2732C14.8067 19.2739 14.7081 19.2734 14.6094 19.2728C14.5406 19.273 14.4719 19.2731 14.4032 19.2733C14.2593 19.2736 14.1154 19.2732 13.9715 19.2724C13.7872 19.2714 13.6028 19.272 13.4184 19.273C13.2766 19.2737 13.1348 19.2735 12.9929 19.273C12.9249 19.2729 12.857 19.273 12.789 19.2734C12.6939 19.2739 12.5989 19.2732 12.5039 19.2723C12.4498 19.2721 12.3958 19.272 12.3401 19.2718C12.1792 19.2462 12.1287 19.206 12.0312 19.0781C12.0084 18.9922 12.0084 18.9922 12.0097 18.9063C12.0091 18.8637 12.0091 18.8637 12.0084 18.8203C12.0419 18.6943 12.1028 18.6443 12.2031 18.5625C12.32 18.5418 12.32 18.5418 12.4553 18.543C12.5061 18.543 12.5568 18.543 12.6091 18.543C12.6637 18.5439 12.7182 18.5448 12.7745 18.5457C12.8305 18.546 12.8865 18.5462 12.9442 18.5465C13.0929 18.5471 13.2415 18.5488 13.3901 18.5507C13.5419 18.5525 13.6937 18.5533 13.8455 18.5541C14.1431 18.556 14.4407 18.5589 14.7383 18.5625C14.7063 18.4201 14.6736 18.2778 14.6407 18.1355C14.6318 18.0957 14.6229 18.0559 14.6137 18.0149C14.4661 17.3803 14.1739 16.861 13.75 16.3711C13.7254 16.3422 13.7008 16.3133 13.6755 16.2835C13.0361 15.5904 12.0395 15.2087 11.1126 15.1666C10.032 15.176 9.08794 15.557 8.3094 16.3077C7.80387 16.8316 7.49265 17.4843 7.34159 18.1926C7.32995 18.2461 7.32995 18.2461 7.31807 18.3007C7.29912 18.3879 7.28039 18.4752 7.2617 18.5625C7.29308 18.5621 7.32446 18.5618 7.35679 18.5614C7.65266 18.5579 7.94853 18.5553 8.24442 18.5536C8.39654 18.5527 8.54864 18.5515 8.70075 18.5495C8.87567 18.5473 9.05057 18.5465 9.2255 18.5457C9.30735 18.5444 9.30735 18.5444 9.39086 18.543C9.46697 18.543 9.46697 18.543 9.54462 18.543C9.61161 18.5424 9.61161 18.5424 9.67994 18.5418C9.82693 18.5678 9.8771 18.6191 9.96873 18.7344C9.99156 18.8203 9.99156 18.8203 9.99021 18.9063C9.99088 18.9488 9.99088 18.9488 9.99156 18.9922C9.95763 19.1199 9.89995 19.1682 9.79685 19.25C9.65989 19.2718 9.65989 19.2718 9.49607 19.2723C9.45119 19.2727 9.45119 19.2727 9.40539 19.2732C9.3067 19.2739 9.20805 19.2734 9.10935 19.2728C9.04065 19.273 8.97194 19.2731 8.90324 19.2733C8.75933 19.2736 8.61544 19.2732 8.47154 19.2724C8.28716 19.2714 8.10282 19.272 7.91844 19.273C7.77659 19.2737 7.63476 19.2735 7.49291 19.273C7.42493 19.2729 7.35695 19.273 7.28897 19.2734C7.19392 19.2739 7.09893 19.2732 7.00389 19.2723C6.94983 19.2721 6.89577 19.272 6.84007 19.2718C6.7031 19.25 6.7031 19.25 6.5997 19.1729C6.49686 19.0306 6.5075 18.8897 6.51243 18.721C6.51306 18.6866 6.51369 18.6522 6.51434 18.6167C6.55239 17.3951 7.14667 16.3517 8.01113 15.5196C8.36606 15.1923 8.99773 14.6953 9.49607 14.6953C9.47735 14.674 9.45863 14.6527 9.43934 14.6307C9.38549 14.5693 9.33185 14.5077 9.27838 14.4459C9.22912 14.39 9.17896 14.3348 9.12698 14.2814C8.65357 13.7816 8.56844 13.1369 8.5803 12.4814C8.60732 11.8224 8.93438 11.2732 9.41014 10.8281C10.3516 10.1083 11.5774 10.0794 12.5406 10.7897ZM9.78074 11.4995C9.41277 11.8967 9.30312 12.3517 9.31245 12.8745C9.33265 13.3401 9.55501 13.691 9.88565 14.0067C10.2719 14.3321 10.6793 14.4329 11.1772 14.411C11.6914 14.3602 12.0682 14.1021 12.3948 13.7136C12.6833 13.3101 12.719 12.8557 12.6758 12.375C12.5769 11.91 12.2914 11.5261 11.9023 11.2578C11.1855 10.8746 10.3949 10.938 9.78074 11.4995Z" fill="#908F8F"/>
<path d="M11.1719 18.5625C11.2793 18.6269 11.2793 18.6269 11.3438 18.7344C11.3778 18.9071 11.3705 19.0336 11.2793 19.1855C11.1274 19.2767 11.0009 19.284 10.8281 19.25C10.7207 19.1855 10.7207 19.1855 10.6563 19.0781C10.6223 18.9053 10.6296 18.7789 10.7207 18.6269C10.8727 18.5358 10.9991 18.5285 11.1719 18.5625Z" fill="#908F8F"/>
</svg>
