<svg width="22" height="22" viewBox="0 0 22 22" fill="none" xmlns="http://www.w3.org/2000/svg">
<path d="M6.38688 9.74887C6.85657 10.1435 7.21428 10.7431 7.27119 11.3609C7.30633 12.1309 7.18166 12.7518 6.6655 13.3472C6.62108 13.3958 6.57645 13.4443 6.53123 13.4922C6.56036 13.5052 6.58949 13.5182 6.61951 13.5316C6.74794 13.5894 6.87596 13.6481 7.00388 13.707C7.04132 13.724 7.07877 13.741 7.11735 13.7586C7.38029 13.883 7.59691 14.0373 7.82029 14.2227C7.86371 14.2554 7.90714 14.2882 7.95188 14.322C8.18962 14.5395 8.39619 14.7987 8.55076 15.082C8.55076 15.1104 8.55076 15.1387 8.55076 15.168C8.70673 15.1254 8.86271 15.0829 9.02341 15.0391C8.97378 14.9983 8.92416 14.9575 8.87302 14.9155C8.2986 14.4068 7.89922 13.669 7.82583 12.8992C7.77227 11.9855 7.99875 11.1295 8.60984 10.4333C8.6754 10.3638 8.74161 10.2948 8.80857 10.2266C8.83449 10.1996 8.86041 10.1726 8.88712 10.1448C9.48183 9.57467 10.3333 9.35028 11.1366 9.35796C12.041 9.40881 12.7954 9.80258 13.4116 10.4516C13.7724 10.871 14.0299 11.4029 14.1367 11.9453C14.1464 11.9932 14.1562 12.041 14.1662 12.0903C14.2461 13.0171 14.0351 13.8731 13.4359 14.601C13.2898 14.7666 13.154 14.906 12.9765 15.0391C13.1325 15.0816 13.2885 15.1241 13.4492 15.168C13.4776 15.0971 13.5059 15.0262 13.5351 14.9531C13.5939 14.8645 13.5939 14.8645 13.6587 14.7812C13.6798 14.7538 13.701 14.7263 13.7228 14.698C13.7575 14.6541 13.7575 14.6541 13.7929 14.6094C13.8195 14.5743 13.8461 14.5393 13.8735 14.5031C14.2813 14.0181 14.8408 13.7424 15.4258 13.5352C15.4258 13.415 15.3745 13.3894 15.2915 13.3042C14.7965 12.7501 14.6907 12.0745 14.7292 11.3589C14.778 10.8155 15.0662 10.2504 15.4687 9.88281C16.0893 9.38351 16.7333 9.1854 17.5312 9.23828C18.1167 9.32033 18.5815 9.59585 18.9922 10.0117C19.0164 10.035 19.0406 10.0582 19.0655 10.0822C19.5128 10.5495 19.6531 11.1582 19.6495 11.7822C19.6336 12.4465 19.376 13.0195 18.9062 13.4922C19.0284 13.5737 19.1351 13.6196 19.2715 13.6721C19.7311 13.8621 20.0996 14.133 20.4531 14.4805C20.48 14.5068 20.5069 14.5332 20.5347 14.5604C21.0593 15.1158 21.3601 15.8999 21.3642 16.6573C21.3644 16.6928 21.3647 16.7283 21.3649 16.7649C21.3653 16.8398 21.3656 16.9147 21.3658 16.9895C21.3662 17.104 21.3675 17.2185 21.3689 17.3329C21.3692 17.4058 21.3694 17.4787 21.3695 17.5516C21.3703 17.6028 21.3703 17.6028 21.3712 17.6551C21.3706 17.7952 21.3653 17.8993 21.2992 18.0243C21.1823 18.1297 21.0797 18.1302 20.9258 18.1328C20.7906 18.0787 20.7299 18.0407 20.6628 17.9109C20.6165 17.7619 20.614 17.6336 20.6132 17.4775C20.6124 17.4162 20.6115 17.3548 20.6105 17.2934C20.6096 17.198 20.6089 17.1026 20.6086 17.0073C20.605 16.2031 20.3777 15.5019 19.8086 14.9102C19.1913 14.3827 18.5109 14.1735 17.708 14.1725C17.6677 14.1723 17.6273 14.1722 17.5858 14.172C17.5008 14.1718 17.4157 14.1717 17.3307 14.1717C17.2021 14.1716 17.0735 14.1709 16.9449 14.17C16.0305 14.1673 15.1985 14.2915 14.5073 14.9504C14.3573 15.1082 14.2418 15.2787 14.1367 15.4687C14.1653 15.486 14.194 15.5032 14.2235 15.5209C15.2784 16.1716 16.0425 17.1015 16.3711 18.3047C16.3848 18.3542 16.3848 18.3542 16.3988 18.4047C16.4555 18.6448 16.4742 18.889 16.4919 19.1345C16.4947 19.1679 16.4975 19.2013 16.5004 19.2358C16.5123 19.4351 16.5058 19.5626 16.3711 19.7227C16.2134 19.7898 16.1173 19.8201 15.9494 19.7791C15.8554 19.7227 15.8554 19.7227 15.7695 19.5938C15.7513 19.4986 15.7513 19.4986 15.7405 19.3876C15.7338 19.3263 15.7338 19.3263 15.7271 19.2638C15.7225 19.2202 15.7179 19.1767 15.7131 19.1318C15.5878 18.0889 15.1529 17.1668 14.3193 16.5054C13.7087 16.0768 12.9981 15.768 12.2445 15.7619C12.2154 15.7616 12.1863 15.7614 12.1563 15.7611C12.0606 15.7602 11.9648 15.7597 11.8691 15.7593C11.836 15.7591 11.803 15.7589 11.769 15.7588C11.5938 15.7579 11.4186 15.7573 11.2434 15.7568C11.0643 15.7564 10.8853 15.7549 10.7063 15.7532C10.567 15.7521 10.4278 15.7517 10.2885 15.7516C10.2226 15.7513 10.1567 15.7509 10.0909 15.75C9.0548 15.7381 8.11591 16.0949 7.34763 16.8008C6.64277 17.5409 6.3785 18.4044 6.25562 19.3932C6.21646 19.6554 6.21646 19.6554 6.072 19.7764C5.89121 19.8173 5.79731 19.7989 5.62888 19.7227C5.48641 19.547 5.48488 19.3912 5.50266 19.1748C5.505 19.1429 5.50735 19.111 5.50976 19.0781C5.59958 18.0465 6.01763 17.1454 6.7031 16.3711C6.72941 16.3412 6.75572 16.3113 6.78283 16.2805C6.956 16.0958 7.14887 15.9448 7.353 15.7964C7.37819 15.7779 7.40337 15.7595 7.42932 15.7405C7.58271 15.6322 7.72536 15.5617 7.90623 15.5117C7.46322 14.8497 6.89781 14.3859 6.10154 14.2227C5.84241 14.1844 5.59051 14.1728 5.32877 14.1725C5.26839 14.1723 5.26839 14.1723 5.20679 14.172C5.122 14.1718 5.03721 14.1717 4.95242 14.1717C4.82419 14.1716 4.69598 14.1708 4.56775 14.17C3.73788 14.1675 3.03728 14.2539 2.36326 14.7812C2.31894 14.8132 2.27463 14.8451 2.22898 14.8779C1.781 15.3064 1.45199 15.9136 1.40561 16.5369C1.4048 16.5931 1.404 16.6493 1.40317 16.7073C1.40254 16.7378 1.40192 16.7682 1.40127 16.7996C1.39862 16.9284 1.39689 17.0572 1.3951 17.1859C1.39364 17.2806 1.39171 17.3753 1.38975 17.47C1.38894 17.5261 1.38814 17.5822 1.38731 17.64C1.37131 17.8334 1.34411 17.9567 1.19504 18.0845C1.03445 18.1487 0.938922 18.1358 0.773412 18.0898C0.656888 17.9827 0.644511 17.918 0.627145 17.7588C0.626004 17.6948 0.625629 17.6307 0.625875 17.5667C0.62565 17.5322 0.625425 17.4977 0.625193 17.4622C0.624917 17.3891 0.624974 17.3159 0.62534 17.2428C0.625701 17.1331 0.624478 17.0235 0.623106 16.9138C0.620537 16.333 0.701519 15.804 0.977514 15.2834C0.992248 15.2549 1.00698 15.2264 1.02216 15.197C1.15489 14.948 1.31329 14.7317 1.50388 14.5234C1.52925 14.4941 1.55462 14.4648 1.58075 14.4346C1.94549 14.0381 2.43153 13.7851 2.92185 13.5781C2.97937 13.5499 3.03675 13.5215 3.09372 13.4922C3.0688 13.4645 3.04387 13.4369 3.01819 13.4084C2.48327 12.7896 2.30477 12.1499 2.36326 11.3437C2.44458 10.7587 2.7208 10.2928 3.13669 9.88281C3.16095 9.85811 3.18521 9.8334 3.21021 9.80795C4.08541 8.98398 5.46082 9.08857 6.38688 9.74887ZM3.49119 10.5569C3.14326 10.9776 3.0519 11.4559 3.09372 11.9883C3.19689 12.4973 3.48925 12.8924 3.91013 13.1914C4.35136 13.4309 4.86133 13.4936 5.34975 13.3673C5.85313 13.1667 6.16519 12.8745 6.41625 12.3953C6.59069 11.9883 6.60013 11.5056 6.4614 11.0859C6.25873 10.6126 5.89091 10.2488 5.41404 10.0547C4.72893 9.78064 3.98041 10.0413 3.49119 10.5569ZM15.8447 10.5837C15.4912 11.0189 15.4199 11.4881 15.4687 12.0312C15.574 12.5263 15.8853 12.8948 16.2851 13.1914C16.7117 13.4286 17.1931 13.4781 17.6694 13.3769C18.1344 13.2197 18.519 12.8947 18.7478 12.4583C18.9371 12.0365 18.9864 11.5814 18.8364 11.137C18.6154 10.6108 18.2912 10.278 17.7682 10.0523C17.0516 9.78305 16.3448 10.0455 15.8447 10.5837ZM9.53904 10.5703C9.51101 10.5896 9.48298 10.609 9.45411 10.6289C8.95927 11.0119 8.6546 11.6078 8.56267 12.2181C8.4914 12.8997 8.67976 13.5548 9.10935 14.0937C9.60744 14.6685 10.2414 14.948 10.9919 15.0095C11.6955 14.9837 12.3247 14.6889 12.8047 14.1797C13.2389 13.7028 13.468 13.0999 13.4583 12.4551C13.4071 11.761 13.1227 11.1433 12.6002 10.6801C11.6809 9.9528 10.5033 9.89832 9.53904 10.5703Z" fill="#908F8F"/>
<path d="M10.4267 2.32815C10.512 2.44374 10.5011 2.53599 10.5017 2.6785C10.5023 2.73471 10.5028 2.79092 10.5034 2.84884C10.5033 2.91028 10.5032 2.97173 10.503 3.03317C10.5032 3.09615 10.5034 3.15914 10.5037 3.22213C10.5041 3.35415 10.504 3.48616 10.5035 3.61819C10.503 3.7873 10.5039 3.95637 10.5052 4.12548C10.506 4.25557 10.5059 4.38565 10.5057 4.51574C10.5057 4.57808 10.506 4.64042 10.5065 4.70276C10.5071 4.78997 10.5066 4.87719 10.5059 4.9644C10.5059 5.01401 10.5059 5.06362 10.5059 5.11473C10.4797 5.26991 10.4358 5.31924 10.3125 5.41407C10.1943 5.45347 10.1252 5.46172 10.0037 5.45973C9.9496 5.45884 9.89554 5.45796 9.83984 5.45704C9.95056 5.62055 10.0613 5.78402 10.1721 5.94747C10.2097 6.00288 10.2472 6.0583 10.2848 6.11372C10.3392 6.19418 10.3938 6.2746 10.4483 6.35502C10.466 6.38122 10.4838 6.40742 10.502 6.43441C10.6337 6.62836 10.7687 6.81972 10.9062 7.00956C10.957 7.08986 10.957 7.08986 10.957 7.17579C10.9854 7.17579 11.0138 7.17579 11.043 7.17579C11.0523 7.14732 11.0616 7.11885 11.0712 7.08952C11.1484 6.91746 11.2546 6.7747 11.3652 6.62257C11.6095 6.28201 11.8437 5.93588 12.0742 5.58595C12.1168 5.52214 12.1168 5.52214 12.1602 5.45704C12.0817 5.46103 12.0817 5.46103 12.0017 5.4651C11.8336 5.4654 11.7375 5.43207 11.6016 5.32814C11.4831 5.20968 11.5042 5.14075 11.5031 4.97484C11.5026 4.91862 11.502 4.86241 11.5015 4.80449C11.5013 4.74282 11.5013 4.68115 11.5012 4.61949C11.5009 4.55644 11.5006 4.49339 11.5003 4.43034C11.4998 4.29807 11.4996 4.16579 11.4997 4.03351C11.4997 3.86406 11.4985 3.69465 11.4971 3.52521C11.4961 3.39493 11.4959 3.26467 11.496 3.13439C11.4959 3.07193 11.4955 3.00947 11.4948 2.94701C11.494 2.85959 11.4943 2.77216 11.4947 2.68474C11.4946 2.635 11.4945 2.58526 11.4944 2.53401C11.5202 2.37897 11.565 2.32963 11.6875 2.23439C11.816 2.18826 11.8829 2.18633 12.0151 2.22096C12.132 2.28555 12.1768 2.3357 12.2461 2.44923C12.2616 2.55636 12.2616 2.55636 12.2607 2.67779C12.2607 2.72338 12.2607 2.76896 12.2607 2.81592C12.26 2.86485 12.2594 2.91377 12.2587 2.96418C12.2585 3.01449 12.2583 3.06479 12.2581 3.11662C12.2574 3.27731 12.2558 3.43797 12.2542 3.59864C12.2535 3.70758 12.2529 3.81651 12.2524 3.92544C12.251 4.19249 12.2488 4.45953 12.2461 4.72657C12.2699 4.72567 12.2938 4.72477 12.3183 4.72385C12.4267 4.72026 12.5351 4.71803 12.6436 4.71583C12.6811 4.71439 12.7186 4.71295 12.7572 4.71147C13.0362 4.70721 13.0362 4.70721 13.1719 4.80714C13.2493 4.9203 13.2773 4.97487 13.2773 5.11329C13.1457 5.41226 12.9659 5.6725 12.7805 5.94044C12.732 6.01109 12.6835 6.08174 12.6351 6.1524C12.6012 6.2018 12.5673 6.25118 12.5333 6.30054C12.4068 6.48454 12.2812 6.66913 12.156 6.85403C12.1379 6.88074 12.1198 6.90746 12.1011 6.93498C12.0303 7.03967 11.9594 7.14437 11.8885 7.24907C11.7789 7.41107 11.6689 7.57281 11.5586 7.73439C11.5297 7.77693 11.5008 7.81948 11.471 7.86331C11.4308 7.92188 11.4308 7.92188 11.3897 7.98162C11.3663 8.01594 11.3428 8.05026 11.3186 8.08562C11.2578 8.16407 11.2578 8.16407 11.1719 8.20704C10.9276 8.23107 10.9276 8.23107 10.8281 8.20704C10.6775 8.06965 10.5623 7.92751 10.4521 7.75654C10.4226 7.71121 10.393 7.66587 10.3625 7.61916C10.3318 7.57211 10.3011 7.52505 10.2695 7.47657C10.2071 7.38399 10.1444 7.29157 10.0815 7.19929C10.049 7.15143 10.0164 7.10357 9.98384 7.0557C9.96734 7.03147 9.95085 7.00724 9.93386 6.98228C9.79107 6.77237 9.64872 6.56215 9.50634 6.35197C9.45399 6.27472 9.40159 6.1975 9.34919 6.12029C9.25281 5.9782 9.1569 5.8358 9.06104 5.69337C9.01717 5.62879 9.01717 5.62879 8.97241 5.56291C8.94571 5.5231 8.91902 5.48329 8.89151 5.44227C8.85644 5.3903 8.85644 5.3903 8.82066 5.33728C8.76677 5.24418 8.73555 5.17683 8.72266 5.07032C8.82498 4.78283 8.82498 4.78283 8.9375 4.72657C8.99974 4.72299 9.06214 4.72196 9.12448 4.72238C9.16104 4.72252 9.1976 4.72265 9.23526 4.7228C9.27348 4.72316 9.3117 4.72352 9.35107 4.72389C9.38963 4.72408 9.42818 4.72428 9.4679 4.72448C9.56324 4.72498 9.65857 4.72569 9.75391 4.72657C9.75352 4.69852 9.75314 4.67047 9.75275 4.64156C9.74895 4.34951 9.74635 4.05746 9.74446 3.76539C9.7436 3.6564 9.74243 3.54741 9.74094 3.43842C9.73885 3.28174 9.73788 3.12508 9.73712 2.96838C9.73623 2.91967 9.73535 2.87097 9.73443 2.82079C9.73434 2.48203 9.73434 2.48203 9.83586 2.31188C10.0321 2.14276 10.2173 2.17888 10.4267 2.32815Z" fill="#908F8F"/>
<path d="M15.9065 4.81787C16.1677 4.87782 16.3161 5.05656 16.5 5.24219C16.5569 5.29862 16.6139 5.35501 16.6709 5.41138C16.8296 5.56895 16.9874 5.72752 17.1445 5.88672C17.3056 5.81984 17.4062 5.72029 17.5276 5.59651C17.5673 5.55627 17.6071 5.51603 17.6481 5.47457C17.6897 5.43204 17.7313 5.38949 17.7729 5.34692C17.8548 5.26348 17.9369 5.18021 18.019 5.097C18.0553 5.05997 18.0915 5.02294 18.1289 4.98478C18.2449 4.87329 18.285 4.8577 18.447 4.83936C18.6055 4.85547 18.6055 4.85547 18.7317 4.94678C18.8203 5.07031 18.8203 5.07031 18.8445 5.19653C18.7946 5.46793 18.5922 5.65495 18.4014 5.84106C18.3788 5.86344 18.3563 5.88581 18.333 5.90886C18.1775 6.06182 18.0166 6.20588 17.8461 6.34209C17.7743 6.40411 17.7743 6.40411 17.7891 6.53125C17.8818 6.63697 17.8818 6.63697 18.0037 6.74794C18.0486 6.79097 18.0934 6.83402 18.1383 6.8771C18.2092 6.94455 18.2803 7.01173 18.3519 7.07844C18.4209 7.14305 18.489 7.20859 18.557 7.27431C18.5981 7.31309 18.6393 7.35187 18.6817 7.39183C18.8075 7.55982 18.8159 7.65499 18.8203 7.86328C18.7405 8.01328 18.6862 8.06387 18.5276 8.12378C18.1392 8.11616 17.8709 7.7451 17.6199 7.4873C17.5778 7.44459 17.5357 7.4019 17.4936 7.35924C17.3912 7.2554 17.2892 7.15128 17.1875 7.04688C17.0145 7.18946 16.853 7.33622 16.6972 7.49754C16.6645 7.53141 16.6317 7.56528 16.5979 7.60018C16.5304 7.67047 16.4631 7.74108 16.3962 7.812C16.3635 7.8456 16.3308 7.87919 16.2971 7.9138C16.2534 7.95961 16.2534 7.95961 16.2088 8.00634C16.0902 8.09551 16.0023 8.11027 15.8555 8.12109C15.6902 8.07602 15.6519 8.05211 15.5547 7.90625C15.5305 7.76929 15.5305 7.76929 15.5547 7.60547C15.6093 7.52787 15.6093 7.52787 15.6826 7.44753C15.7098 7.4176 15.7371 7.38767 15.7652 7.35684C15.9204 7.19328 16.0792 7.03354 16.2395 6.875C16.273 6.84171 16.3065 6.80842 16.341 6.77412C16.4225 6.69307 16.5042 6.61211 16.5859 6.53125C16.5191 6.37017 16.4195 6.26959 16.2957 6.14822C16.2555 6.10845 16.2152 6.06868 16.1738 6.02771C16.1313 5.98607 16.0887 5.94444 16.0461 5.90283C15.9627 5.82095 15.8794 5.73889 15.7962 5.65677C15.7592 5.62051 15.7222 5.58425 15.684 5.54689C15.5725 5.43086 15.5569 5.39078 15.5386 5.22876C15.5547 5.07031 15.5547 5.07031 15.6433 4.94409C15.7695 4.85547 15.7695 4.85547 15.9065 4.81787Z" fill="#908F8F"/>
<path d="M3.69531 4.85547C3.77317 4.90986 3.77317 4.90986 3.85342 4.9832C3.88333 5.01049 3.91323 5.03777 3.94404 5.06589C4.10744 5.22127 4.26724 5.37996 4.42578 5.54028C4.45907 5.57377 4.49236 5.60725 4.52666 5.64175C4.60772 5.72331 4.68867 5.80496 4.76953 5.88672C4.93062 5.81984 5.03119 5.72029 5.15256 5.59651C5.19233 5.55627 5.2321 5.51603 5.27307 5.47457C5.31471 5.43204 5.35634 5.38949 5.39795 5.34692C5.47983 5.26348 5.56189 5.18021 5.64401 5.097C5.68027 5.05997 5.71653 5.02294 5.75389 4.98478C5.86992 4.87329 5.91 4.8577 6.07202 4.83936C6.23047 4.85547 6.23047 4.85547 6.35669 4.94409C6.44531 5.07031 6.44531 5.07031 6.47754 5.21265C6.4047 5.57078 6.01296 5.85191 5.7605 6.10156C5.72702 6.13485 5.69353 6.16814 5.65903 6.20244C5.57748 6.2835 5.49582 6.36445 5.41406 6.44531C5.48094 6.6064 5.58049 6.70697 5.70427 6.82834C5.74451 6.86811 5.78475 6.90788 5.82621 6.94885C5.86874 6.99049 5.91129 7.03212 5.95386 7.07373C6.0373 7.15561 6.12057 7.23767 6.20378 7.31979C6.24081 7.35605 6.27784 7.39231 6.316 7.42967C6.42916 7.54744 6.44345 7.5853 6.45874 7.75049C6.44531 7.90625 6.44531 7.90625 6.37549 8.0083C6.24926 8.09467 6.16861 8.11797 6.01562 8.12109C5.83821 8.03261 5.71166 7.91308 5.57301 7.77281C5.55234 7.75201 5.53166 7.73121 5.51035 7.70978C5.44493 7.64388 5.37981 7.57768 5.3147 7.51147C5.27015 7.4665 5.22559 7.42154 5.18101 7.37661C5.07226 7.26692 4.96379 7.15697 4.85547 7.04688C4.63071 7.23662 4.41416 7.43322 4.2002 7.63501C4.15467 7.67776 4.15467 7.67776 4.10822 7.72137C3.95123 7.8675 3.95123 7.8675 3.80093 8.02035C3.70103 8.11248 3.61358 8.11577 3.48047 8.12109C3.32883 8.05217 3.27303 8.00329 3.17969 7.86328C3.15552 7.7478 3.15552 7.7478 3.17969 7.60547C3.37922 7.32878 3.64427 7.0927 3.88599 6.85352C3.92152 6.81818 3.95705 6.78284 3.99366 6.74643C4.08031 6.66028 4.16706 6.57423 4.25391 6.48828C4.07494 6.27457 3.88837 6.07431 3.68994 5.87866C3.66385 5.85277 3.63776 5.82687 3.61089 5.80019C3.58546 5.77496 3.56004 5.74973 3.53384 5.72374C3.50974 5.69977 3.48563 5.67579 3.4608 5.65109C3.4056 5.59682 3.34926 5.54373 3.29265 5.49094C3.18455 5.37221 3.18245 5.27053 3.17969 5.11328C3.29657 4.85725 3.41865 4.81977 3.69531 4.85547Z" fill="#908F8F"/>
</svg>
