<svg width="23" height="24" viewBox="0 0 23 24" fill="none" xmlns="http://www.w3.org/2000/svg">
<path d="M15.5448 6.01387C15.5893 6.01355 15.6338 6.01323 15.6797 6.0129C15.7522 6.01307 15.7522 6.01307 15.8262 6.01324C15.8775 6.01301 15.9288 6.01278 15.9816 6.01254C16.1512 6.01192 16.3208 6.01196 16.4904 6.01207C16.6082 6.01189 16.7261 6.0117 16.844 6.01148C17.0911 6.01111 17.3382 6.01115 17.5852 6.0114C17.8705 6.01167 18.1557 6.01112 18.441 6.01016C18.7159 6.00927 18.9907 6.00914 19.2656 6.00929C19.3823 6.00927 19.4991 6.00903 19.6158 6.00858C19.7791 6.00803 19.9423 6.00833 20.1055 6.00885C20.1538 6.00851 20.202 6.00817 20.2517 6.00781C20.5329 6.0098 20.7436 6.03109 20.9625 6.22615C21.1252 6.43129 21.1636 6.56838 21.1645 6.82518C21.1648 6.86844 21.165 6.9117 21.1653 6.95627C21.1653 7.00343 21.1654 7.0506 21.1654 7.0992C21.1657 7.1491 21.1659 7.19901 21.1661 7.25043C21.1668 7.41566 21.1671 7.58089 21.1673 7.74612C21.1676 7.86093 21.1678 7.97575 21.1681 8.09056C21.1685 8.3006 21.1688 8.51064 21.1689 8.72068C21.1691 9.02934 21.1699 9.33799 21.1712 9.64665C21.1723 9.91442 21.1727 10.1822 21.1727 10.45C21.1729 10.5637 21.1732 10.6774 21.1738 10.7911C21.1746 10.9502 21.1745 11.1094 21.1742 11.2685C21.1746 11.3154 21.175 11.3623 21.1755 11.4106C21.1738 11.6998 21.1539 11.942 20.9545 12.1683C20.6975 12.3589 20.5333 12.3943 20.2148 12.3596C19.9937 12.2531 19.8845 12.1225 19.7656 11.9103C19.7482 11.7881 19.7402 11.6841 19.7411 11.5622C19.7406 11.5284 19.7402 11.4947 19.7397 11.4599C19.7384 11.349 19.7383 11.2382 19.7383 11.1274C19.7376 11.0502 19.7368 10.973 19.736 10.8959C19.734 10.6934 19.7331 10.4909 19.7325 10.2884C19.7316 10.0815 19.7297 9.87463 19.7279 9.66776C19.7245 9.2623 19.7223 8.85683 19.7207 8.45136C19.6878 8.48438 19.6548 8.51741 19.6209 8.55143C18.82 9.35435 18.0188 10.157 17.2173 10.9594C16.8298 11.3474 16.4423 11.7355 16.055 12.1239C15.7175 12.4622 15.3798 12.8005 15.042 13.1385C14.8631 13.3176 14.6842 13.4967 14.5055 13.676C14.3375 13.8447 14.1692 14.0132 14.0007 14.1815C13.9388 14.2434 13.877 14.3054 13.8153 14.3674C13.7312 14.452 13.6468 14.5363 13.5624 14.6205C13.5379 14.6452 13.5134 14.67 13.4882 14.6955C13.2886 14.8935 13.1572 14.9779 12.8757 14.9819C12.8346 14.9832 12.7935 14.9844 12.7511 14.9857C12.4528 14.9375 12.2423 14.6867 12.0384 14.4804C12.0081 14.4502 11.9778 14.4199 11.9467 14.3887C11.8473 14.2893 11.7482 14.1895 11.6492 14.0898C11.5801 14.0205 11.511 13.9513 11.4418 13.882C11.2604 13.7003 11.0792 13.5182 10.8981 13.3361C10.7131 13.1502 10.5278 12.9645 10.3426 12.7788C9.97943 12.4147 9.61658 12.0503 9.25391 11.6857C9.07488 11.7577 8.95511 11.8828 8.82219 12.0177C8.79724 12.0427 8.7723 12.0676 8.7466 12.0934C8.66304 12.1771 8.57981 12.2611 8.49656 12.3452C8.43673 12.4053 8.37688 12.4653 8.31701 12.5253C8.1881 12.6547 8.05932 12.7842 7.93066 12.9138C7.72724 13.1186 7.52345 13.3231 7.31961 13.5275C6.81334 14.0353 6.3075 14.5435 5.80187 15.0519C5.40893 15.4471 5.01585 15.842 4.62229 16.2365C4.41958 16.4398 4.21718 16.6433 4.01501 16.8471C3.88922 16.9737 3.76316 17.1001 3.63701 17.2264C3.57853 17.2851 3.52016 17.3438 3.46192 17.4027C3.38245 17.4831 3.30257 17.563 3.22258 17.6428C3.18809 17.678 3.18809 17.678 3.1529 17.7139C2.96452 17.9004 2.82629 17.968 2.56335 17.9888C2.31275 17.9808 2.16354 17.8911 1.98499 17.7165C1.87133 17.5476 1.8418 17.4592 1.8418 17.256C1.9061 16.9521 2.03078 16.7584 2.25048 16.5445C2.29224 16.5023 2.29224 16.5023 2.33484 16.4592C2.42763 16.3656 2.52135 16.2731 2.6151 16.1805C2.68208 16.1133 2.74901 16.0462 2.81588 15.9789C2.99718 15.797 3.17932 15.6159 3.36163 15.4349C3.55238 15.2454 3.74242 15.0551 3.93255 14.8649C4.25181 14.5458 4.57157 14.2272 4.89168 13.9089C5.26185 13.5408 5.63131 13.1721 6.00038 12.8029C6.35549 12.4477 6.71098 12.0929 7.0667 11.7383C7.21808 11.5874 7.36934 11.4364 7.52052 11.2853C7.69844 11.1075 7.8767 10.9301 8.05523 10.7529C8.12073 10.6878 8.18613 10.6226 8.2514 10.5572C8.34041 10.4681 8.42983 10.3795 8.51936 10.2909C8.54518 10.2649 8.57101 10.2389 8.59761 10.2121C8.82075 9.99293 8.98014 9.92578 9.29163 9.91746C9.59015 9.96766 9.77901 10.1707 9.98158 10.3766C10.0283 10.4233 10.0283 10.4233 10.076 10.471C10.1784 10.5735 10.2803 10.6764 10.3822 10.7794C10.4533 10.8507 10.5244 10.9221 10.5956 10.9933C10.7824 11.1807 10.9689 11.3685 11.1552 11.5563C11.3456 11.7481 11.5363 11.9394 11.7271 12.1308C12.101 12.5062 12.4744 12.882 12.8477 13.258C13.1524 13.008 13.4271 12.7295 13.705 12.4507C13.7595 12.3962 13.814 12.3417 13.8685 12.2872C14.0157 12.1401 14.1627 11.9927 14.3097 11.8454C14.4637 11.6912 14.6177 11.5371 14.7718 11.383C15.0632 11.0915 15.3544 10.7998 15.6457 10.5081C15.9774 10.1759 16.3092 9.84388 16.641 9.51182C17.3233 8.82905 18.0055 8.14612 18.6875 7.46308C18.6459 7.46281 18.6043 7.46255 18.5614 7.46228C18.1688 7.45968 17.7762 7.45644 17.3836 7.45249C17.1818 7.45048 16.98 7.44872 16.7781 7.44752C16.5833 7.44635 16.3884 7.44453 16.1936 7.44227C16.1193 7.44152 16.0451 7.44101 15.9708 7.44072C15.8666 7.44029 15.7624 7.43903 15.6582 7.43758C15.599 7.43708 15.5397 7.43658 15.4787 7.43607C15.2535 7.41091 15.1054 7.34157 14.9478 7.17951C14.8071 6.96354 14.7521 6.78077 14.794 6.52095C14.8496 6.35316 14.9582 6.22642 15.0938 6.11542C15.2498 6.04242 15.3731 6.01428 15.5448 6.01387Z" fill="#908F8F"/>
</svg>
