<svg width="24" height="24" viewBox="0 0 24 24" fill="none" xmlns="http://www.w3.org/2000/svg">
<rect width="24" height="24" rx="12" fill="#DBE5EA"/>
<g clip-path="url(#clip0_24_229)">
<path d="M12.4921 6.23436C12.5089 6.23998 12.5257 6.2456 12.5431 6.25139C13.0716 6.4319 13.5616 6.69829 13.9921 7.05468C14.0124 7.0714 14.0124 7.0714 14.0331 7.08847C15.0311 7.91566 15.6348 9.06299 15.7871 10.3489C15.9038 11.6133 15.5895 12.9212 14.7784 13.9168C14.7509 13.9499 14.7231 13.9828 14.6953 14.0156C14.7327 14.1085 14.7972 14.1707 14.8673 14.2397C14.8802 14.2525 14.8931 14.2654 14.9063 14.2787C14.9496 14.3219 14.993 14.3649 15.0364 14.4079C15.0675 14.4388 15.0985 14.4697 15.1295 14.5006C15.1963 14.5672 15.2632 14.6338 15.3302 14.7002C15.4361 14.8054 15.5418 14.9107 15.6475 15.0161C15.9101 15.2779 16.1729 15.5394 16.4358 15.8009C16.64 16.004 16.8441 16.2071 17.0481 16.4106C17.1531 16.5153 17.2582 16.6199 17.3635 16.7243C17.429 16.7894 17.4944 16.8546 17.5598 16.9199C17.5901 16.9501 17.6204 16.9802 17.6508 17.0103C17.6924 17.0514 17.7338 17.0928 17.7751 17.1342C17.7871 17.146 17.7991 17.1577 17.8115 17.1699C17.9085 17.2679 17.9894 17.3714 18.0116 17.5101C18.0062 17.7828 18.0062 17.7828 17.8961 17.8929C17.796 17.9811 17.7176 18.0047 17.5869 18.0102C17.5638 18.0117 17.5408 18.0131 17.5171 18.0145C17.27 17.9694 17.0814 17.7238 16.9121 17.5529C16.8809 17.5217 16.8497 17.4905 16.8185 17.4594C16.7342 17.3751 16.6502 17.2907 16.5662 17.2062C16.4782 17.1178 16.39 17.0295 16.3019 16.9413C16.1351 16.7743 15.9686 16.6072 15.8021 16.44C15.6125 16.2496 15.4226 16.0594 15.2328 15.8692C14.8425 15.4781 14.4524 15.0868 14.0625 14.6953C13.9866 14.7313 13.9226 14.7751 13.8558 14.826C13.0078 15.4711 11.972 15.8095 10.9086 15.8042C10.8903 15.8041 10.8719 15.8041 10.853 15.804C10.0229 15.8004 9.23969 15.605 8.50776 15.2109C8.46675 15.1894 8.46675 15.1894 8.42491 15.1673C7.89123 14.8761 7.40265 14.4476 7.0312 13.9687C7.02139 13.9563 7.01158 13.9438 7.00147 13.931C6.39838 13.1609 6.00378 12.1597 5.99437 11.1753C5.99402 11.1453 5.99402 11.1453 5.99367 11.1148C5.98966 10.6747 5.99323 10.2511 6.0937 9.8203C6.09848 9.79886 6.10325 9.77742 6.10817 9.75533C6.25729 9.10051 6.55207 8.47758 6.96089 7.9453C6.97648 7.92476 6.99207 7.90421 7.00813 7.88304C7.13199 7.72394 7.268 7.57625 7.4062 7.42968C7.4233 7.41131 7.4404 7.39294 7.45802 7.37401C7.59475 7.2317 7.74596 7.11127 7.90318 6.99269C7.93016 6.97233 7.95703 6.95183 7.98377 6.93117C8.5202 6.51739 9.161 6.2397 9.82026 6.09374C9.84233 6.08881 9.86439 6.08388 9.88712 6.0788C10.7377 5.89825 11.6701 5.95902 12.4921 6.23436ZM8.41401 7.68749C8.39549 7.70244 8.39549 7.70244 8.37659 7.7177C7.52684 8.40759 6.98004 9.36398 6.85551 10.4561C6.78696 11.1701 6.87792 11.8926 7.19526 12.5391C7.20224 12.5535 7.20921 12.568 7.21639 12.5829C7.52643 13.2206 8.02857 13.7889 8.60151 14.2031C8.61519 14.213 8.62886 14.2229 8.64294 14.2331C9.47121 14.8248 10.4853 15.0747 11.4951 14.9167C12.3212 14.7719 13.0544 14.43 13.664 13.8516C13.6931 13.8269 13.7224 13.8025 13.7519 13.7783C13.842 13.7014 13.9173 13.615 13.9921 13.5234C14.0098 13.502 14.0274 13.4806 14.0455 13.4585C14.7232 12.6075 15.0496 11.5383 14.9338 10.453C14.8051 9.37968 14.2372 8.4223 13.3955 7.7453C13.3296 7.69366 13.2627 7.64343 13.1953 7.59374C13.1751 7.57863 13.1549 7.56353 13.1341 7.54796C11.7485 6.54272 9.7449 6.60858 8.41401 7.68749Z" fill="white"/>
</g>
<defs>
<clipPath id="clip0_24_229">
<rect width="12" height="12" fill="white" transform="translate(6 6)"/>
</clipPath>
</defs>
</svg>
