<svg width="24" height="24" viewBox="0 0 24 24" fill="none" xmlns="http://www.w3.org/2000/svg">
<g clip-path="url(#clip0_24_233)">
<path d="M4.65469 0.775831C5.29308 1.32184 5.65824 2.01721 5.73062 2.85682C5.76184 3.67664 5.46927 4.41123 4.92185 5.01564C4.38615 5.5598 3.65826 5.84893 2.90036 5.87697C2.10904 5.86205 1.3906 5.5648 0.829439 5.00868C0.486483 4.64584 0.294333 4.27071 0.140596 3.79689C0.128994 3.7613 0.117393 3.72571 0.10544 3.68904C-0.0899412 2.96857 0.0737132 2.21238 0.415071 1.56703C0.811289 0.901715 1.44583 0.466835 2.17929 0.246106C3.02641 0.04613 3.97328 0.227968 4.65469 0.775831Z" fill="#C1212F"/>
<path d="M22.8603 9.7566C22.9787 9.86021 23.0916 9.96708 23.2031 10.0781C23.2428 10.1162 23.2428 10.1162 23.2833 10.155C23.7543 10.6485 23.9536 11.3589 23.9707 12.0234C23.9494 12.8855 23.6059 13.5867 22.9921 14.1856C22.3993 14.6818 21.6202 14.9009 20.8575 14.8534C20.0838 14.7754 19.3865 14.4096 18.8913 13.8091C18.4417 13.202 18.205 12.4759 18.2812 11.7188C18.4175 10.8652 18.7989 10.1786 19.497 9.65918C20.5182 8.99461 21.8894 8.98324 22.8603 9.7566Z" fill="#C1212F"/>
<path d="M13.5 9.65625C13.6657 9.78824 13.8188 9.92864 13.9688 10.0781C14.0085 10.1162 14.0085 10.1162 14.049 10.155C14.5353 10.6645 14.7436 11.4065 14.7352 12.0939C14.708 12.8625 14.4119 13.5395 13.8697 14.0801C13.2618 14.6329 12.511 14.887 11.6953 14.8535C10.9836 14.7891 10.2855 14.5056 9.7969 13.9688C9.25968 13.2927 8.9726 12.5534 9.0599 11.6829C9.14255 11.0815 9.36236 10.5907 9.75003 10.125C9.77498 10.0947 9.79994 10.0645 9.82565 10.0333C10.7425 9.02544 12.3981 8.89699 13.5 9.65625Z" fill="#C1212F"/>
<path d="M4.68363 18.7515C5.27171 19.2402 5.60841 19.9514 5.70683 20.7006C5.76848 21.523 5.52 22.2859 4.98338 22.9102C4.42644 23.4946 3.67727 23.802 2.87693 23.8301C2.04842 23.8156 1.3815 23.5045 0.796853 22.9219C0.770386 22.8965 0.74392 22.8711 0.716652 22.845C0.222232 22.327 0.0221533 21.5809 0.0270657 20.8829C0.0559668 20.0345 0.429826 19.3727 1.03123 18.7969C2.09502 17.8791 3.57855 17.9822 4.68363 18.7515Z" fill="#C1212F"/>
<path d="M13.771 0.801644C14.3725 1.3144 14.7178 1.99102 14.8008 2.77149C14.849 3.5442 14.631 4.22139 14.1562 4.82813C14.1214 4.87647 14.0866 4.92481 14.0508 4.97462C13.4955 5.5551 12.7511 5.85252 11.9531 5.87696C11.1617 5.85072 10.4767 5.56421 9.91991 5.00721C9.33847 4.3825 9.10806 3.6633 9.12926 2.8224C9.16253 2.08695 9.50965 1.44406 10.0312 0.937508C10.0566 0.911224 10.0819 0.884939 10.108 0.857858C11.1048 -0.0987651 12.7249 0.0111799 13.771 0.801644Z" fill="#C1212F"/>
<path d="M4.61792 9.78242C5.15061 10.2176 5.52849 10.9003 5.625 11.5781C5.68663 12.3873 5.55001 13.1132 5.05591 13.775C4.51624 14.3958 3.84352 14.7873 3.01758 14.8535C2.25492 14.8965 1.54683 14.6917 0.963867 14.1826C0.89158 14.1123 0.82021 14.0411 0.75 13.9688C0.704591 13.924 0.704591 13.924 0.658264 13.8783C0.421084 13.6292 0.274405 13.3462 0.140625 13.0313C0.124552 12.9935 0.108479 12.9557 0.0919191 12.9168C-0.145722 12.225 -0.0559504 11.3752 0.258179 10.7298C0.653047 10.0034 1.23803 9.50505 2.02881 9.26515C2.96309 9.03963 3.83102 9.25334 4.61792 9.78242Z" fill="#C1212F"/>
<path d="M13.7755 18.7646C14.2842 19.1894 14.6729 19.8232 14.7657 20.4844C14.8371 21.3975 14.6888 22.1582 14.0977 22.8867C13.5753 23.4476 12.8796 23.7557 12.1231 23.8275C11.3049 23.8554 10.5403 23.573 9.93756 23.0156C9.35764 22.4026 9.1164 21.6909 9.12421 20.8596C9.14805 20.0299 9.49272 19.4087 10.0782 18.8437C11.1293 17.8792 12.6613 17.9562 13.7755 18.7646Z" fill="#C1212F"/>
<path d="M22.7813 18.6094C22.9509 18.7386 23.1014 18.8786 23.25 19.0312C23.2798 19.0595 23.3095 19.0877 23.3401 19.1167C23.5266 19.307 23.6435 19.5165 23.7569 19.7549C23.7773 19.7977 23.7773 19.7977 23.7981 19.8413C23.9626 20.2069 24.0176 20.5689 24.0147 20.9678C24.0144 21.0067 24.0142 21.0455 24.0139 21.0856C23.9995 21.8203 23.7187 22.4871 23.2032 23.0156C22.5798 23.5614 21.8658 23.8501 21.0319 23.8288C20.2473 23.7547 19.539 23.4348 19.0102 22.8395C18.4449 22.1237 18.3098 21.3723 18.375 20.4844C18.4368 20.0028 18.6649 19.6103 18.9375 19.2187C18.9724 19.1685 19.0072 19.1182 19.043 19.0664C20.0681 18.0413 21.5414 17.8417 22.7813 18.6094Z" fill="#C1212F"/>
<path d="M22.9916 0.786253C23.5101 1.21065 23.9043 1.86509 24 2.53125C24.0591 3.43715 23.9301 4.17199 23.3584 4.90722C22.817 5.49611 22.1116 5.7996 21.325 5.87274C20.5928 5.89517 19.8888 5.66472 19.3359 5.17969C19.2648 5.11025 19.1943 5.04002 19.125 4.96875C19.0993 4.94452 19.0735 4.92029 19.047 4.89532C18.8696 4.7137 18.7593 4.49544 18.6445 4.27148C18.6285 4.24054 18.6125 4.2096 18.596 4.17772C18.2992 3.57437 18.2716 2.78938 18.4642 2.14819C18.6485 1.67329 18.9041 1.29442 19.2656 0.937498C19.2909 0.911153 19.3163 0.884808 19.3423 0.857664C20.347 -0.104009 21.9272 0.0275908 22.9916 0.786253Z" fill="#C1212F"/>
</g>
<defs>
<clipPath id="clip0_24_233">
<rect width="24" height="24" fill="white"/>
</clipPath>
</defs>
</svg>
