<svg width="30" height="31" viewBox="0 0 30 31" fill="none" xmlns="http://www.w3.org/2000/svg">
<path d="M9.09668 2.02891C9.2845 2.17304 9.34861 2.2485 9.38578 2.48575C9.3852 2.56331 9.38463 2.64088 9.38404 2.72079C9.38408 2.76373 9.38412 2.80667 9.38415 2.85091C9.38397 2.99234 9.38197 3.13368 9.37994 3.27509C9.37946 3.37334 9.3791 3.47159 9.37884 3.56983C9.37785 3.82804 9.37532 4.08621 9.37246 4.3444C9.36982 4.60802 9.36864 4.87164 9.36734 5.13527C9.36458 5.65225 9.36018 6.16921 9.35474 6.68617C9.46411 6.68581 9.46411 6.68581 9.57569 6.68545C11.3482 6.67971 13.1207 6.67546 14.8931 6.67277C15.7503 6.67143 16.6074 6.66961 17.4646 6.66665C18.2115 6.66408 18.9584 6.66241 19.7054 6.66183C20.101 6.66149 20.4967 6.66069 20.8923 6.65882C21.2645 6.65706 21.6366 6.65652 22.0088 6.65691C22.1456 6.65684 22.2824 6.65632 22.4192 6.65533C22.6056 6.65405 22.7919 6.65435 22.9783 6.65506C23.0328 6.6543 23.0872 6.65355 23.1434 6.65277C23.3806 6.65522 23.5185 6.6637 23.7107 6.8094C23.8141 6.95604 23.8412 7.026 23.8385 7.20365C23.8395 7.26768 23.8395 7.26768 23.8405 7.33301C23.7879 7.53131 23.7126 7.5976 23.5481 7.72112C23.3493 7.76023 23.1527 7.75601 22.9506 7.75397C22.8895 7.75438 22.8283 7.75478 22.7653 7.7552C22.5598 7.75623 22.3544 7.75541 22.149 7.7546C22.0019 7.75495 21.8548 7.75541 21.7077 7.75597C21.3078 7.75715 20.908 7.75669 20.5081 7.75587C20.0901 7.75522 19.6721 7.75583 19.2541 7.75623C18.5071 7.75673 17.76 7.75593 17.013 7.75461C16.3356 7.75346 15.6581 7.75366 14.9807 7.75485C14.1942 7.75623 13.4076 7.75675 12.6211 7.75598C12.2047 7.75558 11.7883 7.75553 11.3719 7.75638C10.9805 7.75713 10.589 7.75661 10.1976 7.75512C10.0537 7.75477 9.90985 7.75487 9.76597 7.75544C9.56998 7.75615 9.37406 7.75527 9.17808 7.75397C9.12077 7.75455 9.06346 7.75513 9.00441 7.75572C8.62073 7.75079 8.62073 7.75079 8.41627 7.59978C8.29912 7.42813 8.28925 7.32551 8.28728 7.11831C8.286 7.04969 8.28473 6.98107 8.28342 6.91038C8.2833 6.7999 8.2833 6.7999 8.28318 6.68718C8.28211 6.61146 8.28105 6.53573 8.27995 6.4577C8.27681 6.21583 8.27544 5.97398 8.27411 5.73208C8.27229 5.5681 8.27036 5.40411 8.26831 5.24013C8.26354 4.83813 8.26021 4.43614 8.25798 4.03412C8.21087 4.08565 8.16375 4.13718 8.11521 4.19027C7.98954 4.32773 7.86387 4.46518 7.7382 4.60264C7.70693 4.63684 7.67565 4.67105 7.64343 4.70629C7.57955 4.77616 7.51567 4.84603 7.45179 4.9159C7.3067 5.07459 7.16162 5.23328 7.01656 5.39198C6.89668 5.52311 6.77672 5.65415 6.65669 5.78514C6.38396 6.0829 6.11186 6.38113 5.84268 6.68213C5.55517 7.00328 5.26321 7.32016 4.97097 7.63698C4.57072 8.07092 4.17177 8.50604 3.77819 8.94607C3.49068 9.26722 3.19871 9.58411 2.90647 9.90092C2.40669 10.4428 1.91056 10.9878 1.41934 11.5375C1.50748 11.7339 1.60842 11.8744 1.75679 12.0297C1.79799 12.0732 1.8392 12.1167 1.88166 12.1616C1.9247 12.2064 1.96773 12.2513 2.01208 12.2975C2.30066 12.6004 2.58355 12.9059 2.85722 13.2224C3.03716 13.428 3.22426 13.6266 3.41126 13.8257C3.71435 14.1498 4.0143 14.4761 4.30968 14.8073C4.56098 15.0879 4.81598 15.3651 5.07045 15.6428C5.24861 15.8373 5.42652 16.0321 5.60447 16.2268C5.75384 16.3902 5.90329 16.5535 6.05286 16.7168C6.37284 17.0661 6.69093 17.417 7.00673 17.7702C7.22279 18.0094 7.4417 18.246 7.66132 18.4819C7.69222 18.5153 7.72312 18.5486 7.75496 18.583C7.78201 18.6121 7.80906 18.6412 7.83693 18.6711C7.98148 18.834 8.11927 19.0023 8.25798 19.1702C8.25822 19.1278 8.25845 19.0855 8.25869 19.0418C8.26139 18.6011 8.26586 18.1604 8.27137 17.7197C8.27319 17.5552 8.27456 17.3907 8.27546 17.2262C8.27684 16.9898 8.27985 16.7535 8.28318 16.5171C8.28326 16.4435 8.28334 16.3698 8.28342 16.294C8.28469 16.2253 8.28597 16.1567 8.28728 16.086C8.28785 16.0257 8.28842 15.9654 8.28901 15.9032C8.33411 15.686 8.40653 15.6191 8.58056 15.4832C8.78561 15.4514 8.78561 15.4514 9.03286 15.4521C9.0784 15.4519 9.12393 15.4517 9.17085 15.4514C9.32342 15.451 9.47592 15.4524 9.62849 15.4538C9.73786 15.4539 9.84722 15.4539 9.95658 15.4537C10.2536 15.4537 10.5505 15.4552 10.8475 15.457C11.1578 15.4586 11.4681 15.4587 11.7784 15.4591C12.3661 15.4599 12.9537 15.462 13.5414 15.4646C14.2104 15.4675 14.8794 15.4689 15.5485 15.4702C16.9247 15.4729 18.301 15.4774 19.6772 15.4832C19.6766 15.4287 19.6761 15.3742 19.6755 15.318C19.6703 14.804 19.6664 14.2901 19.6638 13.7761C19.6625 13.5119 19.6607 13.2477 19.6578 12.9835C19.6549 12.7285 19.6534 12.4735 19.6527 12.2185C19.6523 12.1212 19.6513 12.0239 19.6499 11.9266C19.6481 11.7903 19.6478 11.6541 19.6479 11.5178C19.6473 11.4403 19.6468 11.3627 19.6462 11.2828C19.6772 11.0847 19.6772 11.0847 19.7922 10.9303C19.9686 10.8017 20.11 10.7889 20.3259 10.8017C20.6636 10.867 20.8662 11.1847 21.0782 11.4336C21.2729 11.6562 21.475 11.8715 21.6772 12.0873C22.1513 12.5941 22.1513 12.5941 22.3546 12.8312C22.6089 13.1275 22.8777 13.4104 23.1442 13.6956C23.407 13.977 23.6661 14.2612 23.9224 14.5486C24.1737 14.8292 24.4287 15.1064 24.6832 15.3841C24.8613 15.5786 25.0392 15.7733 25.2172 15.968C25.3665 16.1314 25.516 16.2948 25.6656 16.458C25.9383 16.7558 26.2104 17.054 26.4796 17.355C26.7671 17.6762 27.059 17.993 27.3513 18.3099C27.7644 18.7578 28.1755 19.2075 28.5844 19.6594C28.6304 19.7102 28.6764 19.7609 28.7237 19.8133C28.923 20.0446 29.0094 20.2065 28.9992 20.5182C28.9348 20.8015 28.7146 20.9758 28.5158 21.1754C28.3998 21.3017 28.2843 21.4284 28.1691 21.5554C28.1074 21.6228 28.0456 21.6901 27.9838 21.7573C27.8279 21.9274 27.6736 22.0989 27.5199 22.271C27.2324 22.5922 26.9404 22.909 26.6482 23.2259C26.2479 23.6598 25.849 24.0949 25.4554 24.5349C25.1679 24.8561 24.8759 25.173 24.5837 25.4898C24.1834 25.9237 23.7845 26.3589 23.3909 26.7989C23.1034 27.12 22.8114 27.4369 22.5192 27.7537C21.5812 28.7697 21.5812 28.7697 20.6714 29.811C20.4943 29.9994 20.3182 29.9862 20.0688 30C19.8707 29.9591 19.802 29.8713 19.6772 29.7137C19.6462 29.5156 19.6462 29.5156 19.6479 29.2806C19.6479 29.2376 19.6478 29.1947 19.6478 29.1505C19.648 29.009 19.65 28.8677 19.652 28.7263C19.6525 28.628 19.6529 28.5298 19.6531 28.4315C19.6541 28.1733 19.6566 27.9152 19.6595 27.657C19.6621 27.3934 19.6633 27.1297 19.6646 26.8661C19.6674 26.3491 19.6718 25.8322 19.6772 25.3152C19.6043 25.3154 19.5314 25.3157 19.4563 25.3159C17.6838 25.3217 15.9113 25.3259 14.1388 25.3286C13.2817 25.3299 12.4245 25.3318 11.5674 25.3347C10.8204 25.3373 10.0735 25.339 9.32659 25.3395C8.93094 25.3399 8.5353 25.3407 8.13966 25.3426C7.7675 25.3443 7.39536 25.3449 7.0232 25.3445C6.8864 25.3445 6.7496 25.3451 6.6128 25.346C6.4264 25.3473 6.24008 25.347 6.05368 25.3463C5.99921 25.3471 5.94474 25.3478 5.88861 25.3486C5.6514 25.3462 5.51346 25.3377 5.32131 25.192C5.2179 25.0453 5.19073 24.9754 5.1935 24.7977C5.19283 24.755 5.19216 24.7123 5.19148 24.6684C5.24401 24.4701 5.31934 24.4038 5.48382 24.2803C5.68264 24.2411 5.87927 24.2454 6.08134 24.2474C6.1425 24.247 6.20366 24.2466 6.26667 24.2462C6.47213 24.2451 6.67754 24.246 6.88299 24.2468C7.03008 24.2464 7.17716 24.246 7.32424 24.2454C7.72412 24.2442 8.12399 24.2447 8.52387 24.2455C8.94187 24.2462 9.35987 24.2455 9.77787 24.2451C10.5249 24.2446 11.2719 24.2454 12.0189 24.2468C12.6964 24.2479 13.3738 24.2477 14.0513 24.2465C14.8378 24.2451 15.6243 24.2446 16.4108 24.2454C16.8273 24.2458 17.2437 24.2458 17.6601 24.245C18.0515 24.2442 18.4429 24.2448 18.8344 24.2463C18.9782 24.2466 19.1221 24.2465 19.266 24.2459C19.462 24.2452 19.6579 24.2461 19.8539 24.2474C19.9398 24.2465 19.9398 24.2465 20.0275 24.2457C20.4112 24.2506 20.4112 24.2506 20.6157 24.4016C20.7328 24.5732 20.7427 24.6759 20.7447 24.8831C20.746 24.9517 20.7472 25.0203 20.7485 25.091C20.7487 25.2015 20.7487 25.2015 20.7488 25.3142C20.7498 25.3899 20.7509 25.4656 20.752 25.5437C20.7551 25.7855 20.7565 26.0274 20.7579 26.2693C20.7597 26.4333 20.7616 26.5973 20.7636 26.7612C20.7684 27.1632 20.7718 27.5652 20.774 27.9673C20.8211 27.9157 20.8682 27.8642 20.9167 27.8111C21.1053 27.6049 21.1053 27.6049 21.2938 27.3987C21.3407 27.3474 21.3407 27.3474 21.3885 27.2951C21.4524 27.2252 21.5163 27.1553 21.5802 27.0855C21.7253 26.9268 21.8703 26.7681 22.0154 26.6094C22.1353 26.4783 22.2552 26.3472 22.3753 26.2162C22.648 25.9185 22.9201 25.6202 23.1893 25.3192C23.4768 24.9981 23.7688 24.6812 24.061 24.3644C24.4612 23.9305 24.8602 23.4953 25.2538 23.0553C25.5413 22.7342 25.8333 22.4173 26.1255 22.1005C26.6253 21.5586 27.1214 21.0136 27.6126 20.4639C27.5245 20.2674 27.4235 20.1269 27.2752 19.9717C27.234 19.9282 27.1928 19.8846 27.1503 19.8398C27.0857 19.7725 27.0857 19.7725 27.0199 19.7039C26.7313 19.401 26.4484 19.0955 26.1747 18.7789C25.9948 18.5734 25.8077 18.3748 25.6207 18.1757C25.3176 17.8516 25.0177 17.5252 24.7223 17.1941C24.471 16.9135 24.216 16.6362 23.9615 16.3585C23.7833 16.164 23.6054 15.9693 23.4275 15.7746C23.2781 15.6112 23.1287 15.4478 22.9791 15.2846C22.6591 14.9353 22.341 14.5844 22.0252 14.2312C21.8092 13.992 21.5903 13.7554 21.3706 13.5195C21.3397 13.4861 21.3088 13.4527 21.277 13.4184C21.25 13.3893 21.2229 13.3602 21.195 13.3303C21.0505 13.1673 20.9127 12.9991 20.774 12.8312C20.7737 12.8735 20.7735 12.9159 20.7733 12.9596C20.7706 13.4003 20.7661 13.841 20.7606 14.2817C20.7588 14.4462 20.7574 14.6107 20.7565 14.7752C20.7551 15.0116 20.7521 15.2479 20.7488 15.4842C20.7487 15.5579 20.7486 15.6315 20.7485 15.7074C20.7473 15.776 20.746 15.8447 20.7447 15.9153C20.7441 15.9757 20.7435 16.036 20.7429 16.0982C20.6978 16.3154 20.6254 16.3822 20.4514 16.5182C20.2463 16.55 20.2463 16.55 19.9991 16.5493C19.9536 16.5495 19.908 16.5497 19.8611 16.5499C19.7085 16.5504 19.556 16.5489 19.4035 16.5475C19.2941 16.5475 19.1847 16.5475 19.0754 16.5476C18.7784 16.5477 18.4815 16.5462 18.1845 16.5444C17.8742 16.5428 17.5639 16.5426 17.2535 16.5423C16.6659 16.5415 16.0782 16.5394 15.4906 16.5368C14.8215 16.5339 14.1525 16.5325 13.4835 16.5312C12.1072 16.5285 10.731 16.5239 9.35474 16.5182C9.35532 16.5727 9.35589 16.6272 9.35648 16.6834C9.36165 17.1973 9.36558 17.7113 9.36811 18.2252C9.36946 18.4895 9.37129 18.7537 9.37421 19.0179C9.37702 19.2729 9.37856 19.5279 9.37923 19.7829C9.3797 19.8802 9.38063 19.9775 9.38203 20.0747C9.3839 20.211 9.38416 20.3472 9.38404 20.4835C9.38461 20.5611 9.38519 20.6387 9.38578 20.7186C9.35474 20.9167 9.35474 20.9167 9.23976 21.0711C9.0634 21.1997 8.92198 21.2125 8.70606 21.1997C8.36839 21.1344 8.16576 20.8167 7.9538 20.5677C7.75906 20.3451 7.55694 20.1299 7.35476 19.9141C6.88064 19.4073 6.88064 19.4073 6.67735 19.1702C6.42306 18.8738 6.1543 18.5909 5.88771 18.3057C5.62497 18.0244 5.36585 17.7401 5.10957 17.4528C4.85827 17.1722 4.60328 16.895 4.34881 16.6173C4.17065 16.4228 3.99274 16.228 3.81479 16.0333C3.66541 15.8699 3.51597 15.7066 3.3664 15.5433C3.09367 15.2456 2.82157 14.9474 2.55239 14.6464C2.26488 14.3252 1.97292 14.0083 1.68068 13.6915C1.43384 13.4239 1.18768 13.1557 0.942783 12.8862C0.832027 12.7651 0.720322 12.6448 0.607605 12.5254C0.0809765 11.9607 0.0809765 11.9607 0 11.6022C0.0882708 11.2482 0.263606 11.0589 0.52444 10.8126C0.640928 10.7006 0.745826 10.5849 0.850798 10.4621C1.05182 10.2285 1.25868 10.0011 1.46773 9.77484C1.501 9.73881 1.53428 9.70279 1.56856 9.66567C1.63629 9.59236 1.70402 9.51906 1.77175 9.44577C1.92495 9.27967 2.07743 9.11292 2.22982 8.94607C2.25873 8.91442 2.28764 8.88277 2.31742 8.85015C2.37574 8.78629 2.43406 8.72243 2.49238 8.65856C2.58228 8.56019 2.67229 8.46191 2.76232 8.36366C3.03515 8.06584 3.30732 7.76751 3.57658 7.46642C3.86409 7.14528 4.15605 6.82839 4.44829 6.51158C4.84854 6.07763 5.24749 5.64252 5.64107 5.20248C5.92858 4.88133 6.22055 4.56445 6.51279 4.24763C7.45081 3.23166 7.45081 3.23166 8.36055 2.19037C8.55591 1.98256 8.82878 1.97367 9.09668 2.02891Z" fill="#2DA74E"/>
</svg>
