<svg width="30" height="31" viewBox="0 0 30 31" fill="none" xmlns="http://www.w3.org/2000/svg">
<g clip-path="url(#clip0_24_94)">
<path d="M21.2732 1.89526C21.339 1.92588 21.339 1.92588 21.4062 1.95711C21.6896 2.09708 21.9658 2.25266 22.0789 2.5652C22.1045 2.86451 22.0926 3.05659 21.9141 3.3125C21.7863 3.45968 21.694 3.53565 21.4988 3.5657C21.0737 3.57793 20.7697 3.45801 20.3907 3.27587C20.2712 3.22146 20.1517 3.16737 20.032 3.1136C19.9735 3.08727 19.9149 3.06093 19.8546 3.0338C16.706 1.66082 13.0069 1.91548 9.86438 3.13852C7.80081 3.97386 5.87084 5.4103 4.51174 7.17968C4.4738 7.22895 4.4738 7.22895 4.4351 7.27922C2.26872 10.1101 1.27347 13.7154 1.73392 17.2569C2.24707 20.8372 4.10312 24.0459 6.99358 26.228C8.77016 27.5501 10.8801 28.4097 13.0664 28.7422C13.1107 28.7491 13.155 28.7559 13.2007 28.763C16.5649 29.2599 20.1709 28.3249 22.8983 26.3064C23.4386 25.8994 23.9418 25.4557 24.4336 24.9922C24.4765 24.9518 24.5194 24.9114 24.5636 24.8697C24.8807 24.5621 25.1558 24.225 25.4297 23.8789C25.4762 23.8217 25.5228 23.7644 25.5707 23.7054C26.2003 22.9145 26.707 22.0425 27.1289 21.125C27.1483 21.083 27.1677 21.041 27.1877 20.9977C28.6214 17.8491 28.7651 14.1981 27.5865 10.9412C27.1037 9.66087 26.4721 8.50275 25.6552 7.40559C25.2017 6.79572 25.2017 6.79572 25.1953 6.47656C25.2353 6.25949 25.2949 6.07814 25.4599 5.92587C25.7 5.77341 25.906 5.73643 26.1914 5.77343C27.7147 6.56862 28.7508 9.3513 29.2426 10.8698C30.4781 14.901 30.0353 19.0681 28.0787 22.7878C27.6774 23.5338 27.1927 24.2174 26.6602 24.875C26.6344 24.9069 26.6086 24.9388 26.582 24.9717C25.9108 25.7945 25.1632 26.5759 24.3164 27.2187C24.2442 27.2751 24.1719 27.3315 24.0997 27.3879C23.5882 27.7834 23.0656 28.1363 22.5 28.4492C22.4512 28.4764 22.4023 28.5036 22.352 28.5316C20.6883 29.4493 18.9327 30.0502 17.0508 30.3242C17.0042 30.3311 16.9575 30.3379 16.9095 30.345C13.4005 30.8357 9.44438 29.9654 6.56253 27.8633C6.52701 27.8375 6.49149 27.8118 6.45489 27.7853C5.28215 26.9324 4.15738 25.981 3.28128 24.8164C3.25173 24.7783 3.22219 24.7403 3.19175 24.7011C0.74845 21.5524 -0.320158 17.5604 0.151646 13.608C0.466066 11.2241 1.32275 8.8327 2.75393 6.88671C2.78934 6.83837 2.78934 6.83837 2.82546 6.78904C2.99193 6.5636 3.16442 6.34349 3.33987 6.125C3.3864 6.06638 3.43292 6.00777 3.48086 5.94738C4.19535 5.07412 5.00179 4.2657 5.91799 3.60546C5.95679 3.57704 5.99558 3.54861 6.03555 3.51932C10.4141 0.315797 16.3117 -0.420402 21.2732 1.89526Z" fill="#908F8F"/>
<path d="M17.8711 8.8789C18.9054 9.71036 19.56 10.8373 19.7189 12.1631C19.8376 13.3956 19.5082 14.6361 18.7342 15.6085C18.6066 15.7524 18.4749 15.8903 18.3398 16.0273C18.3089 16.0625 18.2781 16.0976 18.2462 16.1338C17.9904 16.4157 17.6822 16.6123 17.3631 16.8154C17.1564 16.9477 16.9892 17.0818 16.8164 17.2578C16.7777 17.2578 16.7391 17.2578 16.6992 17.2578C16.6833 17.2916 16.6673 17.3255 16.6509 17.3603C16.5821 17.492 16.5038 17.606 16.4172 17.7266C16.0354 18.2941 15.8426 18.9101 15.7947 19.5869C15.7676 19.9157 15.6838 20.0778 15.4651 20.323C15.2128 20.4679 14.9909 20.4815 14.707 20.4219C14.4741 20.288 14.3237 20.1508 14.2383 19.8945C14.135 18.5673 14.6474 17.3021 15.4974 16.3006C15.8506 15.926 16.2461 15.6146 16.6846 15.3462C17.3734 14.922 17.8425 14.2911 18.0469 13.5078C18.232 12.5794 18.1468 11.7583 17.6511 10.9347C17.1417 10.1876 16.4017 9.71637 15.5127 9.5454C14.5607 9.4502 13.657 9.67349 12.9016 10.2778C12.2302 10.8981 11.8977 11.7379 11.839 12.6363C11.8073 12.9637 11.7084 13.1059 11.4844 13.332C11.2722 13.4639 11.0857 13.4659 10.8396 13.4259C10.6273 13.3619 10.523 13.2604 10.3711 13.0977C10.2251 12.7852 10.2529 12.5148 10.2905 12.1821C10.2962 12.13 10.3019 12.0778 10.3077 12.0241C10.3567 11.6175 10.4414 11.248 10.6055 10.8711C10.6302 10.8137 10.6549 10.7563 10.6803 10.6971C11.2189 9.53932 12.1187 8.70861 13.3008 8.23437C14.8443 7.70602 16.5534 7.88343 17.8711 8.8789Z" fill="#908F8F"/>
<path d="M15.5296 21.6114C15.739 21.785 15.8631 21.9003 15.8908 22.1847C15.8984 22.5563 15.838 22.74 15.5786 23.0147C15.35 23.1538 15.1491 23.188 14.8828 23.1758C14.6346 23.0868 14.4667 22.9669 14.2969 22.7656C14.2174 22.5273 14.2072 22.3117 14.2383 22.0625C14.3765 21.7959 14.5315 21.6104 14.8096 21.4912C15.0754 21.4617 15.3024 21.4664 15.5296 21.6114Z" fill="#908F8F"/>
</g>
<defs>
<clipPath id="clip0_24_94">
<rect width="30" height="30" fill="white" transform="translate(0 0.5)"/>
</clipPath>
</defs>
</svg>
