<svg width="20" height="12" viewBox="0 0 20 12" fill="none" xmlns="http://www.w3.org/2000/svg">
<path d="M13.703 0.00605461C13.7475 0.00573635 13.792 0.00541808 13.8379 0.00509018C13.9104 0.00525711 13.9104 0.00525711 13.9844 0.00542742C14.0357 0.00519783 14.087 0.00496824 14.1398 0.00473169C14.3094 0.00410728 14.479 0.00415044 14.6486 0.00425392C14.7664 0.00407933 14.8843 0.00388461 15.0022 0.0036706C15.2493 0.00330191 15.4964 0.00334229 15.7434 0.00358492C16.0287 0.00385626 16.314 0.00330306 16.5992 0.00234642C16.8741 0.00145872 17.1489 0.00132277 17.4238 0.00148101C17.5405 0.00145794 17.6573 0.00122234 17.774 0.000770707C17.9373 0.000216758 18.1005 0.000519502 18.2637 0.00104052C18.312 0.000697147 18.3602 0.000353776 18.4099 0C18.6911 0.00198446 18.9018 0.0232753 19.1208 0.218335C19.2835 0.423479 19.3218 0.560572 19.3227 0.817364C19.323 0.860624 19.3232 0.903885 19.3235 0.948456C19.3235 0.995622 19.3236 1.04279 19.3236 1.09138C19.3239 1.14129 19.3241 1.1912 19.3243 1.24262C19.325 1.40785 19.3253 1.57308 19.3255 1.73831C19.3258 1.85312 19.326 1.96794 19.3263 2.08275C19.3267 2.29279 19.327 2.50283 19.3271 2.71287C19.3273 3.02153 19.3281 3.33018 19.3294 3.63883C19.3305 3.90661 19.3309 4.17438 19.3309 4.44215C19.3311 4.55586 19.3314 4.66958 19.332 4.78329C19.3328 4.94243 19.3327 5.10155 19.3324 5.26069C19.3328 5.30759 19.3332 5.35448 19.3337 5.4028C19.332 5.69202 19.3121 5.93422 19.1127 6.16048C18.8557 6.35105 18.6915 6.38653 18.373 6.35175C18.1519 6.24529 18.0427 6.11467 17.9238 5.90253C17.9064 5.78033 17.8984 5.67625 17.8993 5.55441C17.8988 5.52063 17.8984 5.48686 17.8979 5.45205C17.8966 5.34121 17.8965 5.23041 17.8965 5.11956C17.8958 5.04239 17.895 4.96522 17.8942 4.88806C17.8922 4.68556 17.8913 4.48307 17.8907 4.28057C17.8898 4.07369 17.8879 3.86682 17.8861 3.65995C17.8827 3.25448 17.8805 2.84902 17.8789 2.44355C17.846 2.47657 17.813 2.50959 17.7791 2.54362C16.9782 3.34654 16.177 4.14919 15.3755 4.95158C14.988 5.33961 14.6005 5.72773 14.2132 6.11604C13.8757 6.45443 13.538 6.79266 13.2002 7.1307C13.0213 7.30975 12.8424 7.48889 12.6637 7.66821C12.4957 7.8369 12.3274 8.00539 12.1589 8.17371C12.097 8.2356 12.0353 8.29757 11.9735 8.35962C11.8894 8.44419 11.805 8.52848 11.7206 8.6127C11.6961 8.63743 11.6716 8.66216 11.6464 8.68765C11.4468 8.8857 11.3154 8.97012 11.0339 8.97406C10.9928 8.97534 10.9517 8.97661 10.9093 8.97793C10.611 8.92971 10.4005 8.67884 10.1966 8.4726C10.1663 8.44234 10.136 8.41208 10.1049 8.38091C10.0055 8.28146 9.90642 8.18171 9.80736 8.08194C9.73827 8.01269 9.66916 7.94345 9.60003 7.87423C9.41861 7.69246 9.23745 7.51043 9.05635 7.32833C8.87132 7.14238 8.68603 6.95668 8.50076 6.77096C8.13763 6.40687 7.77478 6.04248 7.41211 5.67792C7.23309 5.7499 7.11332 5.87494 6.98039 6.0099C6.95545 6.03486 6.9305 6.05982 6.90481 6.08554C6.82124 6.16927 6.73801 6.25332 6.65477 6.33736C6.59493 6.39744 6.53508 6.4575 6.47521 6.51753C6.3463 6.64688 6.21753 6.77636 6.08886 6.90595C5.88544 7.1108 5.68166 7.31528 5.47781 7.5197C4.97154 8.02749 4.4657 8.53571 3.96007 9.04414C3.56713 9.43925 3.17405 9.83422 2.7805 10.2287C2.57778 10.432 2.37538 10.6355 2.17321 10.8393C2.04743 10.9659 1.92136 11.0923 1.79521 11.2186C1.73673 11.2772 1.67836 11.336 1.62012 11.3949C1.54065 11.4753 1.46077 11.5552 1.38078 11.635C1.34629 11.6702 1.34629 11.6702 1.3111 11.7061C1.12272 11.8926 0.98449 11.9602 0.721558 11.981C0.470958 11.973 0.321744 11.8833 0.143188 11.7087C0.029538 11.5398 0 11.4513 0 11.2482C0.0643045 10.9443 0.188984 10.7505 0.408684 10.5367C0.450443 10.4945 0.450442 10.4945 0.493045 10.4514C0.585836 10.3578 0.679552 10.2653 0.773301 10.1727C0.840285 10.1055 0.90721 10.0384 0.974081 9.97111C1.15539 9.78915 1.33752 9.60805 1.51983 9.42711C1.71058 9.23754 1.90062 9.04726 2.09076 8.85708C2.41001 8.53795 2.72978 8.21935 3.04988 7.90108C3.42006 7.53303 3.78952 7.16428 4.15858 6.79512C4.51369 6.43992 4.86919 6.08512 5.2249 5.73052C5.37628 5.57962 5.52754 5.4286 5.67872 5.2775C5.85664 5.09971 6.0349 4.92227 6.21343 4.7451C6.27894 4.67999 6.34433 4.61476 6.4096 4.54941C6.49862 4.46033 6.58803 4.37168 6.67757 4.28312C6.70339 4.25709 6.72921 4.23106 6.75581 4.20424C6.97895 3.98512 7.13834 3.91796 7.44984 3.90965C7.74835 3.95985 7.93722 4.16284 8.13979 4.36882C8.18651 4.41551 8.18651 4.41551 8.23417 4.46314C8.33658 4.56564 8.4385 4.66861 8.54042 4.77159C8.61152 4.84293 8.68264 4.91425 8.75379 4.98554C8.94063 5.17289 9.12707 5.36065 9.31342 5.5485C9.50379 5.74025 9.69455 5.93162 9.88527 6.12302C10.2592 6.49837 10.6327 6.87414 11.0059 7.25019C11.3106 7.0002 11.5853 6.72165 11.8632 6.44284C11.9177 6.38836 11.9722 6.33388 12.0267 6.27942C12.1739 6.13224 12.3209 5.98493 12.4679 5.83759C12.6219 5.68337 12.7759 5.52928 12.93 5.37517C13.2214 5.08365 13.5126 4.79201 13.8039 4.50033C14.1356 4.16814 14.4674 3.83607 14.7992 3.50401C15.4815 2.82124 16.1637 2.13831 16.8457 1.45527C16.8041 1.455 16.7625 1.45474 16.7196 1.45447C16.327 1.45186 15.9344 1.44862 15.5418 1.44468C15.34 1.44267 15.1382 1.44091 14.9363 1.4397C14.7415 1.43853 14.5466 1.43672 14.3518 1.43446C14.2775 1.43371 14.2033 1.43319 14.129 1.43291C14.0248 1.43248 13.9206 1.43122 13.8164 1.42977C13.7572 1.42927 13.6979 1.42877 13.6369 1.42826C13.4117 1.4031 13.2636 1.33376 13.106 1.1717C12.9653 0.955727 12.9103 0.772954 12.9522 0.513135C13.0078 0.345351 13.1164 0.218607 13.252 0.107609C13.408 0.0346103 13.5313 0.00646554 13.703 0.00605461Z" fill="#2DA74E"/>
</svg>
